<?xml version="1.0" encoding="UTF-8" standalone="no"?>
<svg xmlns:rdf="http://www.w3.org/1999/02/22-rdf-syntax-ns#" xmlns="http://www.w3.org/2000/svg" xmlns:osb="http://www.openswatchbook.org/uri/2009/osb" height="16px" width="16px" version="1.1" xmlns:cc="http://creativecommons.org/ns#" xmlns:xlink="http://www.w3.org/1999/xlink" xmlns:dc="http://purl.org/dc/elements/1.1/">
<defs>
<linearGradient id="d" y2="10.5" gradientUnits="userSpaceOnUse" x2="8.04" gradientTransform="matrix(-1 0 0 1 16 0)" y1="16.5" x1="7.04">
<stop stop-color="#4e9a06" offset="0"/>
<stop stop-color="#c8f39d" offset="1"/>
</linearGradient>
<linearGradient id="c" y2="10" gradientUnits="userSpaceOnUse" x2="8.04" gradientTransform="matrix(-1 0 0 1 16 0)" y1="17" x1="7.04">
<stop stop-color="#316004" offset="0"/>
<stop stop-color="#52a108" offset="1"/>
</linearGradient>
<linearGradient id="b" y2="11" gradientUnits="userSpaceOnUse" x2="9" x1="7">
<stop stop-color="#3a3c39" offset="0"/>
<stop stop-color="#1c1f21" offset="1"/>
</linearGradient>
<linearGradient id="a" y2="10" gradientUnits="userSpaceOnUse" x2="9" y1="1" x1="7">
<stop stop-color="#929a9f" offset="0"/>
<stop stop-color="#67747b" offset="1"/>
</linearGradient>
</defs>
<metadata>
<rdf:RDF>
<cc:Work rdf:about="">
<dc:format>image/svg+xml</dc:format>
<dc:type rdf:resource="http://purl.org/dc/dcmitype/StillImage"/>
<dc:title/>
<cc:license rdf:resource="http://creativecommons.org/publicdomain/zero/1.0/"/>
<dc:creator>
<cc:Agent>
<dc:title>Geert Bergman, geert@www.scrivo.org</dc:title>
</cc:Agent>
</dc:creator>
</cc:Work>
</rdf:RDF>
</metadata>
<g>
<path stroke-linejoin="round" d="m15.5 13.5-3-3v2h-10v2h10v2z" stroke="url(#c)" stroke-width="1px" fill="url(#d)"/>
<g stroke="url(#b)" fill="url(#a)">
<path d="m14 0.492h-6.99c-0.277 0-0.5 0.223-0.5 0.5v1.02c0 0.277 0.223 0.5 0.5 0.5h6.99c0.277 0 0.5-0.223 0.5-0.5v-1.02c0-0.277-0.223-0.5-0.5-0.5z"/>
<path d="m14 4.52h-13c-0.277 0-0.5 0.223-0.5 0.5v0.97c0 0.277 0.223 0.5 0.5 0.5h13c0.277 0 0.5-0.223 0.5-0.5v-0.97c0-0.277-0.223-0.5-0.5-0.5z"/>
<path d="m14 8.52h-11c-0.277 0-0.5 0.223-0.5 0.5v0.965c0 0.277 0.223 0.5 0.5 0.5h11c0.277 0 0.5-0.223 0.5-0.5v-0.965c0-0.277-0.223-0.5-0.5-0.5z"/>
</g>
</g>
</svg>
