<?xml version="1.0" encoding="UTF-8" standalone="no"?>
<svg xmlns:rdf="http://www.w3.org/1999/02/22-rdf-syntax-ns#" xmlns="http://www.w3.org/2000/svg" height="16px" width="16px" version="1.1" enable-background="new" xmlns:cc="http://creativecommons.org/ns#" xmlns:xlink="http://www.w3.org/1999/xlink" xmlns:dc="http://purl.org/dc/elements/1.1/">
<defs>
<linearGradient id="i" y2="3" gradientUnits="userSpaceOnUse" x2="5.5" y1="3" x1=".5">
<stop stop-color="#5c3566" offset="0"/>
<stop stop-color="#5c3566" offset="1"/>
</linearGradient>
<linearGradient id="h" y2="3" gradientUnits="userSpaceOnUse" x2="5.5" y1="3" x1=".5">
<stop stop-color="#204a87" offset="0"/>
<stop stop-color="#204a87" offset="1"/>
</linearGradient>
<linearGradient id="g" y2="3" gradientUnits="userSpaceOnUse" x2="5.5" y1="3" x1=".5">
<stop stop-color="#ce5c00" offset="0"/>
<stop stop-color="#ce5c00" offset="1"/>
</linearGradient>
<linearGradient id="f" y2="3" gradientUnits="userSpaceOnUse" x2="5.5" y1="3" x1=".5">
<stop stop-color="#8f5902" offset="0"/>
<stop stop-color="#8f5902" offset="1"/>
</linearGradient>
<linearGradient id="e" y2="3" gradientUnits="userSpaceOnUse" x2="5.5" y1="3" x1=".5">
<stop stop-color="#9ca096" offset="0"/>
<stop stop-color="#9ca096" offset="1"/>
</linearGradient>
<linearGradient id="d" y2="3" gradientUnits="userSpaceOnUse" x2="5.5" y1="3" x1=".5">
<stop stop-color="#4e9a06" offset="0"/>
<stop stop-color="#4e9a06" offset="1"/>
</linearGradient>
<linearGradient id="c" y2="3" gradientUnits="userSpaceOnUse" x2="5.5" y1="3" x1=".5">
<stop stop-color="#a40000" offset="0"/>
<stop stop-color="#a40000" offset="1"/>
</linearGradient>
<linearGradient id="b" y2="3" gradientUnits="userSpaceOnUse" x2="5.5" y1="3" x1=".5">
<stop stop-color="#2e3436" offset="0"/>
<stop stop-color="#2e3436" offset="1"/>
</linearGradient>
<linearGradient id="a" y2="3" gradientUnits="userSpaceOnUse" x2="5.5" y1="3" x1=".5">
<stop stop-color="#c4a000" offset="0"/>
<stop stop-color="#c4a000" offset="1"/>
</linearGradient>
</defs>
<metadata>
<rdf:RDF>
<cc:Work rdf:about="">
<dc:format>image/svg+xml</dc:format>
<dc:type rdf:resource="http://purl.org/dc/dcmitype/StillImage"/>
<dc:title/>
<cc:license rdf:resource="http://creativecommons.org/publicdomain/zero/1.0/"/>
<dc:creator>
<cc:Agent>
<dc:title>Geert Bergman, geert@www.scrivo.org</dc:title>
</cc:Agent>
</dc:creator>
</cc:Work>
</rdf:RDF>
</metadata>
<g fill-rule="evenodd" stroke-width="1px">
<g>
<path d="m5 3a2 2 0 1 1 -4 0 2 2 0 1 1 4 0z" transform="translate(5)" stroke="url(#h)" fill="#729fcf"/>
<path d="m5 3a2 2 0 1 1 -4 0 2 2 0 1 1 4 0z" transform="translate(10)" stroke="url(#g)" fill="#fcaf3e"/>
<path d="m5 3a2 2 0 1 1 -4 0 2 2 0 1 1 4 0z" transform="translate(0 5)" stroke="url(#f)" fill="#e9b96e"/>
</g>
<path d="m5 3a2 2 0 1 1 -4 0 2 2 0 1 1 4 0z" transform="translate(5 5)" stroke="url(#e)" fill="#eeeeec"/>
<path d="m5 3a2 2 0 1 1 -4 0 2 2 0 1 1 4 0z" transform="translate(10 5)" stroke="url(#d)" fill="#8ae234"/>
<path d="m5 3a2 2 0 1 1 -4 0 2 2 0 1 1 4 0z" transform="translate(0 10)" stroke="url(#c)" fill="#ef2929"/>
<path d="m5 3a2 2 0 1 1 -4 0 2 2 0 1 1 4 0z" transform="translate(5 10)" stroke="url(#b)" fill="#888a85"/>
<path d="m5 3a2 2 0 1 1 -4 0 2 2 0 1 1 4 0z" transform="translate(10 10)" stroke="url(#a)" fill="#fce94f"/>
<path d="m5 3a2 2 0 1 1 -4 0 2 2 0 1 1 4 0z" stroke="url(#i)" fill="#ad7fa8"/>
</g>
</svg>
