<?xml version="1.0" encoding="UTF-8" standalone="no"?>
<svg xmlns:rdf="http://www.w3.org/1999/02/22-rdf-syntax-ns#" xmlns="http://www.w3.org/2000/svg" height="16px" width="16px" version="1.1" enable-background="new" xmlns:cc="http://creativecommons.org/ns#" xmlns:xlink="http://www.w3.org/1999/xlink" xmlns:dc="http://purl.org/dc/elements/1.1/">
<defs>
<linearGradient id="i" y2="3" gradientUnits="userSpaceOnUse" x2="5.5" y1="3" x1=".5">
<stop stop-color="#204a87" offset="0"/>
<stop stop-color="#204a87" offset="1"/>
</linearGradient>
<linearGradient id="h" y2="3" gradientUnits="userSpaceOnUse" x2="5.5" y1="3" x1=".5">
<stop stop-color="#ce5c00" offset="0"/>
<stop stop-color="#ce5c00" offset="1"/>
</linearGradient>
<linearGradient id="g" y2="3" gradientUnits="userSpaceOnUse" x2="5.5" y1="3" x1=".5">
<stop stop-color="#c4a000" offset="0"/>
<stop stop-color="#c4a000" offset="1"/>
</linearGradient>
<linearGradient id="f" y2="3" gradientUnits="userSpaceOnUse" x2="5.5" y1="3" x1=".5">
<stop stop-color="#5c3566" offset="0"/>
<stop stop-color="#5c3566" offset="1"/>
</linearGradient>
<linearGradient id="e" y2="3" gradientUnits="userSpaceOnUse" x2="5.5" y1="3" x1=".5">
<stop stop-color="#2e3436" offset="0"/>
<stop stop-color="#2e3436" offset="1"/>
</linearGradient>
<linearGradient id="d" y2="3" gradientUnits="userSpaceOnUse" x2="5.5" y1="3" x1=".5">
<stop stop-color="#a40000" offset="0"/>
<stop stop-color="#a40000" offset="1"/>
</linearGradient>
<linearGradient id="c" y2="3" gradientUnits="userSpaceOnUse" x2="5.5" y1="3" x1=".5">
<stop stop-color="#8f5902" offset="0"/>
<stop stop-color="#8f5902" offset="1"/>
</linearGradient>
<linearGradient id="b" y2="3" gradientUnits="userSpaceOnUse" x2="5.5" y1="3" x1=".5">
<stop stop-color="#4e9a06" offset="0"/>
<stop stop-color="#4e9a06" offset="1"/>
</linearGradient>
<linearGradient id="a" y2="8" gradientUnits="userSpaceOnUse" x2="8" x1="6">
<stop stop-color="#92b3e5" offset="0"/>
<stop stop-color="#709cdd" offset="1"/>
</linearGradient>
</defs>
<metadata>
<rdf:RDF>
<cc:Work rdf:about="">
<dc:format>image/svg+xml</dc:format>
<dc:type rdf:resource="http://purl.org/dc/dcmitype/StillImage"/>
<dc:title/>
<cc:license rdf:resource="http://creativecommons.org/publicdomain/zero/1.0/"/>
<dc:creator>
<cc:Agent>
<dc:title>Geert Bergman, geert@www.scrivo.org</dc:title>
</cc:Agent>
</dc:creator>
</cc:Work>
</rdf:RDF>
</metadata>
<g>
<g fill-rule="evenodd" stroke-width="1px">
<path d="m4.5 3a1.5 1.5 0 1 1 -3 0 1.5 1.5 0 1 1 3 0z" transform="translate(11 11)" stroke="url(#i)" fill="#729fcf"/>
<path d="m4.5 3a1.5 1.5 0 1 1 -3 0 1.5 1.5 0 1 1 3 0z" transform="translate(11 7.01)" stroke="url(#h)" fill="#fcaf3e"/>
<path d="m4.5 3a1.5 1.5 0 1 1 -3 0 1.5 1.5 0 1 1 3 0z" transform="translate(-.991 7.01)" stroke="url(#c)" fill="#e9b96e"/>
</g>
<g stroke-width="1px" fill-rule="evenodd">
<path d="m4.5 3a1.5 1.5 0 1 1 -3 0 1.5 1.5 0 1 1 3 0z" transform="translate(3.02 7.01)" stroke="url(#b)" fill="#8ae234"/>
<path d="m4.5 3a1.5 1.5 0 1 1 -3 0 1.5 1.5 0 1 1 3 0z" transform="translate(3.02 11)" stroke="url(#d)" fill="#ef2929"/>
<path d="m4.5 3a1.5 1.5 0 1 1 -3 0 1.5 1.5 0 1 1 3 0z" transform="translate(-.990 11)" stroke="url(#e)" fill="#888a85"/>
<path d="m4.5 3a1.5 1.5 0 1 1 -3 0 1.5 1.5 0 1 1 3 0z" transform="translate(7.01 7.01)" stroke="url(#g)" fill="#fce94f"/>
</g>
<g>
<path d="m4.5 3a1.5 1.5 0 1 1 -3 0 1.5 1.5 0 1 1 3 0z" fill-rule="evenodd" transform="translate(7.01 11)" stroke="url(#f)" stroke-width="1px" fill="#ad7fa8"/>
<rect height="8" width="16" y="0" x="0" fill="url(#a)"/>
<g transform="matrix(1 0 0 .948 -.0321 .681)" stroke="#011532" stroke-width=".302">
<path d="m2.61 4.22c-0.62-0.01-0.8 0.46-0.8 0.78-0.0000013 0.288 0.087 0.512 0.261 0.672s0.415 0.24 0.723 0.24c0.433 6e-7 0.977 0.0766 1.19-0.192 0.16-0.203 0.15-0.533 0.15-0.919 0.0039-0.307 0.00836-0.572 0.00836-0.572-0.518-0.000894-1.05-0.0184-1.54-0.00659m2.28-0.319 0.0156 2.57h-0.791c-0.32 0.07-0.46 0.06-0.71 0.08-0.28 0.01-0.4 0.02-0.77 0.02-0.49 0-0.88-0.14-1.17-0.42-0.29-0.27-0.43-0.64-0.43-1.1 0-0.54 0.13-0.86 0.48-1.14 0.36-0.28 0.52-0.33 1.32-0.31l1.32 0.0469 0.00189-0.471c0-0.28 0-0.62-0.19-0.79-0.36-0.25-1.04-0.24-1.56-0.19-0.3 0.03-0.63 0.12-0.89 0.27l-0.05-0.73c0.475-0.178 0.919-0.228 1.36-0.223 0.438 0.00494 0.853 0.0178 1.16 0.113 0.308 0.0952 0.82 0.279 0.852 0.67 0.095 0.53 0.0419 1.13 0.0631 1.62"/>
<path d="m9.61 4.1c0-0.61-0.08-0.86-0.25-1.18-0.31-0.55-0.8-0.73-1.18-0.73-0.39 0-0.75 0.15-0.95 0.46s-0.22 0.78-0.22 1.39-0.01 1.12 0.19 1.44c0.19 0.31 0.68 0.46 1.06 0.46s0.66-0.14 0.97-0.54c0.22-0.3 0.38-0.68 0.38-1.29m-2.59-2.05c0.4-0.39 0.74-0.54 1.28-0.53 0.54 0 1.16 0.3 1.49 0.75 0.31 0.44 0.61 1 0.61 1.78 0 0.79-0.3 1.43-0.62 1.86-0.35 0.43-0.91 0.64-1.49 0.64-0.84 0-0.94-0.12-1.28-0.13h-0.787v-6.66h0.787l0.011 2.3"/>
<path d="m15 6.16c0.0183 0.425 0.000606-0.123 0.008 0.299-0.7 0.1-1.1 0.09-1.5 0.04-0.8-0.1-1.2-0.38-1.4-0.61-0.4-0.45-0.6-1.06-0.6-1.85-0.000001-0.787 0.208-1.4 0.625-1.85 0.419-0.445 1-0.667 1.74-0.667 0.482 0.0245 0.44 0.0227 1.07 0.169v0.622c-0.455-0.114-0.717-0.132-1.07-0.124-0.357 0.00766-0.873 0.16-1.14 0.479-0.265 0.319-0.398 0.776-0.398 1.37-0.000002 0.59 0.133 1.05 0.398 1.37 0.268 0.319 0.815 0.457 1.14 0.479 0.323 0.0218 0.575 0.0113 1.12-0.141l0.0166 0.416"/>
</g>
</g>
</g>
</svg>
