<?xml version="1.0" encoding="UTF-8" standalone="no"?>
<svg xmlns:rdf="http://www.w3.org/1999/02/22-rdf-syntax-ns#" xmlns="http://www.w3.org/2000/svg" xmlns:osb="http://www.openswatchbook.org/uri/2009/osb" height="16px" width="16px" version="1.1" xmlns:cc="http://creativecommons.org/ns#" xmlns:xlink="http://www.w3.org/1999/xlink" xmlns:dc="http://purl.org/dc/elements/1.1/">
<defs>
<linearGradient id="d" y2="10.5" gradientUnits="userSpaceOnUse" x2="2.51" gradientTransform="matrix(-1 0 0 1 4.01 -5)" y1="16.5" x1="2.01">
<stop stop-color="#4e9a06" offset="0"/>
<stop stop-color="#c8f39d" offset="1"/>
</linearGradient>
<linearGradient id="c" y2="10" gradientUnits="userSpaceOnUse" x2="3.01" gradientTransform="matrix(-1 0 0 1 4.01 -5)" y1="17" x1="2.51">
<stop stop-color="#316004" offset="0"/>
<stop stop-color="#52a108" offset="1"/>
</linearGradient>
<linearGradient id="b" y2="10" gradientUnits="userSpaceOnUse" x2="9" gradientTransform="matrix(.999 0 0 1.02 -2.01 4.81)" y1="-2.76" x1="7.51">
<stop stop-color="#929a9f" offset="0"/>
<stop stop-color="#67747b" offset="1"/>
</linearGradient>
<linearGradient id="a" y2="11" gradientUnits="userSpaceOnUse" x2="9" gradientTransform="matrix(.999 0 0 1.02 -2.01 4.81)" y1="-3.74" x1="7.51">
<stop stop-color="#3a3c39" offset="0"/>
<stop stop-color="#1c1f21" offset="1"/>
</linearGradient>
</defs>
<metadata>
<rdf:RDF>
<cc:Work rdf:about="">
<dc:format>image/svg+xml</dc:format>
<dc:type rdf:resource="http://purl.org/dc/dcmitype/StillImage"/>
<dc:title/>
<cc:license rdf:resource="http://creativecommons.org/publicdomain/zero/1.0/"/>
<dc:creator>
<cc:Agent>
<dc:title>Geert Bergman, geert@www.scrivo.org</dc:title>
</cc:Agent>
</dc:creator>
</cc:Work>
</rdf:RDF>
</metadata>
<g>
<path stroke-linejoin="round" d="m3.51 8.5-3-3c-0.01 2-0.01 4 0.003 6z" stroke="url(#c)" stroke-width="1px" fill="url(#d)"/>
<path d="m12 13.5h-11c-0.277 0-0.5 0.227-0.5 0.51v0.984c0 0.283 0.223 0.51 0.5 0.51h11c0.277 0 0.5-0.227 0.5-0.51v-0.984c0-0.283-0.223-0.51-0.5-0.51zm1.17-3.99h-7.33c-0.185 0-0.333 0.226-0.333 0.506v0.976c0 0.28 0.149 0.506 0.333 0.506h7.33c0.185 0 0.333-0.226 0.333-0.506v-0.976c0-0.28-0.149-0.506-0.333-0.506zm1.98-4.02h-9.28c-0.198 0-0.357 0.227-0.357 0.51v0.989c0 0.282 0.159 0.51 0.357 0.51h9.28c0.198 0 0.357-0.227 0.357-0.51v-0.989c0-0.282-0.159-0.51-0.357-0.51zm-3.4-3.99h-10.5c-0.416 0-0.751 0.223-0.751 0.5v1.02c0 0.277 0.335 0.5 0.751 0.5h10.5c0.416 0 0.751-0.223 0.751-0.5v-1.02c0-0.277-0.335-0.5-0.751-0.5z" stroke="url(#a)" fill="url(#b)"/>
</g>
</svg>
