<?xml version="1.0" encoding="UTF-8" standalone="no"?>
<svg xmlns:rdf="http://www.w3.org/1999/02/22-rdf-syntax-ns#" xmlns="http://www.w3.org/2000/svg" xmlns:osb="http://www.openswatchbook.org/uri/2009/osb" height="16px" width="16px" version="1.1" enable-background="new" xmlns:cc="http://creativecommons.org/ns#" xmlns:xlink="http://www.w3.org/1999/xlink" xmlns:dc="http://purl.org/dc/elements/1.1/">
<defs>
<linearGradient id="d">
<stop stop-color="#3d7804" offset="0"/>
<stop stop-color="#52a108" offset="1"/>
</linearGradient>
<linearGradient id="c">
<stop stop-color="#3a3c39" offset="0"/>
<stop stop-color="#1c1f21" offset="1"/>
</linearGradient>
<linearGradient id="b" y2="14.5" xlink:href="#c" gradientUnits="userSpaceOnUse" x2="11.5" gradientTransform="translate(.0221 .994)" y1="1" x1="10"/>
<linearGradient id="a" y2=".466" xlink:href="#d" gradientUnits="userSpaceOnUse" x2="2.45" y1="15.5" x1="3.11"/>
</defs>
<metadata>
<rdf:RDF>
<cc:Work rdf:about="">
<dc:format>image/svg+xml</dc:format>
<dc:type rdf:resource="http://purl.org/dc/dcmitype/StillImage"/>
<dc:title/>
<cc:license rdf:resource="http://creativecommons.org/publicdomain/zero/1.0/"/>
<dc:creator>
<cc:Agent>
<dc:title>Geert Bergman, geert@www.scrivo.org</dc:title>
</cc:Agent>
</dc:creator>
</cc:Work>
</rdf:RDF>
</metadata>
<g>
<path d="m15.1 2.49h-8.11c-0.591 0.00391-0.598 1 0 1h8.11c0.595 0.00391 0.626-0.996 0-1zm-0.976 7.01h-7.19c-0.524 0.0039-0.53 1 0 1h7.19c0.527 0.0039 0.555-0.996 0-1zm0.936 2.98h-8.09c-0.59 0.0039-0.597 1 0 1h8.09c0.593 0.0039 0.625-0.996 0-1zm-1.89-6.99h-6.28c-0.458 0.00391-0.463 1 0 1h6.28c0.46 0.00391 0.485-0.996 0-1z" stroke="url(#b)" fill="url(#b)"/>
<g stroke-linejoin="round" font-size="7px" stroke-width=".5" stroke="url(#a)" font-weight="bold" fill="url(#a)">
<text style="word-spacing:0px;letter-spacing:0px" font-family="Arial" line-height="125%" y="6.9558058" x="1.2816311" xml:space="preserve"><tspan stroke="url(#a)" y="6.9558058" x="1.2816311" fill="url(#a)">1</tspan></text>
<text style="word-spacing:0px;letter-spacing:0px" line-height="125%" font-family="Sans" y="13.947572" x="0.61871845" xml:space="preserve"><tspan stroke="url(#a)" y="13.947572" x="0.61871845" fill="url(#a)">2</tspan></text>
</g>
</g>
</svg>
