<?xml version="1.0" encoding="UTF-8" standalone="no"?>
<svg xmlns:rdf="http://www.w3.org/1999/02/22-rdf-syntax-ns#" xmlns="http://www.w3.org/2000/svg" height="16px" width="16px" version="1.1" enable-background="new" xmlns:cc="http://creativecommons.org/ns#" xmlns:xlink="http://www.w3.org/1999/xlink" xmlns:dc="http://purl.org/dc/elements/1.1/">
<defs>
<linearGradient id="m" x1="8.92" gradientUnits="userSpaceOnUse" x2="6.98" gradientTransform="matrix(.786 0 0 .735 1.33 2.1)" y1="16.2" y2=".0262">
<stop stop-color="#c00" offset="0"/>
<stop stop-color="#dd1414" offset="1"/>
</linearGradient>
<linearGradient id="n" x1="8.92" gradientUnits="userSpaceOnUse" y1="16.2" gradientTransform="matrix(.786 0 0 .735 1.33 2.1)" x2="6.98" y2=".0262">
<stop stop-color="#dd1414" offset="0"/>
<stop stop-color="#f47070" offset="1"/>
</linearGradient>
<linearGradient id="g" y2=".0262" gradientUnits="userSpaceOnUse" y1="16.2" gradientTransform="matrix(.786 0 0 .735 1.33 2.1)" x2="6.98" x1="8.92">
<stop stop-color="#5f0000" offset="0"/>
<stop stop-color="#b00000" offset="1"/>
</linearGradient>
<linearGradient id="j" x1="4.5" xlink:href="#linearGradient20875-0" gradientUnits="userSpaceOnUse" y1="7.5" gradientTransform="matrix(.756 0 0 .756 2.12 2.1)" x2="16" y2="2"/>
<linearGradient id="i" x1="14" xlink:href="#linearGradient20875-0" gradientUnits="userSpaceOnUse" gradientTransform="matrix(.756 0 0 .756 2.12 2.1)" x2="3" y2="11"/>
<linearGradient id="d" x1="14.5" xlink:href="#linearGradient20624-8" gradientUnits="userSpaceOnUse" y1="11.3" gradientTransform="matrix(.756 0 0 .756 2.12 1.73)" x2="15.5" y2="11.3"/>
<linearGradient id="e" x1="14.5" xlink:href="#linearGradient20883-8" gradientUnits="userSpaceOnUse" y1="11.3" gradientTransform="matrix(.756 0 0 .756 2.12 1.73)" x2="15.5" y2="11.3"/>
<linearGradient id="h" x1="6" xlink:href="#linearGradient20883-8" gradientUnits="userSpaceOnUse" gradientTransform="matrix(.756 0 0 .756 2.12 2.1)" x2="8" y2="16"/>
<linearGradient id="l" x1="4.5" xlink:href="#c" gradientUnits="userSpaceOnUse" y1="7.5" gradientTransform="matrix(.756 0 0 .756 2.12 2.1)" x2="16" y2="2"/>
<linearGradient id="c">
<stop stop-color="#729fcf" offset="0"/>
<stop stop-color="#3262a1" offset="1"/>
</linearGradient>
<linearGradient id="k" x1="14" xlink:href="#c" gradientUnits="userSpaceOnUse" gradientTransform="matrix(.756 0 0 .756 2.12 2.1)" x2="3" y2="11"/>
<linearGradient id="f" y2="16" gradientUnits="userSpaceOnUse" gradientTransform="matrix(.756 0 0 .756 2.12 2.1)" x2="8" x1="6">
<stop stop-color="#204a87" offset="0"/>
<stop stop-color="#132c50" offset="1"/>
</linearGradient>
</defs>
<metadata>
<rdf:RDF>
<cc:Work rdf:about="">
<dc:format>image/svg+xml</dc:format>
<dc:type rdf:resource="http://purl.org/dc/dcmitype/StillImage"/>
<dc:title/>
<cc:license rdf:resource="http://creativecommons.org/publicdomain/zero/1.0/"/>
<dc:creator>
<cc:Agent>
<dc:title>Geert Bergman, geert@www.scrivo.org</dc:title>
</cc:Agent>
</dc:creator>
</cc:Work>
</rdf:RDF>
</metadata>
<g transform="translate(2.06 .05)">
<path stroke-linejoin="round" d="m13.1 8.16v1.89l-5.3 3.03v-1.89z" stroke="#babdb6" stroke-width="1px" fill="#eeeeec"/>
<path fill="url(#j)" d="m2.88 5.12 5.29 5.28 5.33-3.17-5.18-4.78z"/>
<path fill="url(#i)" d="m2.5 8.53 4.54 4.54h0.76v-2.3l-5.3-5.3z"/>
<g stroke-width="1px">
<path fill="#729fcf" stroke="#e0eaf4" d="m2.64 5.26 5.44 5.44"/>
<path d="m13.5 10.4v-0.4" stroke="url(#e)" stroke-linecap="round" fill="url(#d)"/>
<path fill="#888a85" stroke="#888a85" d="m13.1 7.78v2.65"/>
</g>
<path stroke-linejoin="round" d="m7.8 13.5h0.378l5.3-3.03m-11-5 0.38-0.38 5.29-2.64h0.378c0.709 0.569 2.46 2.27 4.92 4.54v0.378l-5.26 3-0.414 0.366v2.68c-4.62-4.65-0.79-0.7-5.19-5.24l-0.14-0.38z" stroke="url(#h)" stroke-linecap="round" stroke-width="1px" fill="none"/>
<path stroke-linejoin="round" d="m13.1 8.16v1.89l-5.3 3.03v-1.89z" stroke="#babdb6" stroke-width="1px" fill="#eeeeec"/>
<path fill="url(#l)" d="m2.88 5.12 5.29 5.28 5.33-3.17-5.18-4.78z"/>
<path fill="url(#k)" d="m2.5 8.53 4.54 4.54h0.76v-2.3l-5.3-5.3z"/>
<g stroke-width="1px">
<path fill="#729fcf" stroke="#e0eaf4" d="m2.64 5.26 5.44 5.44"/>
<path d="m13.5 10.4v-0.4" stroke="url(#e)" stroke-linecap="round" fill="url(#d)"/>
<path fill="#888a85" stroke="#888a85" d="m13.1 7.78v2.65"/>
</g>
<path stroke-linejoin="round" d="m7.8 13.5h0.378l5.3-3.03m-11-5 0.38-0.38 5.29-2.64h0.378c0.709 0.569 2.46 2.27 4.92 4.54v0.378l-5.26 3-0.414 0.366v2.68c-4.62-4.65-0.79-0.7-5.19-5.24l-0.14-0.38z" stroke="url(#f)" stroke-linecap="round" stroke-width="1px" fill="none"/>
</g>
<g stroke-linejoin="round" stroke-width="1px" transform="translate(-2 .00714)">
<path fill="url(#m)" stroke="url(#n)" d="m4.04 8.32-0.86 0.7c-0.36 0.46-0.16 0.56 0.34 0.98l3.48 2.7c0.62 0.5 0.7 0.3 1-0.2l4.9-8.45-0.9-0.81c-0.67-0.576-0.663-0.132-0.844 0.138 0 0-3.07 5.29-3.22 5.51-0.43 0.63-1.42 0.93-1.95 0.38l-0.96-0.86c-0.64-0.46-0.4-0.37-0.99-0.09z"/>
<path fill="none" stroke="url(#g)" d="m3.68 7.98-0.97 0.86c-0.16 0.19-0.21 0.37-0.21 0.61 0.0027 0.24 0.211 0.504 0.334 0.603l3.97 3.12s0.358 0.335 0.8 0.315c0.442-0.0203 0.57-0.34 0.57-0.34l5.33-9.26-1.3-1.17c-0.3-0.22-0.4-0.31-0.7-0.3-0.267 0.0113-0.517 0.199-0.605 0.373 0 0-3.25 5.61-3.4 5.83-0.33 0.477-0.923 0.558-1.28 0.22l-0.97-0.91s-0.393-0.368-0.786-0.368-0.786 0.368-0.786 0.368z"/>
</g>
</svg>
