<?xml version="1.0" encoding="UTF-8" standalone="no"?>
<svg xmlns:rdf="http://www.w3.org/1999/02/22-rdf-syntax-ns#" xmlns="http://www.w3.org/2000/svg" height="16px" width="16px" version="1.1" enable-background="new" xmlns:cc="http://creativecommons.org/ns#" xmlns:xlink="http://www.w3.org/1999/xlink" xmlns:dc="http://purl.org/dc/elements/1.1/">
<defs>
<linearGradient id="f" x1="8.92" gradientUnits="userSpaceOnUse" x2="6.98" gradientTransform="matrix(.786 0 0 .735 1.33 2.1)" y1="16.2" y2=".0262">
<stop stop-color="#c00" offset="0"/>
<stop stop-color="#dd1414" offset="1"/>
</linearGradient>
<linearGradient id="g" x1="8.92" gradientUnits="userSpaceOnUse" y1="16.2" gradientTransform="matrix(.786 0 0 .735 1.33 2.1)" x2="6.98" y2=".0262">
<stop stop-color="#dd1414" offset="0"/>
<stop stop-color="#f47070" offset="1"/>
</linearGradient>
<linearGradient id="e" y2=".0262" gradientUnits="userSpaceOnUse" y1="16.2" gradientTransform="matrix(.786 0 0 .735 1.33 2.1)" x2="6.98" x1="8.92">
<stop stop-color="#5f0000" offset="0"/>
<stop stop-color="#b00000" offset="1"/>
</linearGradient>
<linearGradient id="b" y2="2" xlink:href="#a" gradientUnits="userSpaceOnUse" x2="16" gradientTransform="matrix(.756 0 0 .756 2.06 2.05)" y1="7.5" x1="4.5"/>
<linearGradient id="a">
<stop stop-color="#729fcf" offset="0"/>
<stop stop-color="#3162a2" offset="1"/>
</linearGradient>
<linearGradient id="c" y2="11" xlink:href="#a" gradientUnits="userSpaceOnUse" x2="3" gradientTransform="matrix(.756 0 0 .756 2.06 2.05)" x1="14"/>
<linearGradient id="d" y2="16" gradientUnits="userSpaceOnUse" x2="8" gradientTransform="matrix(.756 0 0 .756 2.06 2.05)" x1="6">
<stop stop-color="#204a87" offset="0"/>
<stop stop-color="#132c50" offset="1"/>
</linearGradient>
</defs>
<metadata>
<rdf:RDF>
<cc:Work rdf:about="">
<dc:format>image/svg+xml</dc:format>
<dc:type rdf:resource="http://purl.org/dc/dcmitype/StillImage"/>
<dc:title/>
<cc:license rdf:resource="http://creativecommons.org/publicdomain/zero/1.0/"/>
<dc:creator>
<cc:Agent>
<dc:title>Geert Bergman, geert@www.scrivo.org</dc:title>
</cc:Agent>
</dc:creator>
</cc:Work>
</rdf:RDF>
</metadata>
<g transform="translate(2.06 .05)">
<g>
<path stroke-linejoin="round" d="m13 8.11v1.89l-5.3 3.03v-1.89z" stroke="#babdb6" stroke-width="1px" fill="#eeeeec"/>
<path d="m2.82 5.07 5.3 5.33 5.38-3.22-5.24-4.78z" fill="url(#b)"/>
<path d="m2.44 8.48 4.54 4.54h0.756v-2.27l-5.3-5.25z" fill="url(#c)"/>
</g>
<g stroke-width="1px">
<path d="m2.58 5.21 5.44 5.39" stroke="#c8daeb" fill="none"/>
<path d="m13 7.73v2.65" stroke="#888a85" fill="#888a85"/>
<path stroke-linejoin="round" d="m7.74 13.4h0.378l5.3-3.03m-11-4.95 0.38-0.38 5.3-2.64h0.378c0.709 0.569 2.46 2.27 4.92 4.54v0.378l-5.26 3-0.414 0.366v2.68c-4.58-4.7-0.75-0.8-5.15-5.29l-0.14-0.38z" stroke="url(#d)" stroke-linecap="round" fill="none"/>
</g>
</g>
<g stroke-linejoin="round" stroke-width="1px" transform="translate(-2 .00714)">
<path fill="url(#f)" stroke="url(#g)" d="m4.04 8.32-0.86 0.7c-0.36 0.46-0.16 0.56 0.34 0.98l3.48 2.7c0.62 0.5 0.7 0.3 1-0.2l4.9-8.45-0.9-0.81c-0.67-0.576-0.663-0.132-0.844 0.138 0 0-3.07 5.29-3.22 5.51-0.43 0.63-1.42 0.93-1.95 0.38l-0.96-0.86c-0.64-0.46-0.4-0.37-0.99-0.09z"/>
<path fill="none" stroke="url(#e)" d="m3.68 7.98-0.97 0.86c-0.16 0.19-0.21 0.37-0.21 0.61 0.0027 0.24 0.211 0.504 0.334 0.603l3.97 3.12s0.358 0.335 0.8 0.315c0.442-0.0203 0.57-0.34 0.57-0.34l5.33-9.26-1.3-1.17c-0.3-0.22-0.4-0.31-0.7-0.3-0.267 0.0113-0.517 0.199-0.605 0.373 0 0-3.25 5.61-3.4 5.83-0.33 0.477-0.923 0.558-1.28 0.22l-0.97-0.91s-0.393-0.368-0.786-0.368-0.786 0.368-0.786 0.368z"/>
</g>
</svg>
