<?xml version="1.0" encoding="UTF-8" standalone="no"?>
<svg xmlns:rdf="http://www.w3.org/1999/02/22-rdf-syntax-ns#" xmlns="http://www.w3.org/2000/svg" xmlns:osb="http://www.openswatchbook.org/uri/2009/osb" height="16px" width="16px" version="1.1" xmlns:cc="http://creativecommons.org/ns#" xmlns:xlink="http://www.w3.org/1999/xlink" xmlns:dc="http://purl.org/dc/elements/1.1/">
<defs>
<linearGradient id="d" y2="10" gradientUnits="userSpaceOnUse" x2="7" y1="17" x1="8">
<stop stop-color="#2e5c04" offset="0"/>
<stop stop-color="#5da616" offset="1"/>
</linearGradient>
<linearGradient id="c" y2="10.5" gradientUnits="userSpaceOnUse" x2="6.5" y1="16.5" x1="7.5">
<stop stop-color="#4d9806" offset="0"/>
<stop stop-color="#73d216" offset=".680"/>
<stop stop-color="#c8f29f" offset="1"/>
</linearGradient>
<linearGradient id="b" y2="11" gradientUnits="userSpaceOnUse" x2="8.5" x1="7">
<stop stop-color="#3a3c39" offset="0"/>
<stop stop-color="#1c1f21" offset="1"/>
</linearGradient>
<linearGradient id="a" y2="10.5" gradientUnits="userSpaceOnUse" x2="8.5" y1=".5" x1="7">
<stop stop-color="#929a9f" offset="0"/>
<stop stop-color="#67747b" offset="1"/>
</linearGradient>
</defs>
<metadata>
<rdf:RDF>
<cc:Work rdf:about="">
<dc:format>image/svg+xml</dc:format>
<dc:type rdf:resource="http://purl.org/dc/dcmitype/StillImage"/>
<dc:title/>
<cc:license rdf:resource="http://creativecommons.org/publicdomain/zero/1.0/"/>
<dc:creator>
<cc:Agent>
<dc:title>Geert Bergman, geert@www.scrivo.org</dc:title>
</cc:Agent>
</dc:creator>
</cc:Work>
</rdf:RDF>
</metadata>
<g>
<path stroke-linejoin="round" d="m0.5 13.5 3-3v2h10v2h-10v2z" stroke="url(#d)" stroke-width="1px" fill="url(#c)"/>
<g stroke="url(#b)" fill="url(#a)">
<path d="m2.03 0.492h6.99c0.277 0 0.5 0.223 0.5 0.5v1.02c0 0.277-0.223 0.5-0.5 0.5h-6.99c-0.277 0-0.5-0.223-0.5-0.5v-1.02c0-0.277 0.223-0.5 0.5-0.5z" stroke-width="1.07"/>
<path d="m2.02 4.52h13c0.277 0 0.5 0.223 0.5 0.5v0.97c0 0.277-0.223 0.5-0.5 0.5h-13c-0.277 0-0.5-0.223-0.5-0.5v-0.97c0-0.277 0.223-0.5 0.5-0.5z" stroke-width="1.03"/>
<path d="m2.02 8.52h11c0.277 0 0.5 0.223 0.5 0.5v0.965c0 0.277-0.223 0.5-0.5 0.5h-11c-0.277 0-0.5-0.223-0.5-0.5v-0.965c0-0.277 0.223-0.5 0.5-0.5z" stroke-width="1.04"/>
</g>
</g>
</svg>
