<?xml version="1.0" encoding="UTF-8" standalone="no"?>
<svg xmlns:rdf="http://www.w3.org/1999/02/22-rdf-syntax-ns#" xmlns="http://www.w3.org/2000/svg" height="16px" width="16px" version="1.1" enable-background="new" xmlns:cc="http://creativecommons.org/ns#" xmlns:xlink="http://www.w3.org/1999/xlink" xmlns:dc="http://purl.org/dc/elements/1.1/">
<defs>
<radialGradient id="b" gradientUnits="userSpaceOnUse" cy="21.6" cx="-93.7" gradientTransform="matrix(-.0443 .0697 -.0757 -.0480 4.48 10.6)" r="78.9">
<stop stop-color="#fff" offset="0"/>
<stop stop-color="#fff" offset=".25"/>
<stop stop-color="#9ae650" offset=".5"/>
<stop stop-color="#63c308" offset="1"/>
</radialGradient>
<linearGradient id="c" y2="100" gradientUnits="userSpaceOnUse" x2="-12" y1="-60" x1="-56">
<stop stop-color="#2e68c0" offset="0"/>
<stop stop-color="#2d67be" offset="1"/>
</linearGradient>
<radialGradient id="a" gradientUnits="userSpaceOnUse" cy="-34.2" cx="-41.5" gradientTransform="matrix(-.301 1.04 -.694 -.202 -72 3.25)" r="86">
<stop stop-color="#fff" stop-opacity=".895" offset="0"/>
<stop stop-color="#e3e6ea" stop-opacity=".438" offset=".5"/>
<stop stop-color="#132c51" stop-opacity=".192" offset="1"/>
</radialGradient>
</defs>
<metadata>
<rdf:RDF>
<cc:Work rdf:about="">
<dc:format>image/svg+xml</dc:format>
<dc:type rdf:resource="http://purl.org/dc/dcmitype/StillImage"/>
<dc:title/>
<cc:license rdf:resource="http://creativecommons.org/publicdomain/zero/1.0/"/>
<dc:creator>
<cc:Agent>
<dc:title>Geert Bergman, geert@www.scrivo.org</dc:title>
</cc:Agent>
</dc:creator>
</cc:Work>
</rdf:RDF>
</metadata>
<g>
<g>
<path d="m60 18a86 86 0 1 1 -172 0 86 86 0 1 1 172 0z" fill-rule="evenodd" transform="matrix(.0930 0 0 .0930 10.4 6.33)" fill="url(#c)"/>
<path d="m60 18a86 86 0 1 1 -172 0 86 86 0 1 1 172 0z" fill-rule="evenodd" transform="matrix(.0926 0 0 .0932 10.4 6.35)" fill="url(#a)"/>
<path style="block-progression:tb;text-indent:0;color:#000000;enable-background:accumulate;text-transform:none" d="m5.47 3.46c0.72 0.3 1.55 0.8 2.33 0.46 0.96-0.23 0.8-1.35 0.04-1.71-0.57-0.83-1.61-0.7-2.29-0.09-0.54 0.32-0.54 0.94-0.08 1.34zm5.03 10.8c-0.518-0.312-1.24 0.612-0.343 0.483 0.32 0.0693 1.5-0.0537 0.873-0.442h-0.5zm1.22-0.406c-0.405 0.804 1.07 0.0887 0.131-0.0021l-0.104-0.0101-0.0271 0.0122zm-7.7-12.1c-0.36 0.92-1.62 0.25-1.82 1.3-0.34 0.58-1.04 1.18-0.3 1.8 0.35 0.49 0.56 0.85 1.14 0.97 0.5 0.49 0.01 1.33 0.75 1.59 0.27 0.55 0.71 1.09 1.31 1.05 0.37 0.68 1.68 0.24 1.1-0.5-0.33-0.26-1.58 0.09-1.19-0.63 0.58-0.11 1.64 0.37 1.78-0.39 0.06-0.75 0.55-1.34 0.93-1.89-0.08-0.66-0.94-0.9-1.21-0.31-0.32-0.28-0.63-0.67-1.03-0.69-0.42-0.52-2.07-0.81-1.28-1.67 0.26-0.26 0.27-0.62-0.18-0.63zm-3.06 6.12c-0.471 0.559 0.819 0.451 0.219 0-0.0627-0.0386-0.159-0.0556-0.219 0zm10.1-6.96c-0.9-0.154-1.3 0.66-1.85 1.08-0.55 0.46-0.82 1.8 0.07 2 0.68-0.16 1.28-0.45 1.98-0.56 0.2-0.7 0.1-1.53 0.1-2.28 0-0.257-0.1-0.269-0.3-0.24zm0.469 2.44c-1 0.222 0.718 0.978 0.204 0.0543l-0.2-0.04-0.1-0.01zm-4.12-3.13c-0.55 0.578-0.1 1.51 0.71 1.22 0.45 0.12 1.62-0.16 0.84-0.689-0.56-0.011-1.22 0.02-1.55-0.529zm-0.85 0.594c-1.09 0.234 0.8 1.03 0.25 0.065l-0.12-0.051-0.13-0.014zm7.07 2.53c-0.914 0.0218-0.679 1.43-1.4 1.41-0.648 0.119-0.265 0.747-0.11 1-0.134 0.843-0.328 1.71-0.916 2.35-0.0314 0.602 0.564 1.11 0.582 1.67 0.624 0.139 1.51 0.0146 1.49 0.927 0.575 0.64 1.83 0.218 1.7-0.721 0.4-0.63 0.8-1.38 0.9-2.15 0-1.08 0.1-2.26-0.5-3.21-0.2-0.75-0.9-1.67-1.7-1.3zm-6.5 4.66c-0.809 0.372-0.251 1.61-0.954 2.09 0.12 0.653 0.933 1.07 0.54 1.82 0.129 0.595-0.299 1.81 0.477 1.95 0.48-0.4 0.38-1.5 1.09-1.6 0.69-0.2 0.99-1.2 1.5-1.7 0.25-0.6-0.19-1.03-0.74-1.02-0.2-0.58-0.45-1.15-1.18-1.01-0.3-0.12-0.49-0.41-0.77-0.58z" fill="url(#b)"/>
</g>
<path opacity=".293" d="m15.7 8.02a7.59 7.54 0 1 1 -15.2 0 7.59 7.54 0 1 1 15.2 0z" transform="matrix(.989 0 0 .996 .00417 .0128)" stroke="#000" fill="none"/>
</g>
</svg>
