<?xml version="1.0" encoding="UTF-8" standalone="no"?>
<svg xmlns:rdf="http://www.w3.org/1999/02/22-rdf-syntax-ns#" xmlns="http://www.w3.org/2000/svg" height="16px" width="16px" version="1.1" enable-background="new" xmlns:cc="http://creativecommons.org/ns#" xmlns:xlink="http://www.w3.org/1999/xlink" xmlns:dc="http://purl.org/dc/elements/1.1/">
<defs>
<radialGradient id="b" gradientUnits="userSpaceOnUse" cy="21.6" cx="-93.7" gradientTransform="matrix(-.0305 .0478 -.0520 -.0329 5.58 9.74)" r="78.9">
<stop stop-color="#fff" offset="0"/>
<stop stop-color="#fff" offset=".25"/>
<stop stop-color="#9ae650" offset=".5"/>
<stop stop-color="#63c308" offset="1"/>
</radialGradient>
<linearGradient id="c" y2="100" gradientUnits="userSpaceOnUse" x2="-12" y1="-60" x1="-56">
<stop stop-color="#2e68c0" offset="0"/>
<stop stop-color="#2d67be" offset="1"/>
</linearGradient>
<radialGradient id="a" gradientUnits="userSpaceOnUse" cy="-34.2" cx="-41.5" gradientTransform="matrix(-.301 1.04 -.694 -.202 -72 3.25)" r="86">
<stop stop-color="#fff" stop-opacity=".895" offset="0"/>
<stop stop-color="#e3e6ea" stop-opacity=".438" offset=".5"/>
<stop stop-color="#132c51" stop-opacity=".192" offset="1"/>
</radialGradient>
</defs>
<metadata>
<rdf:RDF>
<cc:Work rdf:about="">
<dc:format>image/svg+xml</dc:format>
<dc:type rdf:resource="http://purl.org/dc/dcmitype/StillImage"/>
<dc:title/>
<cc:license rdf:resource="http://creativecommons.org/publicdomain/zero/1.0/"/>
<dc:creator>
<cc:Agent>
<dc:title>Geert Bergman, geert@www.scrivo.org</dc:title>
</cc:Agent>
</dc:creator>
</cc:Work>
</rdf:RDF>
</metadata>
<g>
<g>
<path d="m60 18a86 86 0 1 1 -172 0 86 86 0 1 1 172 0z" fill-rule="evenodd" transform="matrix(.0640 0 0 .0638 9.66 6.84)" fill="url(#c)"/>
<path d="m60 18a86 86 0 1 1 -172 0 86 86 0 1 1 172 0z" fill-rule="evenodd" transform="matrix(.0636 0 0 .0639 9.67 6.86)" fill="url(#a)"/>
<path style="block-progression:tb;text-indent:0;color:#000000;enable-background:accumulate;text-transform:none" d="m6.26 4.87c0.49 0.21 1.07 0.55 1.61 0.32 0.65-0.16 0.55-0.93 0.02-1.17-0.39-0.57-1.11-0.48-1.58-0.06-0.37 0.22-0.36 0.64-0.05 0.91zm3.46 7.43c-0.36-0.2-0.85 0.4-0.24 0.3 0.22 0.1 1.02 0 0.62-0.3h-0.38zm0.88-0.3c-0.279 0.551 0.738 0.0608 0.0902-0.0014l-0.0716-0.0069-0.0186 0.0084zm-5.35-8.24c-0.25 0.63-1.12 0.17-1.25 0.89-0.23 0.4-0.71 0.81-0.2 1.24 0.23 0.33 0.38 0.58 0.77 0.66 0.35 0.34 0.02 0.91 0.52 1.09 0.18 0.38 0.49 0.75 0.9 0.72 0.26 0.46 1.16 0.17 0.76-0.34-0.23-0.18-1.09 0.06-0.82-0.43 0.4-0.08 1.13 0.25 1.22-0.27 0.04-0.52 0.38-0.92 0.64-1.3-0.05-0.45-0.64-0.61-0.83-0.21-0.22-0.19-0.43-0.46-0.7-0.47-0.29-0.36-1.43-0.56-0.89-1.15 0.18-0.17 0.19-0.42-0.12-0.43zm-2.11 4.2c-0.324 0.383 0.563 0.309 0.15 0-0.0431-0.0264-0.11-0.0381-0.15 0zm6.86-4.77c-0.53-0.11-0.83 0.45-1.21 0.74-0.37 0.31-0.56 1.23 0.05 1.36 0.47-0.1 0.9-0.3 1.36-0.38 0.2-0.48 0.1-1.05 0-1.56 0.1-0.18 0-0.18-0.2-0.16zm0.322 1.67c-0.689 0.152 0.494 0.67 0.14 0.0372l-0.0671-0.0299-0.0729-0.0073zm-2.73-2.14c-0.37 0.39-0.06 1.03 0.49 0.83 0.31 0.08 1.12-0.11 0.58-0.47-0.39-0.01-0.84 0.01-1.07-0.36zm-0.58 0.4c-0.75 0.161 0.546 0.707 0.172 0.0443l-0.08-0.03-0.09-0.01zm4.83 1.73c-0.628 0.015-0.467 0.977-0.964 0.965-0.445 0.0817-0.182 0.512-0.0753 0.688-0.0923 0.578-0.226 1.18-0.629 1.61-0.0216 0.413 0.388 0.758 0.4 1.14 0.429 0.0952 1.04 0.00998 1.02 0.636 0.395 0.439 1.26 0.149 1.17-0.494 0.3-0.41 0.6-0.92 0.7-1.45 0-0.74 0-1.55-0.4-2.2-0.1-0.51-0.6-1.15-1.2-0.89zm-4.44 3.2c-0.56 0.25-0.18 1.1-0.66 1.43 0.08 0.45 0.64 0.72 0.37 1.22 0.09 0.4-0.2 1.3 0.33 1.4 0.35-0.3 0.29-1 0.77-1.1 0.48-0.2 0.68-0.8 1.03-1.15 0.2-0.41-0.13-0.72-0.51-0.72-0.13-0.39-0.31-0.78-0.8-0.68-0.21-0.09-0.34-0.29-0.53-0.4z" fill="url(#b)"/>
</g>
<path opacity=".293" d="m15.7 8.02a7.59 7.54 0 1 1 -15.2 0 7.59 7.54 0 1 1 15.2 0z" transform="matrix(.659 0 0 .664 2.67 2.67)" stroke="#000" stroke-width="1.51" fill="none"/>
</g>
</svg>
