<?xml version="1.0" encoding="UTF-8" standalone="no"?>
<svg xmlns:rdf="http://www.w3.org/1999/02/22-rdf-syntax-ns#" xmlns="http://www.w3.org/2000/svg" xmlns:osb="http://www.openswatchbook.org/uri/2009/osb" height="16px" width="16px" version="1.1" enable-background="new" xmlns:cc="http://creativecommons.org/ns#" xmlns:xlink="http://www.w3.org/1999/xlink" xmlns:dc="http://purl.org/dc/elements/1.1/">
<defs>
<linearGradient id="a">
<stop stop-color="#959793" offset="0"/>
<stop stop-color="#797d76" offset="1"/>
</linearGradient>
<linearGradient id="j" y2="2.05" gradientUnits="userSpaceOnUse" y1="3.5" gradientTransform="matrix(1 0 0 1.03 .992 -.0610)" x2="12" x1="10.5">
<stop stop-color="#e8ecf1" offset="0"/>
<stop stop-color="#b8c2cd" offset="1"/>
</linearGradient>
<linearGradient id="i" y2="14" gradientUnits="userSpaceOnUse" y1="2" gradientTransform="translate(1 .0137)" x2="8" x1="6">
<stop stop-color="#e8ecf1" offset="0"/>
<stop stop-color="#b8c2cd" offset="1"/>
</linearGradient>
<linearGradient id="h" y2="15" gradientUnits="userSpaceOnUse" y1="1" gradientTransform="translate(1 .0137)" x2="8" x1="6">
<stop stop-color="#fdfeff" offset="0"/>
<stop stop-color="#d7d8e1" offset="1"/>
</linearGradient>
<linearGradient id="g" y2="16" xlink:href="#a" gradientUnits="userSpaceOnUse" x2="8" gradientTransform="translate(1)" x1="6"/>
<linearGradient id="f" y2="4" xlink:href="#a" gradientUnits="userSpaceOnUse" x2="10.5" gradientTransform="translate(1)" y1="2.5" x1="11.5"/>
<linearGradient id="e" y2="13.5" gradientUnits="userSpaceOnUse" x2="6" y1="5.5" x1="4.5">
<stop stop-color="#485154" offset="0"/>
<stop stop-color="#2e3436" offset="1"/>
</linearGradient>
<linearGradient id="d" y2="13" gradientUnits="userSpaceOnUse" x2="6" y1="6" x1="4.5">
<stop stop-color="#8d8f8b" offset="0"/>
<stop stop-color="#5e615c" offset="1"/>
</linearGradient>
<linearGradient id="c" y2="13.5" gradientUnits="userSpaceOnUse" x2="4.5" y1="6.5" x1="3.5">
<stop stop-color="#d3d7cf" offset="0"/>
<stop stop-color="#babdb6" stop-opacity="0" offset="1"/>
</linearGradient>
<radialGradient id="b" gradientUnits="userSpaceOnUse" cy="9.5" cx="3.5" gradientTransform="matrix(0,1,-1,0,13,6)" r="2">
<stop stop-color="#d8e4f0" offset="0"/>
<stop stop-color="#2881df" offset="1"/>
</radialGradient>
</defs>
<metadata>
<rdf:RDF>
<cc:Work rdf:about="">
<dc:format>image/svg+xml</dc:format>
<dc:type rdf:resource="http://purl.org/dc/dcmitype/StillImage"/>
<dc:title/>
<cc:license rdf:resource="http://creativecommons.org/publicdomain/zero/1.0/"/>
<dc:creator>
<cc:Agent>
<dc:title>Geert Bergman, geert@www.scrivo.org</dc:title>
</cc:Agent>
</dc:creator>
</cc:Work>
</rdf:RDF>
</metadata>
<g>
<path d="m3.5 1.51v13h10v-11l-2-2z" stroke="url(#h)" stroke-width="1px" fill="url(#i)"/>
<path d="m11 0.452v3.59h3.5z" stroke-width="0" fill="url(#j)"/>
<g stroke-linejoin="round">
<path d="m10.5 1v3.5h3.5-3.5z" stroke="url(#f)" stroke-linecap="square" stroke-width="1px" fill="none"/>
<path d="m2.5 0.5v15h12v-12l-3-3z" stroke="url(#g)" stroke-width="1px" fill="none"/>
<path d="m1.5 5.5c-0.554 0-1 0.446-1 1v6c0 0.554 0.446 1 1 1h9c0.554 0 1-0.446 1-1v-6h-3c-0.554 0-1-0.446-1-1h-6z" stroke="url(#e)" stroke-linecap="square" fill="url(#d)"/>
</g>
<path d="m7.5 8v4" stroke="#2e3436" stroke-width="1px" fill="#2e3436"/>
<rect ry=".5" height="1" width="2.06" y="6" x="5.7" stroke-width="0" fill="#fdee77"/>
<path d="m7.5 10a3.5 3.5 0 1 1 -7 0 3.5 3.5 0 1 1 7 0z" fill-rule="evenodd" stroke="#434d50" stroke-width="1px" fill="url(#c)"/>
<path d="m9.5 8v4" stroke="#2e3436" stroke-width="1px" fill="none"/>
<path d="m6 10a2 2 0 1 1 -4 0 2 2 0 1 1 4 0z" fill-rule="evenodd" stroke-width="0" fill="url(#b)"/>
<path d="m9 5.5h2" stroke="#2e3436" stroke-width="1px" fill="none"/>
<path stroke-linejoin="round" d="m6.97 6.5h0.336" stroke="#edd400" stroke-linecap="round" stroke-width="1px" fill="#edd400"/>
</g>
</svg>
