<?xml version="1.0" encoding="UTF-8" standalone="no"?>
<svg xmlns:rdf="http://www.w3.org/1999/02/22-rdf-syntax-ns#" xmlns="http://www.w3.org/2000/svg" xmlns:osb="http://www.openswatchbook.org/uri/2009/osb" height="16px" width="16px" version="1.1" enable-background="new" xmlns:cc="http://creativecommons.org/ns#" xmlns:xlink="http://www.w3.org/1999/xlink" xmlns:dc="http://purl.org/dc/elements/1.1/">
<defs>
<linearGradient id="a">
<stop stop-color="#959793" offset="0"/>
<stop stop-color="#797d76" offset="1"/>
</linearGradient>
<linearGradient id="f" y2="2.05" gradientUnits="userSpaceOnUse" y1="3.5" gradientTransform="matrix(1 0 0 1.03 .992 -.0610)" x2="12" x1="10.5">
<stop stop-color="#e8ecf1" offset="0"/>
<stop stop-color="#b8c2cd" offset="1"/>
</linearGradient>
<linearGradient id="e" y2="14" gradientUnits="userSpaceOnUse" y1="2" gradientTransform="translate(1 .0137)" x2="8" x1="6">
<stop stop-color="#e8ecf1" offset="0"/>
<stop stop-color="#b8c2cd" offset="1"/>
</linearGradient>
<linearGradient id="d" y2="15" gradientUnits="userSpaceOnUse" y1="1" gradientTransform="translate(1 .0137)" x2="8" x1="6">
<stop stop-color="#fdfeff" offset="0"/>
<stop stop-color="#d7d8e1" offset="1"/>
</linearGradient>
<linearGradient id="c" y2="16" xlink:href="#a" gradientUnits="userSpaceOnUse" x2="8" gradientTransform="translate(1)" x1="6"/>
<linearGradient id="b" y2="4" xlink:href="#a" gradientUnits="userSpaceOnUse" x2="10.5" gradientTransform="translate(1)" y1="2.5" x1="11.5"/>
<linearGradient id="h" y2="13" gradientUnits="userSpaceOnUse" y1="6" x2="5" x1="4.5">
<stop stop-color="#fbf7d4" offset="0"/>
<stop stop-color="#eae196" offset="1"/>
</linearGradient>
<linearGradient id="g" y2="13.5" gradientUnits="userSpaceOnUse" y1="5.5" x2="5.5" x1="4.5">
<stop stop-color="#c4a000" offset="0"/>
<stop stop-color="#977c00" offset="1"/>
</linearGradient>
</defs>
<metadata>
<rdf:RDF>
<cc:Work rdf:about="">
<dc:format>image/svg+xml</dc:format>
<dc:type rdf:resource="http://purl.org/dc/dcmitype/StillImage"/>
<dc:title/>
<cc:license rdf:resource="http://creativecommons.org/publicdomain/zero/1.0/"/>
<dc:creator>
<cc:Agent>
<dc:title>Geert Bergman, geert@www.scrivo.org</dc:title>
</cc:Agent>
</dc:creator>
</cc:Work>
</rdf:RDF>
</metadata>
<g>
<path d="m3.5 1.51v13h10v-11l-2-2z" stroke="url(#d)" stroke-width="1px" fill="url(#e)"/>
<path d="m11 0.452v3.59h3.5z" stroke-width="0" fill="url(#f)"/>
<g stroke-linejoin="round">
<path d="m10.5 1v3.5h3.5-3.5z" stroke="url(#b)" stroke-linecap="square" stroke-width="1px" fill="none"/>
<path d="m2.5 0.5v15h12v-12l-3-3z" stroke="url(#c)" stroke-width="1px" fill="none"/>
<rect ry="0" height="8" width="10" stroke="url(#g)" y="5.5" x=".5" fill="url(#h)"/>
</g>
<g fill="#5a4a00">
<rect height="1" width="1" y="8.33" x="2.01"/>
<rect height="1" width="1" y="9.75" x="1.99"/>
<rect height="1" width="2" y="7.01" x="2.5"/>
<rect height="1" width="1" y="8.31" x="4"/>
<rect height="1" width="1" y="9.72" x="3.99"/>
<rect height="1" width="2" y="11" x="2.51"/>
<rect height="1" width="1" y="8.28" x="7.51"/>
<rect height="1" width="1" y="9.69" x="7.5"/>
<rect height="1" width="2" y="7.01" x="6.5"/>
<rect height="1" width="3" y="11" x="6.5"/>
</g>
</g>
</svg>
