<?xml version="1.0" encoding="UTF-8" standalone="no"?>
<svg xmlns:rdf="http://www.w3.org/1999/02/22-rdf-syntax-ns#" xmlns="http://www.w3.org/2000/svg" xmlns:osb="http://www.openswatchbook.org/uri/2009/osb" height="16px" width="16px" version="1.1" enable-background="new" xmlns:cc="http://creativecommons.org/ns#" xmlns:xlink="http://www.w3.org/1999/xlink" xmlns:dc="http://purl.org/dc/elements/1.1/">
<defs>
<linearGradient id="a">
<stop stop-color="#959793" offset="0"/>
<stop stop-color="#797d76" offset="1"/>
</linearGradient>
<linearGradient id="f" y2="2.05" gradientUnits="userSpaceOnUse" y1="3.5" gradientTransform="matrix(1 0 0 1.03 .992 -.0610)" x2="12" x1="10.5">
<stop stop-color="#e8ecf1" offset="0"/>
<stop stop-color="#b8c2cd" offset="1"/>
</linearGradient>
<linearGradient id="e" y2="14" gradientUnits="userSpaceOnUse" y1="2" gradientTransform="translate(1 .0137)" x2="8" x1="6">
<stop stop-color="#e8ecf1" offset="0"/>
<stop stop-color="#b8c2cd" offset="1"/>
</linearGradient>
<linearGradient id="d" y2="15" gradientUnits="userSpaceOnUse" y1="1" gradientTransform="translate(1 .0137)" x2="8" x1="6">
<stop stop-color="#fdfeff" offset="0"/>
<stop stop-color="#d7d8e1" offset="1"/>
</linearGradient>
<linearGradient id="c" y2="16" xlink:href="#a" gradientUnits="userSpaceOnUse" x2="8" gradientTransform="translate(1)" x1="6"/>
<linearGradient id="b" y2="4" xlink:href="#a" gradientUnits="userSpaceOnUse" x2="10.5" gradientTransform="translate(1)" y1="2.5" x1="11.5"/>
</defs>
<metadata>
<rdf:RDF>
<cc:Work rdf:about="">
<dc:format>image/svg+xml</dc:format>
<dc:type rdf:resource="http://purl.org/dc/dcmitype/StillImage"/>
<dc:title/>
<cc:license rdf:resource="http://creativecommons.org/publicdomain/zero/1.0/"/>
<dc:creator>
<cc:Agent>
<dc:title>Geert Bergman, geert@www.scrivo.org</dc:title>
</cc:Agent>
</dc:creator>
</cc:Work>
</rdf:RDF>
</metadata>
<g>
<path d="m3.5 1.51v13h10v-11l-2-2z" stroke="url(#d)" stroke-width="1px" fill="url(#e)"/>
<path d="m11 0.452v3.59h3.5z" stroke-width="0" fill="url(#f)"/>
<path stroke-linejoin="round" d="m10.5 1v3.5h3.5-3.5z" stroke="url(#b)" stroke-linecap="square" stroke-width="1px" fill="none"/>
<path stroke-linejoin="round" d="m2.5 0.5v15h12v-12l-3-3z" stroke="url(#c)" stroke-width="1px" fill="none"/>
<g transform="scale(.995 1)" stroke-width="0">
<path d="m5.53 5.97v5.97h1.51c0.502 0 0.502-0.0156 0.502 0.498 0 0.513 1e-7 0.498-0.502 0.498h-4.02c-0.502 0-0.502 0.000001-0.502-0.498s0-0.498 0.502-0.498h1.51v-5.97h-2.51v1.99c0 0.498 0.00427 0.513-0.502 0.498-0.498-0.0148-0.502 0-0.502-0.498v-2.99h8.04v2.99c0 0.498 0 0.498-0.502 0.498s-0.502 0-0.502-0.498v-1.99h-2.51" stroke-width=".5"/>
</g>
</g>
</svg>
