<?xml version="1.0" encoding="UTF-8" standalone="no"?>
<svg xmlns:rdf="http://www.w3.org/1999/02/22-rdf-syntax-ns#" xmlns="http://www.w3.org/2000/svg" xmlns:osb="http://www.openswatchbook.org/uri/2009/osb" height="16px" width="16px" version="1.1" enable-background="new" xmlns:cc="http://creativecommons.org/ns#" xmlns:xlink="http://www.w3.org/1999/xlink" xmlns:dc="http://purl.org/dc/elements/1.1/">
<defs>
<linearGradient id="a">
<stop stop-color="#959793" offset="0"/>
<stop stop-color="#797d76" offset="1"/>
</linearGradient>
<linearGradient id="g" y2="2.05" gradientUnits="userSpaceOnUse" y1="3.5" gradientTransform="matrix(1 0 0 1.03 .992 -.0610)" x2="12" x1="10.5">
<stop stop-color="#e8ecf1" offset="0"/>
<stop stop-color="#b8c2cd" offset="1"/>
</linearGradient>
<linearGradient id="f" y2="14" gradientUnits="userSpaceOnUse" y1="2" gradientTransform="translate(1 .0137)" x2="8" x1="6">
<stop stop-color="#e8ecf1" offset="0"/>
<stop stop-color="#b8c2cd" offset="1"/>
</linearGradient>
<linearGradient id="e" y2="15" gradientUnits="userSpaceOnUse" y1="1" gradientTransform="translate(1 .0137)" x2="8" x1="6">
<stop stop-color="#fdfeff" offset="0"/>
<stop stop-color="#d7d8e1" offset="1"/>
</linearGradient>
<linearGradient id="d" y2="16" xlink:href="#a" gradientUnits="userSpaceOnUse" x2="8" gradientTransform="translate(1)" x1="6"/>
<linearGradient id="c" y2="4" xlink:href="#a" gradientUnits="userSpaceOnUse" x2="10.5" gradientTransform="translate(1)" y1="2.5" x1="11.5"/>
<linearGradient id="b" y2="14" gradientUnits="userSpaceOnUse" x2="6.5" y1="5" x1="5.5">
<stop stop-color="#e27000" offset="0"/>
<stop stop-color="#b35000" offset="1"/>
</linearGradient>
</defs>
<metadata>
<rdf:RDF>
<cc:Work rdf:about="">
<dc:format>image/svg+xml</dc:format>
<dc:type rdf:resource="http://purl.org/dc/dcmitype/StillImage"/>
<dc:title/>
<cc:license rdf:resource="http://creativecommons.org/publicdomain/zero/1.0/"/>
<dc:creator>
<cc:Agent>
<dc:title>Geert Bergman, geert@www.scrivo.org</dc:title>
</cc:Agent>
</dc:creator>
</cc:Work>
</rdf:RDF>
</metadata>
<g>
<path d="m3.5 1.51v13h10v-11l-2-2z" stroke="url(#e)" stroke-width="1px" fill="url(#f)"/>
<path d="m11 0.452v3.59h3.5z" stroke-width="0" fill="url(#g)"/>
<path stroke-linejoin="round" d="m10.5 1v3.5h3.5-3.5z" stroke="url(#c)" stroke-linecap="square" stroke-width="1px" fill="none"/>
<path stroke-linejoin="round" d="m2.5 0.5v15h12v-12l-3-3z" stroke="url(#d)" stroke-width="1px" fill="none"/>
<rect height="8" width="11" y="5.5" x=".5" stroke-width="0" fill="#fff"/>
<path d="m8 11h2v1h-2zm0-2h2v1h-2zm-0.000854-1.99h2v1.01h-2zm-2.98-0.52c1.37 0.00785 2.48 1.13 2.48 2.51l-2.49-0.00343zm1.46 3.52c0.00452 1.39-1.11 2.51-2.49 2.52-1.38 0.0046-2.5-1.12-2.5-2.5-0.00452-1.39 1.11-2.51 2.49-2.52 0.00981-0.0000325 0.0196-0.0000066 0.0294 0.0000776l-0.02 2.5zm-6.07-5a0.5 0.5 0 0 0 -0.406 0.5v8a0.5 0.5 0 0 0 0.5 0.5h11a0.5 0.5 0 0 0 0.5 -0.5v-8a0.5 0.5 0 0 0 -0.5 -0.5h-11a0.5 0.5 0 0 0 -0.094 0zm0.594 1h10v7h-10v-7z" stroke-width="0" fill="url(#b)"/>
</g>
</svg>
