<?xml version="1.0" encoding="UTF-8" standalone="no"?>
<svg xmlns:rdf="http://www.w3.org/1999/02/22-rdf-syntax-ns#" xmlns="http://www.w3.org/2000/svg" xmlns:osb="http://www.openswatchbook.org/uri/2009/osb" height="16px" width="16px" version="1.1" enable-background="new" xmlns:cc="http://creativecommons.org/ns#" xmlns:xlink="http://www.w3.org/1999/xlink" xmlns:dc="http://purl.org/dc/elements/1.1/">
<defs>
<linearGradient id="a">
<stop stop-color="#959793" offset="0"/>
<stop stop-color="#797d76" offset="1"/>
</linearGradient>
<linearGradient id="h" y2="2.05" gradientUnits="userSpaceOnUse" y1="3.5" gradientTransform="matrix(1 0 0 1.03 .992 -.0610)" x2="12" x1="10.5">
<stop stop-color="#e8ecf1" offset="0"/>
<stop stop-color="#b8c2cd" offset="1"/>
</linearGradient>
<linearGradient id="g" y2="14" gradientUnits="userSpaceOnUse" y1="2" gradientTransform="translate(1 .0137)" x2="8" x1="6">
<stop stop-color="#e8ecf1" offset="0"/>
<stop stop-color="#b8c2cd" offset="1"/>
</linearGradient>
<linearGradient id="f" y2="15" gradientUnits="userSpaceOnUse" y1="1" gradientTransform="translate(1 .0137)" x2="8" x1="6">
<stop stop-color="#fdfeff" offset="0"/>
<stop stop-color="#d7d8e1" offset="1"/>
</linearGradient>
<linearGradient id="e" y2="16" xlink:href="#a" gradientUnits="userSpaceOnUse" x2="8" gradientTransform="translate(1)" x1="6"/>
<linearGradient id="d" y2="4" xlink:href="#a" gradientUnits="userSpaceOnUse" x2="10.5" gradientTransform="translate(1)" y1="2.5" x1="11.5"/>
<linearGradient id="c" y2="5.13" gradientUnits="userSpaceOnUse" x2="4.96" y1="12.9" x1="6">
<stop stop-color="#183968" offset="0"/>
<stop stop-color="#315e9a" offset="1"/>
</linearGradient>
<linearGradient id="b" y2="11.9" gradientUnits="userSpaceOnUse" x2="6.04" y1="5.94" x1="5.09">
<stop stop-color="#9abadd" offset="0"/>
<stop stop-color="#3d76b3" offset="1"/>
</linearGradient>
</defs>
<metadata>
<rdf:RDF>
<cc:Work rdf:about="">
<dc:format>image/svg+xml</dc:format>
<dc:type rdf:resource="http://purl.org/dc/dcmitype/StillImage"/>
<dc:title/>
<cc:license rdf:resource="http://creativecommons.org/publicdomain/zero/1.0/"/>
<dc:creator>
<cc:Agent>
<dc:title>Geert Bergman, geert@www.scrivo.org</dc:title>
</cc:Agent>
</dc:creator>
</cc:Work>
</rdf:RDF>
</metadata>
<g>
<path d="m3.5 1.51v13h10v-11l-2-2z" stroke="url(#f)" stroke-width="1px" fill="url(#g)"/>
<path d="m11 0.452v3.59h3.5z" stroke-width="0" fill="url(#h)"/>
<g>
<path stroke-linejoin="round" d="m10.5 1v3.5h3.5-3.5z" stroke="url(#d)" stroke-linecap="square" stroke-width="1px" fill="none"/>
<path stroke-linejoin="round" d="m2.5 0.5v15h12v-12l-3-3z" stroke="url(#e)" stroke-width="1px" fill="none"/>
<path d="m0.36 5.5h3.53v0.437h-0.375c-0.343 0-0.531 0.191-0.593 0.246-0.0937 0.0819-0.251 0.303-0.25 0.519v1.69c0 0.246 0.187 0.355 0.312 0.382 0.192 0.0419 0.468 0.0546 0.687-0.219l2.22-3.06h1.59v2.29c0 0.3 0.219 0.464 0.375 0.519 0.251 0.0878 0.593 0.0546 0.781-0.191l0.89-1.3c0.0937-0.137 0.123-0.449 0-0.628-0.1-0.15-0.22-0.25-0.53-0.25v-0.437h3v0.437c-0.343 0-0.468 0.0819-0.562 0.164-0.0937 0.0819-0.156 0.164-0.25 0.328l-3.56 6.06h-2.15v-2.4c0-0.273-0.0615-0.601-0.562-0.601-0.281 0-0.406 0.164-0.531 0.41l-1.56 2.59h-1.34v-5.85c-0.01-0.3-0.2-0.44-0.3-0.53-0.09-0.08-0.278-0.19-0.497-0.19h-0.343z" stroke="url(#c)" stroke-width=".750" fill="url(#b)"/>
</g>
</g>
</svg>
