<?xml version="1.0" encoding="UTF-8" standalone="no"?>
<svg xmlns:rdf="http://www.w3.org/1999/02/22-rdf-syntax-ns#" xmlns="http://www.w3.org/2000/svg" xmlns:osb="http://www.openswatchbook.org/uri/2009/osb" height="16px" width="16px" version="1.1" enable-background="new" xmlns:cc="http://creativecommons.org/ns#" xmlns:xlink="http://www.w3.org/1999/xlink" xmlns:dc="http://purl.org/dc/elements/1.1/">
<defs>
<linearGradient id="c">
<stop stop-color="#959793" offset="0"/>
<stop stop-color="#797d76" offset="1"/>
</linearGradient>
<linearGradient id="l" y2="2.05" gradientUnits="userSpaceOnUse" y1="3.5" gradientTransform="matrix(1 0 0 1.03 .992 -.0610)" x2="12" x1="10.5">
<stop stop-color="#e8ecf1" offset="0"/>
<stop stop-color="#b8c2cd" offset="1"/>
</linearGradient>
<linearGradient id="k" y2="14" gradientUnits="userSpaceOnUse" y1="2" gradientTransform="translate(1 .0137)" x2="8" x1="6">
<stop stop-color="#e8ecf1" offset="0"/>
<stop stop-color="#b8c2cd" offset="1"/>
</linearGradient>
<linearGradient id="j" y2="15" gradientUnits="userSpaceOnUse" y1="1" gradientTransform="translate(1 .0137)" x2="8" x1="6">
<stop stop-color="#fdfeff" offset="0"/>
<stop stop-color="#d7d8e1" offset="1"/>
</linearGradient>
<linearGradient id="i" y2="16" xlink:href="#c" gradientUnits="userSpaceOnUse" x2="8" gradientTransform="translate(1)" x1="6"/>
<linearGradient id="h" y2="4" xlink:href="#c" gradientUnits="userSpaceOnUse" x2="10.5" gradientTransform="translate(1)" y1="2.5" x1="11.5"/>
<linearGradient id="a">
<stop stop-color="#f0d09e" offset="0"/>
<stop stop-color="#c17d11" offset="1"/>
</linearGradient>
<linearGradient id="b">
<stop stop-color="#8f5902" offset="0"/>
<stop stop-color="#4a2d01" offset="1"/>
</linearGradient>
<linearGradient id="f" y2="15" xlink:href="#a" spreadMethod="reflect" gradientUnits="userSpaceOnUse" x2="5" gradientTransform="matrix(.671 0 0 .669 .180 3.48)" y1="6" x1="5.5"/>
<linearGradient id="g" y2="15" xlink:href="#b" spreadMethod="reflect" gradientUnits="userSpaceOnUse" x2="5" gradientTransform="matrix(.671 0 0 .669 .180 3.48)" y1="6" x1="5.5"/>
<linearGradient id="e" y2="9.64" xlink:href="#a" gradientUnits="userSpaceOnUse" y1="2.65" gradientTransform="matrix(.671 0 0 .669 .180 3.48)" x2="15" x1="6.26"/>
<linearGradient id="d" y2="9.64" xlink:href="#b" gradientUnits="userSpaceOnUse" y1="7.25" gradientTransform="matrix(.671 0 0 .669 .180 3.48)" x2="15" x1="10.8"/>
</defs>
<metadata>
<rdf:RDF>
<cc:Work rdf:about="">
<dc:format>image/svg+xml</dc:format>
<dc:type rdf:resource="http://purl.org/dc/dcmitype/StillImage"/>
<dc:title/>
<cc:license rdf:resource="http://creativecommons.org/publicdomain/zero/1.0/"/>
<dc:creator>
<cc:Agent>
<dc:title>Geert Bergman, geert@www.scrivo.org</dc:title>
</cc:Agent>
</dc:creator>
</cc:Work>
</rdf:RDF>
</metadata>
<g>
<path d="m3.5 1.51v13h10v-11l-2-2z" stroke="url(#j)" stroke-width="1px" fill="url(#k)"/>
<path d="m11 0.452v3.59h3.5z" stroke-width="0" fill="url(#l)"/>
<path stroke-linejoin="round" d="m10.5 1v3.5h3.5-3.5z" stroke="url(#h)" stroke-linecap="square" stroke-width="1px" fill="none"/>
<g stroke-linejoin="round" stroke-width="1px">
<path d="m2.5 0.5v15h12v-12l-3-3z" stroke="url(#i)" fill="none"/>
<path d="m7.52 13.9 2.98-3.1v-5.7l-3.03 2.62z" stroke="url(#d)" fill="url(#e)"/>
<path d="m7.27 4.86-3.07 2.64m-3.68-0.34 6.91 0.6m0.0221 0 0.0442 6.11-6.98-0.691v-6.02l3.35-2.55 6.64 0.48z" stroke="url(#g)" fill="url(#f)"/>
</g>
</g>
</svg>
