<?xml version="1.0" encoding="UTF-8" standalone="no"?>
<svg xmlns:rdf="http://www.w3.org/1999/02/22-rdf-syntax-ns#" xmlns="http://www.w3.org/2000/svg" xmlns:osb="http://www.openswatchbook.org/uri/2009/osb" height="16px" width="16px" version="1.1" enable-background="new" xmlns:cc="http://creativecommons.org/ns#" xmlns:xlink="http://www.w3.org/1999/xlink" xmlns:dc="http://purl.org/dc/elements/1.1/">
<defs>
<linearGradient id="a">
<stop stop-color="#959793" offset="0"/>
<stop stop-color="#797d76" offset="1"/>
</linearGradient>
<linearGradient id="g" y2="2.05" gradientUnits="userSpaceOnUse" y1="3.5" gradientTransform="matrix(1 0 0 1.03 .992 -.0610)" x2="12" x1="10.5">
<stop stop-color="#e8ecf1" offset="0"/>
<stop stop-color="#b8c2cd" offset="1"/>
</linearGradient>
<linearGradient id="f" y2="14" gradientUnits="userSpaceOnUse" y1="2" gradientTransform="translate(1 .0137)" x2="8" x1="6">
<stop stop-color="#e8ecf1" offset="0"/>
<stop stop-color="#b8c2cd" offset="1"/>
</linearGradient>
<linearGradient id="e" y2="15" gradientUnits="userSpaceOnUse" y1="1" gradientTransform="translate(1 .0137)" x2="8" x1="6">
<stop stop-color="#fdfeff" offset="0"/>
<stop stop-color="#d7d8e1" offset="1"/>
</linearGradient>
<linearGradient id="d" y2="16" xlink:href="#a" gradientUnits="userSpaceOnUse" x2="8" gradientTransform="translate(1)" x1="6"/>
<linearGradient id="c" y2="4" xlink:href="#a" gradientUnits="userSpaceOnUse" x2="10.5" gradientTransform="translate(1)" y1="2.5" x1="11.5"/>
<linearGradient id="b" y2="2.35" gradientUnits="userSpaceOnUse" x2="5.33" y1="14.5" x1="6.44">
<stop stop-color="#700" offset="0"/>
<stop stop-color="#ba0000" offset="1"/>
</linearGradient>
</defs>
<metadata>
<rdf:RDF>
<cc:Work rdf:about="">
<dc:format>image/svg+xml</dc:format>
<dc:type rdf:resource="http://purl.org/dc/dcmitype/StillImage"/>
<dc:title/>
<cc:license rdf:resource="http://creativecommons.org/publicdomain/zero/1.0/"/>
<dc:creator>
<cc:Agent>
<dc:title>Geert Bergman, geert@www.scrivo.org</dc:title>
</cc:Agent>
</dc:creator>
</cc:Work>
</rdf:RDF>
</metadata>
<g>
<path d="m3.5 1.51v13h10v-11l-2-2z" stroke="url(#e)" stroke-width="1px" fill="url(#f)"/>
<path d="m11 0.452v3.59h3.5z" stroke-width="0" fill="url(#g)"/>
<g stroke-width="1px" fill="none">
<path stroke-linejoin="round" d="m10.5 1v3.5h3.5-3.5z" stroke="url(#c)" stroke-linecap="square"/>
<path stroke-linejoin="round" d="m2.5 0.5v15h12v-12l-3-3z" stroke="url(#d)"/>
<path d="m5.92 10.3c1.73-0.45 3.3-0.91 4.98-0.51 1.8 0.31 1.4 1.51-0.3 1.11-1.57-0.3-3.02-1.29-4.17-2.41-0.91-1.07-1.19-2.09-1.44-3.83-0.36-2.56 1.41-2.62 1.13-0.15-0.18 1.56-0.66 2.79-1.44 4.44-0.64 1.35-1.66 3.45-2.6 4.65-1.51 1.9-2.14 0.2-1.11-0.8 1.03-0.9 3.17-2 4.95-2.5z" stroke="url(#b)"/>
</g>
</g>
</svg>
