<?xml version="1.0" encoding="UTF-8" standalone="no"?>
<svg xmlns:rdf="http://www.w3.org/1999/02/22-rdf-syntax-ns#" xmlns="http://www.w3.org/2000/svg" xmlns:osb="http://www.openswatchbook.org/uri/2009/osb" height="16px" width="16px" version="1.1" enable-background="new" xmlns:cc="http://creativecommons.org/ns#" xmlns:xlink="http://www.w3.org/1999/xlink" xmlns:dc="http://purl.org/dc/elements/1.1/">
<defs>
<linearGradient id="a">
<stop stop-color="#959793" offset="0"/>
<stop stop-color="#797d76" offset="1"/>
</linearGradient>
<linearGradient id="h" y2="2.05" gradientUnits="userSpaceOnUse" y1="3.5" gradientTransform="matrix(1 0 0 1.03 .992 -.0610)" x2="12" x1="10.5">
<stop stop-color="#e8ecf1" offset="0"/>
<stop stop-color="#b8c2cd" offset="1"/>
</linearGradient>
<linearGradient id="g" y2="14" gradientUnits="userSpaceOnUse" y1="2" gradientTransform="translate(1 .0137)" x2="8" x1="6">
<stop stop-color="#e8ecf1" offset="0"/>
<stop stop-color="#b8c2cd" offset="1"/>
</linearGradient>
<linearGradient id="f" y2="15" gradientUnits="userSpaceOnUse" y1="1" gradientTransform="translate(1 .0137)" x2="8" x1="6">
<stop stop-color="#fdfeff" offset="0"/>
<stop stop-color="#d7d8e1" offset="1"/>
</linearGradient>
<linearGradient id="e" y2="16" xlink:href="#a" gradientUnits="userSpaceOnUse" x2="8" gradientTransform="translate(1)" x1="6"/>
<linearGradient id="d" y2="4" xlink:href="#a" gradientUnits="userSpaceOnUse" x2="10.5" gradientTransform="translate(1)" y1="2.5" x1="11.5"/>
<linearGradient id="i" y2="100" gradientUnits="userSpaceOnUse" x2="-12" y1="-60" x1="-56">
<stop stop-color="#2e68c0" offset="0"/>
<stop stop-color="#2d67be" offset="1"/>
</linearGradient>
<radialGradient id="c" gradientUnits="userSpaceOnUse" cy="-34.2" cx="-41.5" gradientTransform="matrix(-.301 1.04 -.694 -.202 -72 3.25)" r="86">
<stop stop-color="#fff" stop-opacity=".895" offset="0"/>
<stop stop-color="#e3e6ea" stop-opacity=".438" offset=".5"/>
<stop stop-color="#132c51" stop-opacity=".192" offset="1"/>
</radialGradient>
<radialGradient id="b" gradientUnits="userSpaceOnUse" cy="21.6" cx="-93.7" gradientTransform="matrix(-.0305 .0478 -.0520 -.0329 3.08 7.24)" r="78.9">
<stop stop-color="#fff" offset="0"/>
<stop stop-color="#fff" offset=".25"/>
<stop stop-color="#9ae650" offset=".5"/>
<stop stop-color="#63c308" offset="1"/>
</radialGradient>
</defs>
<metadata>
<rdf:RDF>
<cc:Work rdf:about="">
<dc:format>image/svg+xml</dc:format>
<dc:type rdf:resource="http://purl.org/dc/dcmitype/StillImage"/>
<dc:title/>
<cc:license rdf:resource="http://creativecommons.org/publicdomain/zero/1.0/"/>
<dc:creator>
<cc:Agent>
<dc:title>Geert Bergman, geert@www.scrivo.org</dc:title>
</cc:Agent>
</dc:creator>
</cc:Work>
</rdf:RDF>
</metadata>
<g>
<path d="m3.5 1.51v13h10v-11l-2-2z" stroke="url(#f)" stroke-width="1px" fill="url(#g)"/>
<path d="m11 0.452v3.59h3.5z" stroke-width="0" fill="url(#h)"/>
<path stroke-linejoin="round" d="m10.5 1v3.5h3.5-3.5z" stroke="url(#d)" stroke-linecap="square" stroke-width="1px" fill="none"/>
<path stroke-linejoin="round" d="m2.5 0.5v15h12v-12l-3-3z" stroke="url(#e)" stroke-width="1px" fill="none"/>
<g transform="translate(5.26e-8 3)">
<g>
<path d="m60 18c0 47.5-38.5 86-86 86s-86-38.5-86-86 38.5-86 86-86 86 38.5 86 86z" fill-rule="evenodd" transform="matrix(.0640 0 0 .0638 7.16 4.34)" fill="url(#i)"/>
<path d="m60 18c0 47.5-38.5 86-86 86s-86-38.5-86-86 38.5-86 86-86 86 38.5 86 86z" fill-rule="evenodd" transform="matrix(.0636 0 0 .0639 7.17 4.36)" fill="url(#c)"/>
<path style="block-progression:tb;text-indent:0;color:#000000;enable-background:accumulate;text-transform:none" d="m3.76 2.37c0.49 0.21 1.07 0.55 1.61 0.32 0.65-0.16 0.55-0.93 0.02-1.17-0.39-0.572-1.11-0.48-1.58-0.06-0.37 0.22-0.36 0.64-0.05 0.91zm3.46 7.44c-0.36-0.21-0.85 0.39-0.24 0.29 0.22 0.1 1.03 0 0.6-0.26-0.12-0.02-0.24-0.03-0.36-0.03zm0.84-0.28c-0.279 0.551 0.738 0.0608 0.0902-0.00144l-0.0716-0.00693-0.0186 0.00837zm-5.31-8.27c-0.25 0.63-1.12 0.17-1.25 0.89-0.23 0.4-0.715 0.81-0.2 1.24 0.23 0.33 0.38 0.58 0.77 0.66 0.35 0.34 0.02 0.91 0.52 1.09 0.18 0.38 0.49 0.75 0.9 0.72 0.26 0.46 1.16 0.17 0.76-0.34-0.23-0.18-1.09 0.06-0.82-0.43 0.4-0.08 1.13 0.25 1.22-0.27 0.04-0.52 0.38-0.92 0.64-1.3-0.05-0.45-0.64-0.61-0.83-0.21-0.22-0.19-0.43-0.46-0.7-0.47-0.29-0.36-1.43-0.56-0.89-1.15 0.18-0.17 0.19-0.42-0.12-0.43zm-2.11 4.2c-0.324 0.383 0.563 0.309 0.15 0-0.0431-0.0264-0.11-0.0381-0.15 0zm6.9-4.77c-0.57-0.106-0.87 0.453-1.25 0.743-0.37 0.31-0.56 1.23 0.05 1.36 0.47-0.1 0.9-0.3 1.37-0.38 0.16-0.48 0.08-1.05 0.04-1.56 0-0.175-0.04-0.183-0.21-0.163zm0.32 1.67c-0.689 0.152 0.494 0.67 0.14 0.0372l-0.0671-0.0299-0.0729-0.0073zm-2.79-2.14c-0.37 0.397-0.06 1.04 0.49 0.835 0.31 0.08 1.12-0.113 0.58-0.472-0.39-0.008-0.84 0.013-1.07-0.363zm-0.58 0.407c-0.75 0.162 0.55 0.708 0.17 0.045l-0.08-0.035-0.09-0.01zm4.83 1.74c-0.62 0.01-0.46 0.97-0.96 0.96-0.44 0.08-0.18 0.51-0.07 0.69-0.1 0.58-0.23 1.18-0.63 1.61-0.03 0.42 0.38 0.76 0.4 1.15 0.43 0.09 1.03 0.01 1.02 0.63 0.39 0.44 1.22 0.15 1.12-0.49 0.3-0.42 0.6-0.93 0.7-1.46 0-0.74 0-1.55-0.4-2.2-0.1-0.51-0.57-1.15-1.18-0.89zm-4.46 3.19c-0.56 0.25-0.18 1.1-0.66 1.43 0.08 0.45 0.64 0.73 0.37 1.24 0.09 0.41-0.2 1.25 0.33 1.34 0.35-0.26 0.29-0.97 0.77-1.06 0.48-0.15 0.68-0.82 1.03-1.15 0.2-0.41-0.13-0.72-0.51-0.72-0.13-0.39-0.31-0.78-0.8-0.68-0.21-0.09-0.34-0.29-0.53-0.4z" fill="url(#b)"/>
</g>
<path opacity=".293" d="m15.7 8.02c0 4.16-3.4 7.54-7.59 7.54-4.21 0-7.61-3.4-7.61-7.58 0-4.16 3.4-7.53 7.59-7.53s7.59 3.37 7.59 7.54z" transform="matrix(.659 0 0 .664 .174 .175)" stroke="#000" stroke-width="1.51" fill="none"/>
</g>
</g>
</svg>
