<?xml version="1.0" encoding="UTF-8" standalone="no"?>
<svg xmlns:rdf="http://www.w3.org/1999/02/22-rdf-syntax-ns#" xmlns="http://www.w3.org/2000/svg" xmlns:osb="http://www.openswatchbook.org/uri/2009/osb" height="16px" width="16px" version="1.1" enable-background="new" xmlns:cc="http://creativecommons.org/ns#" xmlns:xlink="http://www.w3.org/1999/xlink" xmlns:dc="http://purl.org/dc/elements/1.1/">
<defs>
<linearGradient id="b">
<stop stop-color="#959793" offset="0"/>
<stop stop-color="#797d76" offset="1"/>
</linearGradient>
<linearGradient id="k" y2="2.05" gradientUnits="userSpaceOnUse" y1="3.5" gradientTransform="matrix(1 0 0 1.03 .992 -.0610)" x2="12" x1="10.5">
<stop stop-color="#e8ecf1" offset="0"/>
<stop stop-color="#b8c2cd" offset="1"/>
</linearGradient>
<linearGradient id="j" y2="14" gradientUnits="userSpaceOnUse" y1="2" gradientTransform="translate(1 .0137)" x2="8" x1="6">
<stop stop-color="#e8ecf1" offset="0"/>
<stop stop-color="#b8c2cd" offset="1"/>
</linearGradient>
<linearGradient id="i" y2="15" gradientUnits="userSpaceOnUse" y1="1" gradientTransform="translate(1 .0137)" x2="8" x1="6">
<stop stop-color="#fdfeff" offset="0"/>
<stop stop-color="#d7d8e1" offset="1"/>
</linearGradient>
<linearGradient id="h" y2="16" xlink:href="#b" gradientUnits="userSpaceOnUse" x2="8" gradientTransform="translate(1)" x1="6"/>
<linearGradient id="g" y2="4" xlink:href="#b" gradientUnits="userSpaceOnUse" x2="10.5" gradientTransform="translate(1)" y1="2.5" x1="11.5"/>
<linearGradient id="f" y2="11" xlink:href="#a" gradientUnits="userSpaceOnUse" x2="11" gradientTransform="translate(.00173 -.00552)" y1="7.5" x1="10"/>
<linearGradient id="a">
<stop stop-color="#fff" offset="0"/>
<stop stop-color="#729fcf" offset="1"/>
</linearGradient>
<linearGradient id="e" y2="11" xlink:href="#a" gradientUnits="userSpaceOnUse" x2="7" gradientTransform="translate(.00173 -.00552)" y1="7.5" x1="6"/>
<linearGradient id="d" y2="13.5" gradientUnits="userSpaceOnUse" x2="7" gradientTransform="translate(.000407 -.00261)" y1="5.5" x1="6">
<stop stop-color="#24292b" offset="0"/>
<stop stop-color="#1a1d1e" offset="1"/>
</linearGradient>
<linearGradient id="c" y2="11" xlink:href="#a" gradientUnits="userSpaceOnUse" y1="7.5" gradientTransform="translate(.00173 -.00552)" x2="3" x1="2"/>
</defs>
<metadata>
<rdf:RDF>
<cc:Work rdf:about="">
<dc:format>image/svg+xml</dc:format>
<dc:type rdf:resource="http://purl.org/dc/dcmitype/StillImage"/>
<dc:title/>
<cc:license rdf:resource="http://creativecommons.org/publicdomain/zero/1.0/"/>
<dc:creator>
<cc:Agent>
<dc:title>Geert Bergman, geert@www.scrivo.org</dc:title>
</cc:Agent>
</dc:creator>
</cc:Work>
</rdf:RDF>
</metadata>
<g>
<path d="m3.5 1.51v13h10v-11l-2-2z" stroke="url(#i)" stroke-width="1px" fill="url(#j)"/>
<path d="m11 0.452v3.59h3.5z" stroke-width="0" fill="url(#k)"/>
<path stroke-linejoin="round" d="m10.5 1v3.5h3.5-3.5z" stroke="url(#g)" stroke-linecap="square" stroke-width="1px" fill="none"/>
<path stroke-linejoin="round" d="m2.5 0.5v15h12v-12l-3-3z" stroke="url(#h)" stroke-width="1px" fill="none"/>
<g stroke-width="0">
<rect height="3" width="3" y="7.99" x="1" fill="url(#c)"/>
<rect height="3" width="3" y="7.99" x="5" fill="url(#e)"/>
<rect height="3" width="3" y="7.99" x="9" fill="url(#f)"/>
</g>
<path stroke-linejoin="round" d="m6.48 11.5v2m4.02-1.99v2m-8-2v2m8-8v2m-4-2v2m-4-2v2m6-2v8m-4-8v8m-4-2h12m-12-4h12m-12-2h12v8h-12z" stroke="url(#d)" stroke-width="1px" fill="none"/>
</g>
</svg>
