<?xml version="1.0" encoding="UTF-8" standalone="no"?>
<svg xmlns:rdf="http://www.w3.org/1999/02/22-rdf-syntax-ns#" xmlns="http://www.w3.org/2000/svg" height="16px" width="16px" version="1.1" enable-background="new" xmlns:cc="http://creativecommons.org/ns#" xmlns:xlink="http://www.w3.org/1999/xlink" xmlns:dc="http://purl.org/dc/elements/1.1/">
<defs>
<linearGradient id="e" y2="5.5" gradientUnits="userSpaceOnUse" x2="15" gradientTransform="translate(-1 .00520)" y1="8.51" x1="1">
<stop stop-color="#2e3436" offset="0"/>
<stop stop-color="#7c7f7a" offset=".285"/>
<stop stop-color="#2e3436" offset="1"/>
</linearGradient>
<radialGradient id="a" gradientUnits="userSpaceOnUse" cy="3.02" cx="6.54" gradientTransform="matrix(5.18e-8 .462 -1.31 6.16e-8 9.47 .471)" r="6.5">
<stop stop-color="#fff" offset="0"/>
<stop stop-color="#d4d5d1" offset=".667"/>
<stop stop-color="#babdb6" offset="1"/>
</radialGradient>
<linearGradient id="d" y2="9.5" gradientUnits="userSpaceOnUse" x2="1.5" gradientTransform="translate(-.991)" y1="9.5" x1="14.5">
<stop stop-color="#babab2" offset="0"/>
<stop stop-color="#fff" offset=".692"/>
<stop stop-color="#a4a89e" offset="1"/>
</linearGradient>
<linearGradient id="c" y2="12.5" gradientUnits="userSpaceOnUse" x2="9.99" y1=".0285" x1="8.01">
<stop stop-color="#4e9a06" offset="0"/>
<stop stop-color="#316004" offset="1"/>
</linearGradient>
<linearGradient id="b" y2="12" gradientUnits="userSpaceOnUse" x2="10.5" y1="1.49" x1="8.74">
<stop stop-color="#c8f39d" offset="0"/>
<stop stop-color="#78d21e" offset="1"/>
</linearGradient>
</defs>
<metadata>
<rdf:RDF>
<cc:Work rdf:about="">
<dc:format>image/svg+xml</dc:format>
<dc:type rdf:resource="http://purl.org/dc/dcmitype/StillImage"/>
<dc:title/>
<cc:license rdf:resource="http://creativecommons.org/publicdomain/zero/1.0/"/>
<dc:creator>
<cc:Agent>
<dc:title>Geert Bergman, geert@www.scrivo.org</dc:title>
</cc:Agent>
</dc:creator>
</cc:Work>
</rdf:RDF>
</metadata>
<g>
<path d="m0.509 4v9c0 1.5 3 2.5 6.5 2.5s6.5-1 6.5-2.5v-9c0 1.5-3 2.5-6.5 2.5s-6.5-1-6.5-2.5z" stroke-width="0" fill="url(#d)"/>
<path d="m13.5 3.99c0 1.38-2.91 2.5-6.5 2.5s-6.5-1.12-6.5-2.5 2.91-2.5 6.5-2.5 6.5 1.12 6.5 2.5z" stroke-width="0" fill="url(#a)"/>
<path stroke-linejoin="round" d="m13.5 4.01v9zm-13 0v9zm13 2.99c0 1.38-2.91 2.5-6.5 2.5s-6.5-1.12-6.5-2.5v-1e-7m13 3c0 1.38-2.91 2.5-6.5 2.5s-6.5-1.12-6.5-2.5v0m13 3c0 1.38-2.91 2.5-6.5 2.5s-6.5-1.12-6.5-2.5v0m13-8.99c0 1.38-2.91 2.5-6.5 2.5s-6.5-1.12-6.5-2.5 2.91-2.5 6.5-2.5 6.5 1.12 6.5 2.5z" stroke="url(#e)" stroke-linecap="round" stroke-width="1px" fill="none"/>
<path stroke-linejoin="round" d="m10.5 0.5v3.52s-1.64 0.0899-3 0.775c-1.35 0.68-2.17 1.72-2.68 2.66-0.51 0.95-0.96 2-1.24 4.64 0 0 1.24-1.82 2-2.66 0.77-0.86 1.43-1.54 2.46-1.98s2.46-0.43 2.46-0.43v3.47l5-5z" stroke="url(#c)" stroke-width="1px" fill="url(#b)"/>
</g>
</svg>
