<?xml version="1.0" encoding="UTF-8" standalone="no"?>
<svg xmlns:rdf="http://www.w3.org/1999/02/22-rdf-syntax-ns#" xmlns="http://www.w3.org/2000/svg" xmlns:osb="http://www.openswatchbook.org/uri/2009/osb" height="16px" width="16px" version="1.1" enable-background="new" xmlns:cc="http://creativecommons.org/ns#" xmlns:xlink="http://www.w3.org/1999/xlink" xmlns:dc="http://purl.org/dc/elements/1.1/">
<defs>
<linearGradient id="c" y2="1.5" gradientUnits="userSpaceOnUse" x2="5" y1="14" x1="11">
<stop stop-color="#da6500" offset="0"/>
<stop stop-color="#fdc574" offset="1"/>
</linearGradient>
<linearGradient id="b" y2="1" gradientUnits="userSpaceOnUse" x2="5" y1="15" x1="11">
<stop stop-color="#ad4c00" offset="0"/>
<stop stop-color="#dd6700" offset="1"/>
</linearGradient>
<linearGradient id="a" y2="2.5" gradientUnits="userSpaceOnUse" x2="6" y1="11" x1="10">
<stop stop-color="#ce5c00" stop-opacity="0" offset="0"/>
<stop stop-color="#fcaf3e" offset=".5"/>
<stop stop-color="#fff" offset="1"/>
</linearGradient>
<filter id="d" height="1.23" width="1.23" y="-.116" x="-.116">
<feGaussianBlur stdDeviation="0.5814978"/>
</filter>
</defs>
<metadata>
<rdf:RDF>
<cc:Work rdf:about="">
<dc:format>image/svg+xml</dc:format>
<dc:type rdf:resource="http://purl.org/dc/dcmitype/StillImage"/>
<dc:title/>
<cc:license rdf:resource="http://creativecommons.org/publicdomain/zero/1.0/"/>
<dc:creator>
<cc:Agent>
<dc:title>Geert Bergman, geert@www.scrivo.org</dc:title>
</cc:Agent>
</dc:creator>
</cc:Work>
</rdf:RDF>
</metadata>
<g>
<path d="m15.5 8a7.5 7.5 0 1 1 -15 0 7.5 7.5 0 1 1 15 0z" fill-rule="evenodd" fill="url(#c)"/>
<g fill="none">
<path d="m15.5 8a7.5 7.5 0 1 1 -15 0 7.5 7.5 0 1 1 15 0z" stroke="url(#b)" stroke-width="1px"/>
<path opacity=".798" d="m14 8a6 6 0 1 1 -12 0 6 6 0 1 1 12 0z" filter="url(#d)" stroke="url(#a)" stroke-width="0.8"/>
<path stroke-linejoin="round" d="m3.25 8 4.75 4.8v-3.8h5v-2h-5v-3.75z" stroke-opacity=".229" stroke="#000" stroke-width="2"/>
</g>
<path d="m4 8l3.5 3.5v-3h5v-1h-5v-3z" stroke="#fff" stroke-width="1px" fill="#fff"/>
</g>
</svg>
