<?xml version="1.0" encoding="UTF-8" standalone="no"?>
<svg xmlns:rdf="http://www.w3.org/1999/02/22-rdf-syntax-ns#" xmlns="http://www.w3.org/2000/svg" height="16px" width="16px" version="1.1" xmlns:cc="http://creativecommons.org/ns#" xmlns:dc="http://purl.org/dc/elements/1.1/" enable-background="new">
<defs>
<linearGradient id="f" y2="1.5" gradientUnits="userSpaceOnUse" y1="14" x2="5" x1="11">
<stop stop-color="#c4a000" offset="0"/>
<stop stop-color="#fdf3a0" offset="1"/>
</linearGradient>
<linearGradient id="g" y2="1" gradientUnits="userSpaceOnUse" y1="15" x2="5" x1="11">
<stop stop-color="#9f8200" offset="0"/>
<stop stop-color="#c9a600" offset="1"/>
</linearGradient>
<linearGradient id="h" y2="2.5" gradientUnits="userSpaceOnUse" y1="11" x2="6" x1="10">
<stop stop-color="#b79600" stop-opacity="0" offset="0"/>
<stop stop-color="#fce94f" offset=".5"/>
<stop stop-color="#fff" offset="1"/>
</linearGradient>
<filter id="e" y="-.116" width="1.23" x="-.116" height="1.23">
<feGaussianBlur stdDeviation="0.5814978"/>
</filter>
</defs>
<metadata>
<rdf:RDF>
<cc:Work rdf:about="">
<dc:format>image/svg+xml</dc:format>
<dc:type rdf:resource="http://purl.org/dc/dcmitype/StillImage"/>
<dc:title/>
<cc:license rdf:resource="http://creativecommons.org/publicdomain/zero/1.0/"/>
<dc:creator>
<cc:Agent>
<dc:title>Geert Bergman, geert@www.scrivo.org</dc:title>
</cc:Agent>
</dc:creator>
</cc:Work>
</rdf:RDF>
</metadata>
<path fill="url(#f)" d="m15.5 8a7.5 7.5 0 1 1 -15 0 7.5 7.5 0 1 1 15 0z" fill-rule="evenodd"/>
<g fill="none">
<path stroke="url(#g)" stroke-width="1px" d="m15.5 8a7.5 7.5 0 1 1 -15 0 7.5 7.5 0 1 1 15 0z"/>
<path opacity=".798" d="m14 8a6 6 0 1 1 -12 0 6 6 0 1 1 12 0z" filter="url(#e)" stroke="url(#h)" stroke-width=".8"/>
</g>
</svg>
