<?xml version="1.0" encoding="UTF-8" standalone="no"?>
<svg xmlns:rdf="http://www.w3.org/1999/02/22-rdf-syntax-ns#" xmlns="http://www.w3.org/2000/svg" xmlns:osb="http://www.openswatchbook.org/uri/2009/osb" height="16px" width="16px" version="1.1" enable-background="new" xmlns:cc="http://creativecommons.org/ns#" xmlns:xlink="http://www.w3.org/1999/xlink" xmlns:dc="http://purl.org/dc/elements/1.1/">
<defs>
<filter id="d" height="1.23" width="1.23" y="-.116" x="-.116">
<feGaussianBlur stdDeviation="0.5814978"/>
</filter>
<linearGradient id="c" y2="1.5" gradientUnits="userSpaceOnUse" x2="5" y1="14" x1="11">
<stop stop-color="#c00" offset="0"/>
<stop stop-color="#f57b7b" offset="1"/>
</linearGradient>
<linearGradient id="b" y2="1" gradientUnits="userSpaceOnUse" x2="5" y1="15" x1="11">
<stop stop-color="#700" offset="0"/>
<stop stop-color="#ba0000" offset="1"/>
</linearGradient>
<linearGradient id="a" y2="2.5" gradientUnits="userSpaceOnUse" x2="6" y1="11" x1="10">
<stop stop-color="#c00" stop-opacity="0" offset="0"/>
<stop stop-color="#f36161" offset=".5"/>
<stop stop-color="#fff" offset="1"/>
</linearGradient>
</defs>
<metadata>
<rdf:RDF>
<cc:Work rdf:about="">
<dc:format>image/svg+xml</dc:format>
<dc:type rdf:resource="http://purl.org/dc/dcmitype/StillImage"/>
<dc:title/>
<cc:license rdf:resource="http://creativecommons.org/publicdomain/zero/1.0/"/>
<dc:creator>
<cc:Agent>
<dc:title>Geert Bergman, geert@www.scrivo.org</dc:title>
</cc:Agent>
</dc:creator>
</cc:Work>
</rdf:RDF>
</metadata>
<g>
<path d="m15.5 8a7.5 7.5 0 1 1 -15 0 7.5 7.5 0 1 1 15 0z" fill-rule="evenodd" transform="matrix(.667 0 0 .667 2.67 2.67)" fill="url(#c)"/>
<g fill="none">
<path d="m15.5 8a7.5 7.5 0 1 1 -15 0 7.5 7.5 0 1 1 15 0z" transform="matrix(.667 0 0 .667 2.67 2.67)" stroke="url(#b)" stroke-width="1.5px"/>
<path opacity=".798" d="m14 8a6 6 0 1 1 -12 0 6 6 0 1 1 12 0z" transform="matrix(.636 0 0 .636 2.92 2.92)" filter="url(#d)" stroke="url(#a)" stroke-width=".944"/>
<path stroke-linejoin="round" d="m4.5 8 3.5 3.5v-2.5h3v-2h-3v-2.56z" stroke-opacity=".229" stroke="#000" stroke-width="1.3"/>
</g>
<path d="m5.25 8 2.25 2.25v-1.75h3v-1h-3v-1.75z" stroke="#fff" fill="#fff"/>
</g>
</svg>
