<?xml version="1.0" encoding="UTF-8" standalone="no"?>
<svg xmlns:rdf="http://www.w3.org/1999/02/22-rdf-syntax-ns#" xmlns="http://www.w3.org/2000/svg" height="16px" width="16px" version="1.1" xmlns:cc="http://creativecommons.org/ns#" xmlns:dc="http://purl.org/dc/elements/1.1/" enable-background="new">
<defs>
<filter id="d" y="-.116" width="1.23" height="1.23" x="-.116">
<feGaussianBlur stdDeviation="0.5814978"/>
</filter>
<linearGradient id="c" y2="1.5" gradientUnits="userSpaceOnUse" x2="5" y1="14" x1="11">
<stop stop-color="#265290" offset="0"/>
<stop stop-color="#a4c1e0" offset="1"/>
</linearGradient>
<linearGradient id="b" y2="1" gradientUnits="userSpaceOnUse" x2="5" y1="15" x1="11">
<stop stop-color="#193b6c" offset="0"/>
<stop stop-color="#285492" offset="1"/>
</linearGradient>
<linearGradient id="a" y2="2.5" gradientUnits="userSpaceOnUse" x2="6" y1="11" x1="10">
<stop stop-color="#204a87" stop-opacity="0" offset="0"/>
<stop stop-color="#729fcf" offset=".5"/>
<stop stop-color="#fff" offset="1"/>
</linearGradient>
</defs>
<metadata>
<rdf:RDF>
<cc:Work rdf:about="">
<dc:format>image/svg+xml</dc:format>
<dc:type rdf:resource="http://purl.org/dc/dcmitype/StillImage"/>
<dc:title/>
<cc:license rdf:resource="http://creativecommons.org/publicdomain/zero/1.0/"/>
<dc:creator>
<cc:Agent>
<dc:title>Geert Bergman, geert@www.scrivo.org</dc:title>
</cc:Agent>
</dc:creator>
</cc:Work>
</rdf:RDF>
</metadata>
<path d="m15.5 8a7.5 7.5 0 1 1 -15 0 7.5 7.5 0 1 1 15 0z" fill-rule="evenodd" transform="matrix(.667 0 0 .667 2.67 2.67)" fill="url(#c)"/>
<g fill="none">
<path stroke="url(#b)" stroke-width="1.5px" d="m15.5 8a7.5 7.5 0 1 1 -15 0 7.5 7.5 0 1 1 15 0z" transform="matrix(.667 0 0 .667 2.67 2.67)"/>
<path opacity=".798" d="m14 8a6 6 0 1 1 -12 0 6 6 0 1 1 12 0z" transform="matrix(.636 0 0 .636 2.92 2.92)" filter="url(#d)" stroke="url(#a)" stroke-width=".944"/>
<path stroke-linejoin="round" d="m7.25 10.8v-0.5h1.5v0.5zm0-2-0.01-3.49 1.51-0.01v3.5z" stroke-opacity=".229" stroke="#000" stroke-width="2"/>
</g>
<path stroke-linejoin="round" d="m8.5 8.5v-3h-1v3z" stroke="#fff" stroke-width="1px" fill="#fff"/>
<path stroke-linejoin="round" d="m8.5 10.5h-1c0.345 0 1 0.000001 1 0z" stroke="#fff" stroke-width="1.4" fill="#fff"/>
</svg>
