<?xml version="1.0" encoding="UTF-8" standalone="no"?>
<svg xmlns:rdf="http://www.w3.org/1999/02/22-rdf-syntax-ns#" xmlns="http://www.w3.org/2000/svg" height="16px" width="16px" version="1.1" xmlns:cc="http://creativecommons.org/ns#" xmlns:xlink="http://www.w3.org/1999/xlink" enable-background="new" xmlns:dc="http://purl.org/dc/elements/1.1/">
<defs>
<filter id="f" y="-.116" width="1.23" x="-.116" height="1.23">
<feGaussianBlur stdDeviation="0.5814978"/>
</filter>
<linearGradient id="g" y2="1.5" gradientUnits="userSpaceOnUse" y1="14" x2="5" x1="11">
<stop stop-color="#4e9a06" offset="0"/>
<stop stop-color="#b8ee83" offset="1"/>
</linearGradient>
<linearGradient id="h" y2="1" gradientUnits="userSpaceOnUse" y1="15" x2="5" x1="11">
<stop stop-color="#3d7804" offset="0"/>
<stop stop-color="#52a108" offset="1"/>
</linearGradient>
<linearGradient id="i" y2="2.5" gradientUnits="userSpaceOnUse" y1="11" x2="6" x1="10">
<stop stop-color="#488e05" stop-opacity="0" offset="0"/>
<stop stop-color="#9ee757" offset=".5"/>
<stop stop-color="#fff" offset="1"/>
</linearGradient>
<linearGradient id="e" y2="11.7" gradientUnits="userSpaceOnUse" x2="8.12" y1="4.47" x1="7.73">
<stop stop-opacity=".416" offset="0"/>
<stop stop-opacity=".227" offset="1"/>
</linearGradient>
</defs>
<metadata>
<rdf:RDF>
<cc:Work rdf:about="">
<dc:format>image/svg+xml</dc:format>
<dc:type rdf:resource="http://purl.org/dc/dcmitype/StillImage"/>
<dc:title/>
<cc:license rdf:resource="http://creativecommons.org/publicdomain/zero/1.0/"/>
<dc:creator>
<cc:Agent>
<dc:title>Geert Bergman, geert@www.scrivo.org</dc:title>
</cc:Agent>
</dc:creator>
</cc:Work>
</rdf:RDF>
</metadata>
<path transform="matrix(.667 0 0 .667 2.67 2.67)" fill="url(#g)" d="m15.5 8a7.5 7.5 0 1 1 -15 0 7.5 7.5 0 1 1 15 0z" fill-rule="evenodd"/>
<g fill="none">
<path stroke="url(#h)" stroke-width="1.5px" d="m15.5 8a7.5 7.5 0 1 1 -15 0 7.5 7.5 0 1 1 15 0z" transform="matrix(.667 0 0 .667 2.67 2.67)"/>
<path opacity=".798" d="m14 8a6 6 0 1 1 -12 0 6 6 0 1 1 12 0z" transform="matrix(.636 0 0 .636 2.92 2.92)" filter="url(#f)" stroke="url(#i)" stroke-width=".944"/>
<path stroke-linejoin="round" d="m7.24 5.25 0.01 0.5h1.5l-0.01-0.5zm0.01 2v3.5h1.5v-3.5z" stroke="url(#e)" stroke-width="2"/>
</g>
<path stroke-linejoin="round" d="m8.5 7.5v3h-1v-3z" stroke="#fff" stroke-width="1px" fill="#fff"/>
<path stroke-linejoin="round" d="m8.5 5.5h-1c0.345 0 1-5e-7 1 0z" stroke="#fff" stroke-width="1.4" fill="#fff"/>
</svg>
