<?xml version="1.0" encoding="UTF-8" standalone="no"?>
<svg xmlns:rdf="http://www.w3.org/1999/02/22-rdf-syntax-ns#" xmlns="http://www.w3.org/2000/svg" height="16px" width="16px" version="1.1" xmlns:cc="http://creativecommons.org/ns#" xmlns:dc="http://purl.org/dc/elements/1.1/" enable-background="new">
<defs>
<linearGradient id="f" y2="1.5" gradientUnits="userSpaceOnUse" y1="14" x2="5" x1="11">
<stop stop-color="#235295" offset="0"/>
<stop stop-color="#a4c1e1" offset="1"/>
</linearGradient>
<linearGradient id="g" y2="1" gradientUnits="userSpaceOnUse" y1="15" x2="5" x1="11">
<stop stop-color="#193b6c" offset="0"/>
<stop stop-color="#245498" offset="1"/>
</linearGradient>
<linearGradient id="h" y2="2.5" gradientUnits="userSpaceOnUse" y1="11" x2="6" x1="10">
<stop stop-color="#204a87" stop-opacity="0" offset="0"/>
<stop stop-color="#729fcf" offset=".5"/>
<stop stop-color="#fff" offset="1"/>
</linearGradient>
<filter id="e" y="-.116" width="1.23" x="-.116" height="1.23">
<feGaussianBlur stdDeviation="0.5814978"/>
</filter>
</defs>
<metadata>
<rdf:RDF>
<cc:Work rdf:about="">
<dc:format>image/svg+xml</dc:format>
<dc:type rdf:resource="http://purl.org/dc/dcmitype/StillImage"/>
<dc:title/>
<cc:license rdf:resource="http://creativecommons.org/publicdomain/zero/1.0/"/>
<dc:creator>
<cc:Agent>
<dc:title>Geert Bergman, geert@www.scrivo.org</dc:title>
</cc:Agent>
</dc:creator>
</cc:Work>
</rdf:RDF>
</metadata>
<path fill="url(#f)" d="m15.5 8a7.5 7.5 0 1 1 -15 0 7.5 7.5 0 1 1 15 0z" fill-rule="evenodd"/>
<g fill="none">
<path stroke="url(#g)" stroke-width="1px" d="m15.5 8a7.5 7.5 0 1 1 -15 0 7.5 7.5 0 1 1 15 0z"/>
<path opacity=".798" d="m14 8a6 6 0 1 1 -12 0 6 6 0 1 1 12 0z" filter="url(#e)" stroke="url(#h)" stroke-width=".8"/>
<path stroke-linejoin="round" d="m7.25 11.8v-1.5h1.5v1.5zm0-3v-4.5l1.51-0.05-0.01 4.51z" stroke-opacity=".229" stroke="#000" stroke-width="2.5"/>
</g>
<path stroke-linejoin="round" d="m8.5 8.51v-4h-1v4h1z" stroke="#fff" stroke-width="1px" fill="#fff"/>
<path stroke-linejoin="round" d="m8.5 11.5v-1h-1v1c0.345 0 1 0.000001 1 0z" stroke="#fff" stroke-width="1.4" fill="#fff"/>
</svg>
