<?xml version="1.0" encoding="UTF-8" standalone="no"?>
<svg xmlns:rdf="http://www.w3.org/1999/02/22-rdf-syntax-ns#" xmlns="http://www.w3.org/2000/svg" height="16px" width="16px" version="1.1" xmlns:cc="http://creativecommons.org/ns#" xmlns:dc="http://purl.org/dc/elements/1.1/" enable-background="new">
<defs>
<linearGradient id="c" y2="1.5" gradientUnits="userSpaceOnUse" x2="5" y1="14" x1="11">
<stop stop-color="#643d6c" offset="0"/>
<stop stop-color="#c6a6c2" offset="1"/>
</linearGradient>
<linearGradient id="b" y2="1" gradientUnits="userSpaceOnUse" x2="5" y1="15" x1="11">
<stop stop-color="#482950" offset="0"/>
<stop stop-color="#663f6e" offset="1"/>
</linearGradient>
<linearGradient id="a" y2="2.5" gradientUnits="userSpaceOnUse" x2="6" y1="11" x1="10">
<stop stop-color="#5c3566" stop-opacity="0" offset="0"/>
<stop stop-color="#ad7fa8" offset=".5"/>
<stop stop-color="#fff" offset="1"/>
</linearGradient>
<filter id="d" y="-.116" width="1.23" height="1.23" x="-.116">
<feGaussianBlur stdDeviation="0.5814978"/>
</filter>
</defs>
<metadata>
<rdf:RDF>
<cc:Work rdf:about="">
<dc:format>image/svg+xml</dc:format>
<dc:type rdf:resource="http://purl.org/dc/dcmitype/StillImage"/>
<dc:title/>
<cc:license rdf:resource="http://creativecommons.org/publicdomain/zero/1.0/"/>
<dc:creator>
<cc:Agent>
<dc:title>Geert Bergman, geert@www.scrivo.org</dc:title>
</cc:Agent>
</dc:creator>
</cc:Work>
</rdf:RDF>
</metadata>
<path fill-rule="evenodd" d="m15.5 8a7.5 7.5 0 1 1 -15 0 7.5 7.5 0 1 1 15 0z" fill="url(#c)"/>
<g fill="none">
<path stroke="url(#b)" stroke-width="1px" d="m15.5 8a7.5 7.5 0 1 1 -15 0 7.5 7.5 0 1 1 15 0z"/>
<path opacity=".798" d="m14 8a6 6 0 1 1 -12 0 6 6 0 1 1 12 0z" filter="url(#d)" stroke="url(#a)" stroke-width=".8"/>
</g>
<g stroke-linejoin="round" transform="matrix(1 0 0 -1 0 16)">
<path stroke="#000" stroke-width="2.5" d="m7.25 11.8v-1.5h1.5v1.5zm0-3v-4.5l1.51-0.05-0.01 4.51z" stroke-opacity=".229"/>
<path stroke="#fff" stroke-width="1px" d="m8.5 8.51v-4h-1v4h1z" fill="#fff"/>
<path d="m8.5 11.5v-1h-1v1c0.345 0 1 0.000001 1 0z" stroke="#fff" stroke-width="1.4" fill="#fff"/>
</g>
</svg>
