<?xml version="1.0" encoding="UTF-8" standalone="no"?>
<svg xmlns:rdf="http://www.w3.org/1999/02/22-rdf-syntax-ns#" xmlns="http://www.w3.org/2000/svg" height="16px" width="16px" version="1.1" enable-background="new" xmlns:cc="http://creativecommons.org/ns#" xmlns:xlink="http://www.w3.org/1999/xlink" xmlns:dc="http://purl.org/dc/elements/1.1/">
<defs>
<linearGradient id="b" y2="2" gradientUnits="userSpaceOnUse" x2="7.5" y1="14" x1="8.5">
<stop stop-color="#3f4046" stop-opacity=".941" offset="0"/>
<stop stop-color="#7b7d77" offset="1"/>
</linearGradient>
<linearGradient id="a" y2="13" gradientUnits="userSpaceOnUse" x2="8.5" y1="3" x1="7.5">
<stop stop-color="#fff" offset="0"/>
<stop stop-color="#eeeeec" offset="1"/>
</linearGradient>
<linearGradient id="c" y2="1" gradientUnits="userSpaceOnUse" y1="5.11" gradientTransform="matrix(1.9 0 0 1.9 2.52 2.28)" x2="2.5" x1="2.88">
<stop stop-color="#193b6c" offset="0"/>
<stop stop-color="#3162a2" offset="1"/>
</linearGradient>
</defs>
<metadata>
<rdf:RDF>
<cc:Work rdf:about="">
<dc:format>image/svg+xml</dc:format>
<dc:type rdf:resource="http://purl.org/dc/dcmitype/StillImage"/>
<dc:title/>
<cc:license rdf:resource="http://creativecommons.org/publicdomain/zero/1.0/"/>
<dc:creator>
<cc:Agent>
<dc:title>Geert Bergman, geert@www.scrivo.org</dc:title>
</cc:Agent>
</dc:creator>
</cc:Work>
</rdf:RDF>
</metadata>
<g>
<rect stroke-linejoin="round" rx=".5" ry=".5" height="11" width="11" stroke="url(#b)" stroke-linecap="round" y="2.5" x="2.5" fill="url(#a)"/>
<path d="m6.71 11.8c-0.15-0.2-0.84-1.3-1.52-2.58-1.37-2.47-1.47-2.81-0.97-3.31 0.58-0.58 0.97-0.36 2.43 1.38 0.308 0.367 0.623 0.668 0.7 0.668 0.0775 0 0.789-0.735 1.58-1.63 2.06-2.33 2.54-2.71 3.12-2.45 0.292 0.133 0.343 0.486 0.147 1-0.2 0.38-3.93 6.52-4.19 6.82-0.1 0.1-0.38 0.2-0.61 0.3-0.35 0-0.47 0-0.69-0.2z" fill="url(#c)"/>
</g>
</svg>
