<?xml version="1.0" encoding="UTF-8" standalone="no"?>
<svg xmlns:rdf="http://www.w3.org/1999/02/22-rdf-syntax-ns#" xmlns="http://www.w3.org/2000/svg" height="16px" width="16px" version="1.1" xmlns:cc="http://creativecommons.org/ns#" xmlns:xlink="http://www.w3.org/1999/xlink" enable-background="new" xmlns:dc="http://purl.org/dc/elements/1.1/">
<defs>
<linearGradient id="d" y2="2" gradientUnits="userSpaceOnUse" y1="14" x2="10.5" x1="11.5">
<stop stop-color="#193b6c" offset="0"/>
<stop stop-color="#3162a2" offset="1"/>
</linearGradient>
<linearGradient id="a" y2="1" gradientUnits="userSpaceOnUse" y1="15" x2="2.5" x1="3">
<stop stop-color="#3f4046" stop-opacity=".941" offset="0"/>
<stop stop-color="#7b7d77" offset="1"/>
</linearGradient>
<linearGradient id="c" y2="1" xlink:href="#a" gradientUnits="userSpaceOnUse" x2="2.5" y1="15" x1="3"/>
</defs>
<metadata>
<rdf:RDF>
<cc:Work rdf:about="">
<dc:format>image/svg+xml</dc:format>
<dc:type rdf:resource="http://purl.org/dc/dcmitype/StillImage"/>
<dc:title/>
<cc:license rdf:resource="http://creativecommons.org/publicdomain/zero/1.0/"/>
<dc:creator>
<cc:Agent>
<dc:title>Geert Bergman, geert@www.scrivo.org</dc:title>
</cc:Agent>
</dc:creator>
</cc:Work>
</rdf:RDF>
</metadata>
<g stroke-width="0" fill="url(#d)">
<rect ry=".5" height="2" width="8" y="2" x="7"/>
<rect rx=".5" ry=".5" height="2" width="8" y="6.99" x="7"/>
<rect rx=".5" ry=".5" height="2" width="8" y="12" x="7.02"/>
</g>
<g fill="url(#a)">
<path d="m2.2 4.99c-0.07-0.09-0.43-0.69-0.8-1.34-0.716-1.3-0.768-1.48-0.504-1.74 0.304-0.31 0.514-0.19 1.27 0.72 0.162 0.193 0.328 0.351 0.369 0.351 0.0408 0 0.415-0.387 0.832-0.859 1.08-1.23 1.34-1.43 1.64-1.29 0.153 0.0699 0.181 0.256 0.0774 0.528-0.0776 0.204-2.06 3.45-2.2 3.6-0.0558 0.06-0.201 0.125-0.323 0.145-0.185 0.03-0.246 0.0104-0.364-0.118z"/>
<path d="m2.2 9.99c-0.07-0.09-0.43-0.69-0.8-1.34-0.716-1.3-0.768-1.48-0.504-1.74 0.304-0.31 0.514-0.19 1.27 0.72 0.162 0.193 0.328 0.351 0.369 0.351 0.0408 0 0.415-0.387 0.832-0.859 1.08-1.23 1.34-1.43 1.64-1.29 0.153 0.0699 0.181 0.256 0.0774 0.528-0.0776 0.204-2.06 3.45-2.2 3.6-0.0558 0.06-0.201 0.125-0.323 0.145-0.185 0.03-0.246 0.0104-0.364-0.118z"/>
<path d="m2.2 15c-0.07-0.1-0.43-0.7-0.8-1.4-0.716-1.2-0.768-1.4-0.504-1.7 0.304-0.3 0.514-0.2 1.27 0.7 0.162 0.193 0.328 0.351 0.369 0.351 0.0408 0 0.415-0.387 0.832-0.859 1.08-1.23 1.34-1.43 1.64-1.29 0.153 0.0699 0.181 0.256 0.0774 0.528-0.0776 0.204-2.06 3.45-2.2 3.6-0.0558 0.06-0.201 0.125-0.323 0.145-0.185 0.03-0.246 0.0104-0.364-0.118z"/>
<path fill="url(#c)" d="m2.2 15c-0.47-0.8-0.92-1.6-1.34-2.4-0.37-0.4 0.22-1.2 0.65-0.7 0.413 0.248 0.667 1 1.11 0.979 0.706-0.651 1.23-1.5 2.02-2.06 0.759-0.275 0.468 0.717 0.158 1.01-0.63 1.1-1.24 2.1-1.92 3.1-0.16 0.2-0.61 0.2-0.68 0.1zm0-5c-0.51-0.85-1.05-1.69-1.42-2.61-0.2-0.59 0.66-0.85 0.91-0.3 0.37 0.28 0.75 1.29 1.18 0.58 0.6-0.6 1.08-1.33 1.77-1.82 0.76-0.27 0.47 0.72 0.16 1.02-0.63 1.04-1.24 2.08-1.92 3.09-0.18 0.14-0.54 0.24-0.68 0.04zm0-5c-0.51-0.85-1.05-1.69-1.42-2.61-0.2-0.59 0.66-0.85 0.91-0.3 0.37 0.28 0.75 1.29 1.18 0.58 0.6-0.6 1.08-1.33 1.77-1.82 0.76-0.271 0.47 0.72 0.16 1.02-0.63 1.04-1.24 2.08-1.92 3.09-0.18 0.16-0.54 0.23-0.68 0.04z"/>
</g>
</svg>
