<?xml version="1.0" encoding="UTF-8" standalone="no"?>
<svg xmlns:rdf="http://www.w3.org/1999/02/22-rdf-syntax-ns#" xmlns="http://www.w3.org/2000/svg" height="16px" width="16px" version="1.1" enable-background="new" xmlns:cc="http://creativecommons.org/ns#" xmlns:xlink="http://www.w3.org/1999/xlink" xmlns:dc="http://purl.org/dc/elements/1.1/">
<defs>
<linearGradient id="a" y2="1" gradientUnits="userSpaceOnUse" x2="2.5" gradientTransform="matrix(1.1 0 0 1.1 -.291 -.788)" y1="15" x1="3.5">
<stop stop-color="#3f4046" stop-opacity=".941" offset="0"/>
<stop stop-color="#7b7d77" offset="1"/>
</linearGradient>
<linearGradient id="b" y2="2" gradientUnits="userSpaceOnUse" x2="10.5" y1="14" x1="11.5">
<stop stop-color="#193b6c" offset="0"/>
<stop stop-color="#3162a2" offset="1"/>
</linearGradient>
</defs>
<metadata>
<rdf:RDF>
<cc:Work rdf:about="">
<dc:format>image/svg+xml</dc:format>
<dc:type rdf:resource="http://purl.org/dc/dcmitype/StillImage"/>
<dc:title/>
<cc:license rdf:resource="http://creativecommons.org/publicdomain/zero/1.0/"/>
<dc:creator>
<cc:Agent>
<dc:title>Geert Bergman, geert@www.scrivo.org</dc:title>
</cc:Agent>
</dc:creator>
</cc:Work>
</rdf:RDF>
</metadata>
<g stroke-width="0">
<path d="m5.2 8c0 1.22-0.982 2.2-2.19 2.2s-2.19-0.986-2.19-2.2c0-1.22 0.982-2.2 2.19-2.2s2.19 0.986 2.19 2.2zm-2.18 2.8c-1.22 0-2.22 1-2.22 2.22s1 2.22 2.22 2.22 2.22-1 2.22-2.22-1-2.22-2.22-2.22zm0 1.11c0.62 0 1.11 0.491 1.11 1.11 0 0.62-0.491 1.11-1.11 1.11-0.62 0-1.11-0.491-1.11-1.11 0-0.62 0.491-1.11 1.11-1.11zm-0.01-11.1c-1.22 0-2.23 1-2.23 2.23 0 1.22 1 2.23 2.23 2.23 1.22 0 2.23-1 2.23-2.23 0-1.22-1-2.23-2.23-2.23zm0 1.11c0.621 0 1.11 0.492 1.11 1.11 0 0.621-0.492 1.11-1.11 1.11-0.621 0-1.11-0.492-1.11-1.11 0-0.621 0.492-1.11 1.11-1.11z" fill-rule="evenodd" fill="url(#a)"/>
<g fill="url(#b)">
<rect ry=".5" height="2" width="8" y="2" x="7"/>
<rect rx=".5" ry=".5" height="2" width="8" y="6.99" x="7"/>
<rect rx=".5" ry=".5" height="2" width="8" y="12" x="7.02"/>
</g>
</g>
</svg>
