<?xml version="1.0" encoding="UTF-8" standalone="no"?>
<svg xmlns:rdf="http://www.w3.org/1999/02/22-rdf-syntax-ns#" xmlns="http://www.w3.org/2000/svg" height="16px" width="16px" version="1.1" enable-background="new" xmlns:cc="http://creativecommons.org/ns#" xmlns:xlink="http://www.w3.org/1999/xlink" xmlns:dc="http://purl.org/dc/elements/1.1/">
<defs>
<linearGradient id="f" y2="1" gradientUnits="userSpaceOnUse" x2="7" y1="16" x1="8">
<stop stop-color="#3f4046" stop-opacity=".941" offset="0"/>
<stop stop-color="#7b7d77" offset="1"/>
</linearGradient>
<linearGradient id="e" y2="16" gradientUnits="userSpaceOnUse" x2="8" y1="1.63" x1="6.07">
<stop stop-opacity="0" offset="0"/>
<stop stop-opacity="0" offset="1"/>
</linearGradient>
<linearGradient id="d" y2="15.5" gradientUnits="userSpaceOnUse" x2="7" y1="1.5" x1="6">
<stop stop-color="#fff" offset="0"/>
<stop stop-color="#eeeeec" offset="1"/>
</linearGradient>
<linearGradient id="c" y2="15.5" gradientUnits="userSpaceOnUse" x2="14.5" gradientTransform="matrix(1 0 0 2.33 0 -11.3)" y1="5.5" x1="14">
<stop stop-color="#b5b8b1" offset="0"/>
<stop stop-color="#989d92" offset="1"/>
</linearGradient>
<linearGradient id="b" y2="8.5" gradientUnits="userSpaceOnUse" x2="13.5" y1="12.5" x1="14">
<stop stop-color="#c0c5bb" offset="0"/>
<stop stop-color="#dcdfd9" offset="1"/>
</linearGradient>
<linearGradient id="a" y2="3" gradientUnits="userSpaceOnUse" x2="6" y1="14" x1="6.5">
<stop stop-color="#193b6c" offset="0"/>
<stop stop-color="#3162a2" offset="1"/>
</linearGradient>
</defs>
<metadata>
<rdf:RDF>
<cc:Work rdf:about="">
<dc:format>image/svg+xml</dc:format>
<dc:type rdf:resource="http://purl.org/dc/dcmitype/StillImage"/>
<dc:title/>
<cc:license rdf:resource="http://creativecommons.org/publicdomain/zero/1.0/"/>
<dc:creator>
<cc:Agent>
<dc:title>Geert Bergman, geert@www.scrivo.org</dc:title>
</cc:Agent>
</dc:creator>
</cc:Work>
</rdf:RDF>
</metadata>
<g>
<g>
<rect height="4" width="3" y="8.5" x="12.5" fill="url(#b)"/>
<path fill="url(#d)" d="m2.5 5.5h10v10h-10zm-2-4h12v4h-12z"/>
<path fill="url(#c)" d="m12.5 1.52h3v6.98h-3zm0 11h3v3h-3z"/>
</g>
<rect ry=".5" height="4" width="12" y="1.5" x=".5" fill="none"/>
<rect ry=".5" height="10" width="10" y="5.5" x="2.5" fill="none"/>
<path d="m13 12.5h2m-2-4h2m-2.5-6.5v13m-11.5-13.5h14c0.277 0 0.5 0.223 0.5 0.5v3c0 0.277-0.223 0.5-0.5 0.5h-14c-0.277 0-0.5-0.22-0.5-0.5v-3c0-0.28 0.223-0.5 0.5-0.5zm2 0h12c0.277 0 0.5 0.223 0.5 0.5v13c0 0.277-0.223 0.5-0.5 0.5h-12c-0.28 0-0.5-0.2-0.5-0.5v-9.5" stroke="url(#f)" stroke-width="1px" fill="url(#e)"/>
<path d="m4 13.5h6m-6-2h7m-7-2h6m-6-2h7m-9-4h9" stroke="url(#a)" stroke-width="1px" fill="none"/>
</g>
</svg>
