<?xml version="1.0" encoding="UTF-8" standalone="no"?>
<svg xmlns:rdf="http://www.w3.org/1999/02/22-rdf-syntax-ns#" xmlns="http://www.w3.org/2000/svg" height="16px" width="16px" version="1.1" enable-background="new" xmlns:cc="http://creativecommons.org/ns#" xmlns:xlink="http://www.w3.org/1999/xlink" xmlns:dc="http://purl.org/dc/elements/1.1/">
<defs>
<linearGradient id="e" y2="1.5" gradientUnits="userSpaceOnUse" x2="7" y1="14.5" x1="8">
<stop stop-color="#3f4046" stop-opacity=".941" offset="0"/>
<stop stop-color="#7b7d77" offset="1"/>
</linearGradient>
<linearGradient id="d" y2="11.5" gradientUnits="userSpaceOnUse" x2="7" y1="1.5" x1="6">
<stop stop-color="#fff" offset="0"/>
<stop stop-color="#eeeeec" offset="1"/>
</linearGradient>
<linearGradient id="c" y2="14.5" gradientUnits="userSpaceOnUse" x2="7.5" y1="1.5" x1="7">
<stop stop-color="#b5b8b1" offset="0"/>
<stop stop-color="#989d92" offset="1"/>
</linearGradient>
<linearGradient id="b" y2="4.5" gradientUnits="userSpaceOnUse" x2="8" y1="14.5" x1="9">
<stop stop-color="#c0c5bb" offset="0"/>
<stop stop-color="#dcdfd9" offset="1"/>
</linearGradient>
<linearGradient id="a" y2="3" gradientUnits="userSpaceOnUse" x2="6" y1="10" x1="7">
<stop stop-color="#193b6c" offset="0"/>
<stop stop-color="#3162a2" offset="1"/>
</linearGradient>
</defs>
<metadata>
<rdf:RDF>
<cc:Work rdf:about="">
<dc:format>image/svg+xml</dc:format>
<dc:type rdf:resource="http://purl.org/dc/dcmitype/StillImage"/>
<dc:title/>
<cc:license rdf:resource="http://creativecommons.org/publicdomain/zero/1.0/"/>
<dc:creator>
<cc:Agent>
<dc:title>Geert Bergman, geert@www.scrivo.org</dc:title>
</cc:Agent>
</dc:creator>
</cc:Work>
</rdf:RDF>
</metadata>
<g>
<g>
<path fill="url(#b)" d="m12.5 4.5h3v4h-3zm0 7h3v3h-3zm-9 0h6v3h-6z"/>
<path fill="url(#c)" d="m12.5 1.5h3v3h-3zm0 7h3v3h-3zm-3 3h3v3h-3zm-9 0h3v3h-3z"/>
<rect height="10" width="12" y="1.5" x=".5" fill="url(#d)"/>
</g>
<path d="m3.5 14v-2m6 2v-2m3.5-3.5h2m-2-4h2m-2.5 9.5v-12m-11.5 9.5h14m-14-10h14c0.277 0 0.5 0.223 0.5 0.5v12c0 0.277-0.223 0.5-0.5 0.5h-14c-0.277 0-0.5-0.2-0.5-0.5v-12c0-0.28 0.223-0.5 0.5-0.5z" stroke="url(#e)" stroke-width="1px" fill="none"/>
<path d="m2 3.5h9m-9 6h8m-8-2h9m-9-2h8" stroke="url(#a)" stroke-width="1px" fill="none"/>
</g>
</svg>
