<?xml version="1.0" encoding="UTF-8" standalone="no"?>
<svg xmlns:rdf="http://www.w3.org/1999/02/22-rdf-syntax-ns#" xmlns="http://www.w3.org/2000/svg" height="16px" width="16px" version="1.1" enable-background="new" xmlns:cc="http://creativecommons.org/ns#" xmlns:xlink="http://www.w3.org/1999/xlink" xmlns:dc="http://purl.org/dc/elements/1.1/">
<defs>
<linearGradient id="a">
<stop stop-color="#3f4046" stop-opacity=".941" offset="0"/>
<stop stop-color="#7b7d77" offset="1"/>
</linearGradient>
<linearGradient id="e" y2="12" gradientUnits="userSpaceOnUse" x2="8.5" gradientTransform="translate(0 .987)" y1="3" x1="7.5">
<stop stop-color="#fff" offset="0"/>
<stop stop-color="#eeeeec" offset="1"/>
</linearGradient>
<linearGradient id="d" y2="2" xlink:href="#a" gradientUnits="userSpaceOnUse" x2="7.5" gradientTransform="translate(0 .987)" y1="13" x1="8.5"/>
<linearGradient id="c" y2="4.5" gradientUnits="userSpaceOnUse" x2="6.5" gradientTransform="matrix(1 0 0 1.04 0 .516)" y1="11" x1="7">
<stop stop-color="#193b6c" offset="0"/>
<stop stop-color="#3162a2" offset="1"/>
</linearGradient>
<linearGradient id="b" y2="3.51" xlink:href="#a" gradientUnits="userSpaceOnUse" x2="12.5" gradientTransform="translate(0 .987)" y1="4.01" x1="12.5"/>
</defs>
<metadata>
<rdf:RDF>
<cc:Work rdf:about="">
<dc:format>image/svg+xml</dc:format>
<dc:type rdf:resource="http://purl.org/dc/dcmitype/StillImage"/>
<dc:title/>
<cc:license rdf:resource="http://creativecommons.org/publicdomain/zero/1.0/"/>
<dc:creator>
<cc:Agent>
<dc:title>Geert Bergman, geert@www.scrivo.org</dc:title>
</cc:Agent>
</dc:creator>
</cc:Work>
</rdf:RDF>
</metadata>
<g>
<rect stroke-linejoin="round" rx=".5" ry=".5" height="10" width="15" stroke="url(#d)" stroke-linecap="round" y="3.49" x=".5" fill="url(#e)"/>
<path d="m2.87 11.9c-0.83-0.2-1.19-1.2-0.76-2.1 0.34-0.7 0.97-0.93 2.05-0.93 0.67-0.01 0.73-0.08 0.62-0.46-0.14-0.5-0.96-0.56-1.69-0.38-0.22 0.06-0.41 0.08-0.42 0.06-0.08-0.14-0.22-0.77-0.18-0.81 0.0266-0.0278 0.234-0.0999 0.46-0.16 0.568-0.152 1.57-0.139 2.01 0.0636 0.779 0.36 0.921 0.508 0.982 2.36 0.0463 1.39-0.0171 1.75 0.186 2.06 0.116 0.175 0.116 0.177-0.0506 0.314-0.114 0.0933-0.26 0.138-0.454 0.138-0.251 0-0.316-0.0322-0.524-0.26-0.24-0.3-0.25-0.3-0.36-0.1-0.3 0.3-1.25 0.4-1.88 0.2zm1.54-1c0.23-0.1 0.38-0.5 0.38-0.9 0-0.27-0.02-0.32-0.15-0.36-0.4-0.11-1.12 0.03-1.38 0.28-0.348 0.327-0.301 0.921 0.0874 1.1 0.268 0.127 0.84 0.0791 1.06-0.0883zm2.54-2.26v-3.37l0.269-0.0729c0.14 0 0.36-0.06 0.48-0.1 0.12-0.03 0.25-0.06 0.27-0.06 0.0262-0.000205 0.0476 0.506 0.0476 1.13v1.13l0.206-0.117c0.156-0.0891 0.351-0.117 0.808-0.117 0.516 0 0.652 0.0245 0.951 0.172 0.442 0.217 0.834 0.627 1.06 1.11 0.163 0.345 0.176 0.434 0.173 1.13-0.0024 0.627-0.0277 0.826-0.145 1.13-0.2 0.525-0.567 0.934-1.07 1.19-0.389 0.2-0.472 0.217-1.03 0.217-0.5 0-0.653-0.0257-0.889-0.149l-0.285-0.149-0.116 0.166c-0.0967 0.138-0.169 0.166-0.428 0.166h-0.312zm2.31 2.36c0.52-0.2 0.74-0.6 0.84-1.32 0.1-0.88-0.26-1.49-0.89-1.67-0.32-0.09-0.83-0.04-1.04 0.1l-0.152 0.104 0.0172 1.3 0.0172 1.3 0.222 0.116c0.272 0.141 0.574 0.147 0.991 0.0178z" fill="url(#c)"/>
<path d="m12.5 5.49v6" stroke="url(#b)" stroke-linecap="round" stroke-width="1px" fill="none"/>
</g>
</svg>
