<?xml version="1.0" encoding="UTF-8" standalone="no"?>
<svg xmlns:rdf="http://www.w3.org/1999/02/22-rdf-syntax-ns#" xmlns="http://www.w3.org/2000/svg" height="16px" width="16px" version="1.1" enable-background="new" xmlns:cc="http://creativecommons.org/ns#" xmlns:xlink="http://www.w3.org/1999/xlink" xmlns:dc="http://purl.org/dc/elements/1.1/">
<defs>
<linearGradient id="a" y2="2" gradientUnits="userSpaceOnUse" x2="7" y1="14" x1="9">
<stop stop-color="#341e39" offset="0"/>
<stop stop-color="#643d6c" offset="1"/>
</linearGradient>
<linearGradient id="c" y2="2" gradientUnits="userSpaceOnUse" x2="7" gradientTransform="matrix(.909 0 0 .909 .727 .715)" y1="14" x1="9">
<stop stop-color="#916791" offset="0"/>
<stop stop-color="#c6a6c2" offset="1"/>
</linearGradient>
<linearGradient id="b" y2="3" gradientUnits="userSpaceOnUse" x2="7" gradientTransform="matrix(.909 0 0 .909 .727 .715)" y1="13" x1="9">
<stop stop-color="#75507b" offset="0"/>
<stop stop-color="#916791" offset="1"/>
</linearGradient>
</defs>
<metadata>
<rdf:RDF>
<cc:Work rdf:about="">
<dc:format>image/svg+xml</dc:format>
<dc:type rdf:resource="http://purl.org/dc/dcmitype/StillImage"/>
<dc:title/>
<cc:license rdf:resource="http://creativecommons.org/publicdomain/zero/1.0/"/>
<dc:creator>
<cc:Agent>
<dc:title>Geert Bergman, geert@www.scrivo.org</dc:title>
</cc:Agent>
</dc:creator>
</cc:Work>
</rdf:RDF>
</metadata>
<g stroke-linejoin="round" stroke-width="1px">
<path d="m4.5 3-1.5 1.5 3.5 3.5-3.5 3.5 1.5 1.5 3.5-3.5 3.5 3.5 1.5-1.5-3.5-3.5 3.5-3.5-1.5-1.5-3.5 3.5z" stroke="url(#c)" fill="url(#b)"/>
<path d="m4.5 2.51-2 2 3.5 3.5-3.5 3.5 2 2 3.5-3.5 3.5 3.5 2-2-3.5-3.5 3.5-3.5-2-2-3.5 3.5-3.5-3.5z" stroke="url(#a)" fill="none"/>
</g>
</svg>
