<?xml version="1.0" encoding="UTF-8" standalone="no"?>
<svg xmlns:rdf="http://www.w3.org/1999/02/22-rdf-syntax-ns#" xmlns="http://www.w3.org/2000/svg" height="16px" width="16px" version="1.1" enable-background="new" xmlns:cc="http://creativecommons.org/ns#" xmlns:xlink="http://www.w3.org/1999/xlink" xmlns:dc="http://purl.org/dc/elements/1.1/">
<defs>
<linearGradient id="c" y2="3" gradientUnits="userSpaceOnUse" x2="7" gradientTransform="matrix(.979 0 0 1.03 .438 -.270)" y1="13" x1="9">
<stop stop-color="#3465a4" offset="0"/>
<stop stop-color="#5382b9" offset="1"/>
</linearGradient>
<linearGradient id="b" y2="2" gradientUnits="userSpaceOnUse" x2="7" gradientTransform="matrix(1.23 0 0 1.23 -1.86 -1.86)" y1="14" x1="9">
<stop stop-color="#132c50" offset="0"/>
<stop stop-color="#265290" offset="1"/>
</linearGradient>
<linearGradient id="a" y2="2" gradientUnits="userSpaceOnUse" x2="7" gradientTransform="matrix(.979 0 0 1.03 .438 -.270)" y1="14" x1="9">
<stop stop-color="#5382b9" offset="0"/>
<stop stop-color="#a4c1e0" offset="1"/>
</linearGradient>
</defs>
<metadata>
<rdf:RDF>
<cc:Work rdf:about="">
<dc:format>image/svg+xml</dc:format>
<dc:type rdf:resource="http://purl.org/dc/dcmitype/StillImage"/>
<dc:title/>
<cc:license rdf:resource="http://creativecommons.org/publicdomain/zero/1.0/"/>
<dc:creator>
<cc:Agent>
<dc:title>Geert Bergman, geert@www.scrivo.org</dc:title>
</cc:Agent>
</dc:creator>
</cc:Work>
</rdf:RDF>
</metadata>
<g>
<path d="m4 1.5-2.5 2.5l4 4-4 4 2.5 2.5 4-4 4 4 2.5-2.5-4-4 4-4-2.5-2.5-4 4z" stroke="url(#a)" fill="url(#c)"/>
<path stroke-linejoin="round" d="m4 0.5-3.5 3.5l4 4-4 4 3.5 3.5 4-4 4 4 3.5-3.5-4-4 4-4-3.5-3.5-4 4z" stroke="url(#b)" stroke-width="1px" fill="none"/>
</g>
</svg>
