<?xml version="1.0" encoding="UTF-8" standalone="no"?>
<svg xmlns:rdf="http://www.w3.org/1999/02/22-rdf-syntax-ns#" xmlns="http://www.w3.org/2000/svg" height="16px" width="16px" version="1.1" enable-background="new" xmlns:cc="http://creativecommons.org/ns#" xmlns:xlink="http://www.w3.org/1999/xlink" xmlns:dc="http://purl.org/dc/elements/1.1/">
<defs>
<linearGradient id="c" y2=".0262" gradientUnits="userSpaceOnUse" y1="16.2" gradientTransform="matrix(.786 0 0 .735 1.33 2.1)" x2="6.98" x1="8.92">
<stop stop-color="#f57900" offset="0"/>
<stop stop-color="#f8941f" offset="1"/>
</linearGradient>
<linearGradient id="b" y2=".0262" gradientUnits="userSpaceOnUse" y1="16.2" gradientTransform="matrix(.786 0 0 .735 1.33 2.1)" x2="6.98" x1="8.92">
<stop stop-color="#8a3d00" offset="0"/>
<stop stop-color="#da6500" offset="1"/>
</linearGradient>
<linearGradient id="a" y2=".0262" gradientUnits="userSpaceOnUse" x2="6.98" gradientTransform="matrix(.786 0 0 .735 1.33 2.1)" y1="16.2" x1="8.92">
<stop stop-color="#f8941f" offset="0"/>
<stop stop-color="#fdc574" offset="1"/>
</linearGradient>
</defs>
<metadata>
<rdf:RDF>
<cc:Work rdf:about="">
<dc:format>image/svg+xml</dc:format>
<dc:type rdf:resource="http://purl.org/dc/dcmitype/StillImage"/>
<dc:title/>
<cc:license rdf:resource="http://creativecommons.org/publicdomain/zero/1.0/"/>
<dc:creator>
<cc:Agent>
<dc:title>Geert Bergman, geert@www.scrivo.org</dc:title>
</cc:Agent>
</dc:creator>
</cc:Work>
</rdf:RDF>
</metadata>
<g stroke-linejoin="round" stroke-width="1px">
<path d="m4.04 8.32-0.855 0.695c-0.36 0.46-0.16 0.56 0.34 0.98l3.48 2.7c0.62 0.5 0.7 0.3 1-0.2l4.9-8.45-0.9-0.81c-0.67-0.576-0.663-0.132-0.844 0.138 0 0-3.07 5.29-3.22 5.51-0.43 0.63-1.42 0.93-1.95 0.38l-0.96-0.86c-0.64-0.46-0.4-0.37-0.99-0.09z" stroke="url(#a)" fill="url(#c)"/>
<path d="m3.68 7.98-0.966 0.855c-0.168 0.191-0.215 0.379-0.212 0.619 0.0027 0.24 0.211 0.504 0.334 0.603l3.97 3.12s0.358 0.335 0.8 0.315c0.442-0.0203 0.57-0.34 0.57-0.34l5.33-9.26-1.3-1.17c-0.3-0.22-0.4-0.31-0.7-0.3-0.267 0.0113-0.517 0.199-0.605 0.373 0 0-3.25 5.61-3.4 5.83-0.33 0.477-0.923 0.558-1.28 0.22l-0.97-0.91s-0.393-0.368-0.786-0.368-0.786 0.368-0.786 0.368z" stroke="url(#b)" fill="none"/>
</g>
</svg>
