<?xml version="1.0" encoding="UTF-8" standalone="no"?>
<svg xmlns:rdf="http://www.w3.org/1999/02/22-rdf-syntax-ns#" xmlns="http://www.w3.org/2000/svg" height="16px" width="16px" version="1.1" enable-background="new" xmlns:cc="http://creativecommons.org/ns#" xmlns:xlink="http://www.w3.org/1999/xlink" xmlns:dc="http://purl.org/dc/elements/1.1/">
<defs>
<linearGradient id="c" y2=".0262" gradientUnits="userSpaceOnUse" x2="6.98" y1="16.2" x1="8.92">
<stop stop-color="#866d00" offset="0"/>
<stop stop-color="#c4a000" offset="1"/>
</linearGradient>
<linearGradient id="b" y2=".0262" gradientUnits="userSpaceOnUse" x2="6.98" y1="16.2" x1="8.92">
<stop stop-color="#edd402" offset="0"/>
<stop stop-color="#f4df29" offset="1"/>
</linearGradient>
<linearGradient id="a" y2=".0262" gradientUnits="userSpaceOnUse" x2="6.98" y1="16.2" x1="8.92">
<stop stop-color="#f4df29" offset="0"/>
<stop stop-color="#fdf3a0" offset="1"/>
</linearGradient>
</defs>
<metadata>
<rdf:RDF>
<cc:Work rdf:about="">
<dc:format>image/svg+xml</dc:format>
<dc:type rdf:resource="http://purl.org/dc/dcmitype/StillImage"/>
<dc:title/>
<cc:license rdf:resource="http://creativecommons.org/publicdomain/zero/1.0/"/>
<dc:creator>
<cc:Agent>
<dc:title>Geert Bergman, geert@www.scrivo.org</dc:title>
</cc:Agent>
</dc:creator>
</cc:Work>
</rdf:RDF>
</metadata>
<g stroke-linejoin="round" stroke-width="1px">
<path d="m3.46 8.45-0.91 0.91c-0.59 0.64-0.56 0.64 0.15 1.24l4.43 3.73c0.835 0.697 1.02 0.336 1.32-0.0788l6.25-11.6-1.1-1.06c-0.756-0.802-0.885-0.101-1.15 0.372 0 0-3.89 7.15-4.08 7.46-0.45 0.63-1.56 1.13-2.37 0.43l-1.15-1.08c-0.72-0.67-0.81-0.82-1.39-0.27z" stroke="url(#a)" fill="url(#b)"/>
<path d="m2.99 8-1.23 1.16c-0.22 0.26-0.28 0.52-0.27 0.84 0.00345 0.327 0.268 0.685 0.426 0.82l5.06 4.25s0.455 0.456 1.02 0.428c0.563-0.0276 0.725-0.462 0.725-0.462l6.78-12.5-1.6-1.6c-0.4-0.287-0.6-0.415-0.9-0.4-0.339 0.0153-0.658 0.27-0.77 0.507l-4.32 7.93c-0.44 0.65-1.19 0.76-1.64 0.3l-1.28-1.24s-0.5-0.5-1-0.5-1 0.5-1 0.5z" stroke="url(#c)" fill="none"/>
</g>
</svg>
