<?xml version="1.0" encoding="UTF-8" standalone="no"?>
<svg xmlns:rdf="http://www.w3.org/1999/02/22-rdf-syntax-ns#" xmlns="http://www.w3.org/2000/svg" height="16px" width="16px" version="1.1" enable-background="new" xmlns:cc="http://creativecommons.org/ns#" xmlns:xlink="http://www.w3.org/1999/xlink" xmlns:dc="http://purl.org/dc/elements/1.1/">
<defs>
<linearGradient id="a">
<stop stop-color="#87add6" offset="0"/>
<stop stop-color="#729fcf" offset="1"/>
</linearGradient>
<linearGradient id="b">
<stop stop-color="#eeeeec" offset="0"/>
<stop stop-color="#dfdfdc" offset="1"/>
</linearGradient>
<linearGradient id="j" y2="15.5" gradientUnits="userSpaceOnUse" x2="9" y1=".5" x1="7">
<stop stop-color="#9fa19c" offset="0"/>
<stop stop-color="#666964" offset="1"/>
</linearGradient>
<linearGradient id="i" y2="15" xlink:href="#b" gradientUnits="userSpaceOnUse" x2="8.94" y1=".978" x1="7.06"/>
<linearGradient id="h" y2="9.5" gradientUnits="userSpaceOnUse" x2="10.5" y1="12.5" x1="11">
<stop stop-color="#5f0000" offset="0"/>
<stop stop-color="#a40000" offset="1"/>
</linearGradient>
<linearGradient id="g" y2="9.5" gradientUnits="userSpaceOnUse" x2="10.5" y1="12.5" x1="11">
<stop stop-color="#f14646" offset="0"/>
<stop stop-color="#f9a6a6" offset="1"/>
</linearGradient>
<linearGradient id="f" y2="4" gradientUnits="userSpaceOnUse" x2="7.5" x1="7">
<stop stop-color="#245498" offset="0"/>
<stop stop-color="#1c4179" offset="1"/>
</linearGradient>
<linearGradient id="e" y2="3.52" xlink:href="#a" gradientUnits="userSpaceOnUse" x2="7.5" y1=".5" x1="7"/>
<linearGradient id="d" y2="10.5" gradientUnits="userSpaceOnUse" x2="7" y1="2.5" x1="6">
<stop stop-color="#407e05" offset="0"/>
<stop stop-color="#274e03" offset="1"/>
</linearGradient>
<linearGradient id="c" y2="10.5" gradientUnits="userSpaceOnUse" x2="7" y1="2.5" x1="6">
<stop stop-color="#c2f095" offset="0"/>
<stop stop-color="#88e12f" offset="1"/>
</linearGradient>
<linearGradient id="l" y2="15.5" xlink:href="#a" gradientUnits="userSpaceOnUse" x2="9" y1=".5" x1="7.5"/>
<linearGradient id="k" y2="6.5" xlink:href="#b" gradientUnits="userSpaceOnUse" x2="11.6" y1="6.5" x1="1.45"/>
</defs>
<metadata>
<rdf:RDF>
<cc:Work rdf:about="">
<dc:format>image/svg+xml</dc:format>
<dc:type rdf:resource="http://purl.org/dc/dcmitype/StillImage"/>
<dc:title/>
<cc:license rdf:resource="http://creativecommons.org/publicdomain/zero/1.0/"/>
<dc:creator>
<cc:Agent>
<dc:title>Geert Bergman, geert@www.scrivo.org</dc:title>
</cc:Agent>
</dc:creator>
</cc:Work>
</rdf:RDF>
</metadata>
<g>
<path d="m0.5 9.5h15v3h-15zm0-6h15v3h-15zm12-3h3v15h-3zm-3 0h3v15h-3zm-3 0h3v15h-3zm-3 0h3v15h-3zm-3 0h3v15h-3z" stroke="url(#j)" fill="url(#i)"/>
<g>
<rect rx="0" height="3" width="3" stroke="url(#h)" y="9.5" x="9.5" fill="url(#g)"/>
<rect height="3" width="15" stroke="url(#f)" y=".5" x=".5" fill="url(#e)"/>
<path d="m1.5 2 1.5-1.5v3z" stroke-width="0" fill="#fff"/>
<path d="m14.5 1.94-1.5-1.5v3z" stroke-width="0" fill="#fff"/>
</g>
<g stroke-width="0" fill="#3465a4">
<rect height="2" width="1" y="1" x="4"/>
<rect height="2" width="1" y="1" x="6.02"/>
<rect height="2" width="1" y="1" x="8"/>
</g>
<path stroke-linejoin="round" d="m10.5 4.5v6h-6l2-2-4-4 2-2 4 4z" stroke="url(#k)" stroke-width="2.1" fill="url(#l)"/>
<path stroke-linejoin="round" d="m10.5 4.5v6h-6l2-2-4-4 2-2 4 4z" stroke="url(#d)" stroke-width="1px" fill="url(#c)"/>
</g>
</svg>
