<?xml version="1.0" encoding="UTF-8" standalone="no"?>
<svg xmlns:rdf="http://www.w3.org/1999/02/22-rdf-syntax-ns#" xmlns="http://www.w3.org/2000/svg" height="16px" width="16px" version="1.1" enable-background="new" xmlns:cc="http://creativecommons.org/ns#" xmlns:xlink="http://www.w3.org/1999/xlink" xmlns:dc="http://purl.org/dc/elements/1.1/">
<defs>
<linearGradient id="c" y2="15.5" gradientUnits="userSpaceOnUse" x2="9.5" y1=".5" x1="6.5">
<stop stop-color="#1c4077" offset="0"/>
<stop stop-color="#102746" offset="1"/>
</linearGradient>
<linearGradient id="b" y2="1.5" gradientUnits="userSpaceOnUse" x2="6.5" y1="14" x1="10">
<stop stop-color="#fff" offset="0"/>
<stop stop-color="#729fcf" offset="1"/>
</linearGradient>
<radialGradient id="a" gradientUnits="userSpaceOnUse" cy="6.79" cx="6.42" gradientTransform="matrix(-.357 .929 -.933 -.359 14.6 .974)" r="7">
<stop stop-color="#fff" offset="0"/>
<stop stop-color="#e6e6e4" offset=".383"/>
<stop stop-color="#dfdfdc" offset="1"/>
</radialGradient>
</defs>
<metadata>
<rdf:RDF>
<cc:Work rdf:about="">
<dc:format>image/svg+xml</dc:format>
<dc:type rdf:resource="http://purl.org/dc/dcmitype/StillImage"/>
<dc:title/>
<cc:license rdf:resource="http://creativecommons.org/publicdomain/zero/1.0/"/>
<dc:creator>
<cc:Agent>
<dc:title>Geert Bergman, geert@www.scrivo.org</dc:title>
</cc:Agent>
</dc:creator>
</cc:Work>
</rdf:RDF>
</metadata>
<g>
<path d="m15.5 8a7.5 7.5 0 1 1 -15 0 7.5 7.5 0 1 1 15 0z" transform="matrix(.969 0 0 .969 .247 .247)" stroke="url(#c)" stroke-width="1.5" fill="none"/>
<path d="m14.5 8a6.5 6.5 0 1 1 -13 0 6.5 6.5 0 1 1 13 0z" fill-rule="evenodd" transform="matrix(.927 0 0 .930 .583 .548)" stroke="url(#b)" stroke-width="1.11" fill="url(#a)"/>
<g fill="#a40000">
<rect height="1" width="1" y="2.49" x="7.52"/>
<rect height="1" width="1" y="7.49" x="2.5"/>
<rect height="1" width="1" y="12.5" x="7.52"/>
</g>
<path d="m8.5 3.5a0.5 0.5 0 1 1 -1 0 0.5 0.5 0 1 1 1 0z" fill-rule="evenodd" transform="translate(4.4 2.02)" stroke-width="0" fill="#2e3436"/>
<rect height="1" width="1" y="7.49" x="12.5" fill="#a40000"/>
<path d="m8.5 3.5a0.5 0.5 0 1 1 -1 0 0.5 0.5 0 1 1 1 0z" fill-rule="evenodd" transform="translate(2.52 .127)" stroke-width="0" fill="#2e3436"/>
<path stroke-linejoin="round" d="m10.5 3.53-2.5 5-0.5-0.5z" stroke="#4c4c4c" stroke-width="1px" fill="#505050"/>
<g fill-rule="evenodd" stroke-width="0" fill="#2e3436">
<path d="m8.5 3.5a0.5 0.5 0 1 1 -1 0 0.5 0.5 0 1 1 1 0z" transform="matrix(-1 0 0 1 11.6 2.01)"/>
<path d="m8.5 3.5a0.5 0.5 0 1 1 -1 0 0.5 0.5 0 1 1 1 0z" transform="matrix(-1 0 0 1 13.5 .111)"/>
<path d="m8.5 3.5a0.5 0.5 0 1 1 -1 0 0.5 0.5 0 1 1 1 0z" transform="matrix(1 0 0 -1 4.33 14)"/>
<path d="m8.5 3.5a0.5 0.5 0 1 1 -1 0 0.5 0.5 0 1 1 1 0z" transform="matrix(1 0 0 -1 2.48 15.8)"/>
<path d="m8.5 3.5a0.5 0.5 0 1 1 -1 0 0.5 0.5 0 1 1 1 0z" transform="matrix(-1 0 0 -1 11.6 14)"/>
<path d="m8.5 3.5a0.5 0.5 0 1 1 -1 0 0.5 0.5 0 1 1 1 0z" transform="matrix(-1 0 0 -1 13.5 15.8)"/>
</g>
<path stroke-linejoin="round" d="m8.53 7.53-4-0.5 3.5 1.5 0.5-1z" stroke="#4c4c4c" stroke-width="1px" fill="#505050"/>
</g>
</svg>
