<?xml version="1.0" encoding="UTF-8" standalone="no"?>
<!-- Created with Inkscape (http://www.inkscape.org/) -->

<svg
   xmlns:osb="http://www.openswatchbook.org/uri/2009/osb"
   xmlns:dc="http://purl.org/dc/elements/1.1/"
   xmlns:cc="http://creativecommons.org/ns#"
   xmlns:rdf="http://www.w3.org/1999/02/22-rdf-syntax-ns#"
   xmlns:svg="http://www.w3.org/2000/svg"
   xmlns="http://www.w3.org/2000/svg"
   xmlns:xlink="http://www.w3.org/1999/xlink"
   xmlns:sodipodi="http://sodipodi.sourceforge.net/DTD/sodipodi-0.dtd"
   xmlns:inkscape="http://www.inkscape.org/namespaces/inkscape"
   width="16px"
   height="16px"
   id="svg3000"
   version="1.1"
   inkscape:version="0.48.4 r9939"
   sodipodi:docname="anchor.svg"
   enable-background="new"
   inkscape:export-filename="/home/www/scrivo/ScrivoIcons/link.png"
   inkscape:export-xdpi="90"
   inkscape:export-ydpi="90">
  <defs
     id="defs3002">
    <linearGradient
       id="linearGradient5193">
      <stop
         style="stop-color:#7b7d78;stop-opacity:1;"
         offset="0"
         id="stop5195" />
      <stop
         style="stop-color:#414340;stop-opacity:1;"
         offset="1"
         id="stop5197" />
    </linearGradient>
    <linearGradient
       id="linearGradient4855">
      <stop
         id="stop4857"
         offset="0"
         style="stop-color:#eff0ed;stop-opacity:1;" />
      <stop
         id="stop4861"
         offset="1"
         style="stop-color:#d2d4cf;stop-opacity:1;" />
    </linearGradient>
    <linearGradient
       id="linearGradient6156"
       osb:paint="gradient">
      <stop
         style="stop-color:#9e8000;stop-opacity:1;"
         offset="0"
         id="stop6158" />
      <stop
         style="stop-color:#dcc500;stop-opacity:1;"
         offset="1"
         id="stop6160" />
    </linearGradient>
    <linearGradient
       inkscape:collect="always"
       xlink:href="#linearGradient5193"
       id="linearGradient5343"
       gradientUnits="userSpaceOnUse"
       x1="6"
       y1="0"
       x2="10"
       y2="16" />
    <linearGradient
       inkscape:collect="always"
       xlink:href="#linearGradient4855"
       id="linearGradient5351"
       x1="6"
       y1="1"
       x2="10"
       y2="15"
       gradientUnits="userSpaceOnUse" />
    <linearGradient
       inkscape:collect="always"
       xlink:href="#linearGradient5193"
       id="linearGradient5441"
       x1="7"
       y1="5"
       x2="9"
       y2="12"
       gradientUnits="userSpaceOnUse" />
    <linearGradient
       inkscape:collect="always"
       xlink:href="#linearGradient4855"
       id="linearGradient5449"
       x1="7"
       y1="5.5"
       x2="9"
       y2="11.5"
       gradientUnits="userSpaceOnUse" />
    <linearGradient
       inkscape:collect="always"
       xlink:href="#linearGradient5193"
       id="linearGradient5461"
       x1="7.5"
       y1="7"
       x2="8.5"
       y2="10"
       gradientUnits="userSpaceOnUse" />
    <linearGradient
       inkscape:collect="always"
       xlink:href="#linearGradient4855"
       id="linearGradient5469"
       x1="7.5"
       y1="7.5"
       x2="8.5"
       y2="9.5"
       gradientUnits="userSpaceOnUse" />
    <linearGradient
       inkscape:collect="always"
       xlink:href="#linearGradient4855"
       id="linearGradient5717"
       gradientUnits="userSpaceOnUse"
       x1="7.5"
       y1="7.5"
       x2="8.5"
       y2="9.5"
       gradientTransform="matrix(0.80081214,0,0,1,3.0874118,2.032932)" />
    <linearGradient
       inkscape:collect="always"
       xlink:href="#linearGradient5193"
       id="linearGradient5719"
       gradientUnits="userSpaceOnUse"
       x1="7.5"
       y1="7"
       x2="8.5"
       y2="10"
       gradientTransform="matrix(0.80081214,0,0,1,3.0874118,2.032932)" />
    <linearGradient
       inkscape:collect="always"
       xlink:href="#linearGradient4855"
       id="linearGradient5721"
       gradientUnits="userSpaceOnUse"
       x1="7"
       y1="5.5"
       x2="9"
       y2="11.5"
       gradientTransform="matrix(0.80081214,0,0,1,3.0874118,2.032932)" />
    <linearGradient
       inkscape:collect="always"
       xlink:href="#linearGradient5193"
       id="linearGradient5723"
       gradientUnits="userSpaceOnUse"
       x1="7"
       y1="5"
       x2="9"
       y2="12"
       gradientTransform="matrix(0.80081214,0,0,1,3.0874118,2.032932)" />
  </defs>
  <sodipodi:namedview
     id="base"
     pagecolor="#ffffff"
     bordercolor="#666666"
     borderopacity="1.0"
     inkscape:pageopacity="0.0"
     inkscape:pageshadow="2"
     inkscape:zoom="22.627417"
     inkscape:cx="5.1649988"
     inkscape:cy="3.9690653"
     inkscape:current-layer="layer5"
     showgrid="true"
     inkscape:grid-bbox="true"
     inkscape:document-units="px"
     inkscape:snap-grids="true"
     inkscape:window-width="1520"
     inkscape:window-height="901"
     inkscape:window-x="63"
     inkscape:window-y="39"
     inkscape:window-maximized="0"
     inkscape:snap-global="true"
     inkscape:snap-bbox="true">
    <inkscape:grid
       type="xygrid"
       id="grid3008"
       empspacing="4"
       visible="true"
       enabled="true"
       snapvisiblegridlinesonly="true"
       spacingx="0.5px"
       spacingy="0.5px" />
  </sodipodi:namedview>
  <metadata
     id="metadata3005">
    <rdf:RDF>
      <cc:Work
         rdf:about="">
        <dc:format>image/svg+xml</dc:format>
        <dc:type
           rdf:resource="http://purl.org/dc/dcmitype/StillImage" />
        <dc:title></dc:title>
        <cc:license
           rdf:resource="http://creativecommons.org/publicdomain/zero/1.0/" />
        <dc:creator>
          <cc:Agent>
            <dc:title>Geert Bergman, geert@www.scrivo.org</dc:title>
          </cc:Agent>
        </dc:creator>
      </cc:Work>
    </rdf:RDF>
  </metadata>
  <g
     inkscape:groupmode="layer"
     id="layer5"
     inkscape:label="anchor"
     style="display:none">
    <path
       style="fill:url(#linearGradient5351);fill-opacity:1;stroke:url(#linearGradient5343);stroke-width:1;stroke-linecap:butt;stroke-linejoin:round;stroke-miterlimit:4;stroke-opacity:1;stroke-dasharray:none"
       d="M 8.0000004,0.5 C 6.0670034,0.5 4.5,2.0670034 4.5,4 c 0,1.3994309 0.8130964,2.5962068 2.0000004,3.15625 l 0,5.65625 C 5.8628164,12.632453 5.2463324,12.327459 4.6875,11.90625 4.296911,11.611851 3.9555599,11.261838 3.65625,10.875 L 5,9.5 l -4.50000004,0 0,4.5 L 2,12.5 c 0.6402382,0.855472 1.4647461,1.578286 2.40625,2.09375 C 7.7186444,16.407253 11.796654,15.438099 14,12.5 l 1.5,1.5 0,-4.5 -4.5,0 1.375,1.375 c -0.751876,0.973131 -1.767433,1.598177 -2.8749996,1.90625 l 0,-5.625 C 10.686903,6.5962068 11.5,5.3994309 11.5,4 11.5,2.0670034 9.9329964,0.5 8.0000004,0.5 z m 0,2 c 0.828427,0 1.5,0.6715729 1.5,1.5 0,0.8284271 -0.671573,1.5 -1.5,1.5 -0.828427,0 -1.5,-0.6715729 -1.5,-1.5 0,-0.8284271 0.671573,-1.5 1.5,-1.5 z"
       id="rect5178"
       inkscape:connector-curvature="0" />
  </g>
  <g
     style="display:inline"
     inkscape:label="anchor corrected"
     id="g3067"
     inkscape:groupmode="layer">
    <path
       inkscape:connector-curvature="0"
       id="path3069"
       d="M 8.0000004,0.5 C 6.0670034,0.5 4.5,2.0670034 4.5,4 c 0,1.3994309 1.0005964,2.8618318 2.2656254,3.328125 l 0.03125,5.59375 C 5.8940664,12.679328 5.2463324,12.327459 4.6875,11.90625 4.296911,11.611851 3.9555599,11.261838 3.65625,10.875 L 5,9.5 l -4.50000004,0 0,4.5 L 2,12.5 c 0.6402382,0.855472 1.4647461,1.578286 2.40625,2.09375 C 7.7186444,16.407253 11.796654,15.438099 14,12.5 l 1.5,1.5 0,-4.5 -4.5,0 1.375,1.375 c -0.751876,0.973131 -1.986183,1.723177 -3.0937496,2.03125 L 9.2656254,7.296875 C 10.515028,6.8774568 11.5,5.3994309 11.5,4 11.5,2.0670034 9.9329964,0.5 8.0000004,0.5 z m 0,2 c 0.828427,0 1.5,0.6715729 1.5,1.5 0,0.8284271 -0.671573,1.5 -1.5,1.5 -0.828427,0 -1.5,-0.6715729 -1.5,-1.5 0,-0.8284271 0.671573,-1.5 1.5,-1.5 z"
       style="fill:url(#linearGradient5351);fill-opacity:1;stroke:url(#linearGradient5343);stroke-width:1;stroke-linecap:butt;stroke-linejoin:round;stroke-miterlimit:4;stroke-opacity:1;stroke-dasharray:none"
       sodipodi:nodetypes="ssccscccccscccccccsssssss" />
  </g>
</svg>
