<?xml version="1.0" encoding="UTF-8" standalone="no"?>
<!-- Created with Inkscape (http://www.inkscape.org/) -->

<svg
   xmlns:dc="http://purl.org/dc/elements/1.1/"
   xmlns:cc="http://creativecommons.org/ns#"
   xmlns:rdf="http://www.w3.org/1999/02/22-rdf-syntax-ns#"
   xmlns:svg="http://www.w3.org/2000/svg"
   xmlns="http://www.w3.org/2000/svg"
   xmlns:xlink="http://www.w3.org/1999/xlink"
   xmlns:sodipodi="http://sodipodi.sourceforge.net/DTD/sodipodi-0.dtd"
   xmlns:inkscape="http://www.inkscape.org/namespaces/inkscape"
   width="16px"
   height="16px"
   id="svg3000"
   version="1.1"
   inkscape:version="0.48.4 r9939"
   sodipodi:docname="arrows.svg"
   enable-background="new"
   inkscape:export-filename="/home/www/scrivo/ScrivoIcons/16/green_arrow_topleft_bottomright.png"
   inkscape:export-xdpi="90"
   inkscape:export-ydpi="90">
  <defs
     id="defs3002">
    <linearGradient
       id="linearGradient4062">
      <stop
         style="stop-color:#78d21e;stop-opacity:1;"
         offset="0"
         id="stop4064" />
      <stop
         style="stop-color:#c8f39d;stop-opacity:1;"
         offset="1"
         id="stop4066" />
    </linearGradient>
    <linearGradient
       id="linearGradient4052">
      <stop
         style="stop-color:#316004;stop-opacity:1;"
         offset="0"
         id="stop4054" />
      <stop
         style="stop-color:#4e9a06;stop-opacity:1;"
         offset="1"
         id="stop4056" />
    </linearGradient>
    <linearGradient
       inkscape:collect="always"
       xlink:href="#linearGradient4052"
       id="linearGradient4042"
       gradientUnits="userSpaceOnUse"
       x1="8.5"
       y1="13"
       x2="7.5"
       y2="3" />
    <linearGradient
       inkscape:collect="always"
       xlink:href="#linearGradient4062"
       id="linearGradient4076"
       x1="8.5"
       y1="12"
       x2="7.5"
       y2="4"
       gradientUnits="userSpaceOnUse" />
    <linearGradient
       gradientTransform="matrix(0,1,-1,0,16.01331,0.51451533)"
       y2="9.0133104"
       x2="1.4854847"
       y1="7.01331"
       x1="13.485485"
       gradientUnits="userSpaceOnUse"
       id="linearGradient5014"
       xlink:href="#linearGradient4062"
       inkscape:collect="always" />
    <linearGradient
       gradientTransform="matrix(0,1,-1,0,16.01331,0.51451533)"
       y2="9.0133104"
       x2="0.48548466"
       y1="7.01331"
       x1="14.31371"
       gradientUnits="userSpaceOnUse"
       id="linearGradient5016"
       xlink:href="#linearGradient4052"
       inkscape:collect="always" />
    <linearGradient
       gradientTransform="matrix(-1,0,0,-1,15.993147,16.005648)"
       y2="12.005648"
       x2="8.4931469"
       y1="4.0056481"
       x1="7.4931469"
       gradientUnits="userSpaceOnUse"
       id="linearGradient5087"
       xlink:href="#linearGradient4062"
       inkscape:collect="always" />
    <linearGradient
       gradientTransform="matrix(-1,0,0,-1,15.993147,16.005648)"
       y2="13.005648"
       x2="8.4931469"
       y1="3.0056479"
       x1="7.4931469"
       gradientUnits="userSpaceOnUse"
       id="linearGradient5089"
       xlink:href="#linearGradient4052"
       inkscape:collect="always" />
    <linearGradient
       y2="7.0020142"
       x2="14.018545"
       y1="9.0020142"
       x1="1.518545"
       gradientTransform="matrix(0,-1,1,0,-0.00201439,16.018545)"
       gradientUnits="userSpaceOnUse"
       id="linearGradient5139"
       xlink:href="#linearGradient4062"
       inkscape:collect="always" />
    <linearGradient
       y2="7.0020142"
       x2="15.018545"
       y1="9.0020142"
       x1="0.51854497"
       gradientTransform="matrix(0,-1,1,0,-0.00201439,16.018545)"
       gradientUnits="userSpaceOnUse"
       id="linearGradient5141"
       xlink:href="#linearGradient4052"
       inkscape:collect="always" />
    <linearGradient
       inkscape:collect="always"
       xlink:href="#linearGradient4052"
       id="linearGradient7467"
       x1="8.9779968"
       y1="14.025002"
       x2="7.0131187"
       y2="3.0988014"
       gradientUnits="userSpaceOnUse"
       gradientTransform="translate(-0.03185481,0)" />
    <linearGradient
       inkscape:collect="always"
       xlink:href="#linearGradient4062"
       id="linearGradient7475"
       x1="9.5195284"
       y1="14.980646"
       x2="7.0449734"
       y2="4.0544457"
       gradientUnits="userSpaceOnUse"
       gradientTransform="translate(-0.03185481,0)" />
    <linearGradient
       y2="4.0225911"
       x2="9.0836811"
       y1="13.069357"
       x1="6.9392891"
       gradientTransform="matrix(-1,0,0,1,16.054825,4.9415695e-7)"
       gradientUnits="userSpaceOnUse"
       id="linearGradient7509"
       xlink:href="#linearGradient4062"
       inkscape:collect="always" />
    <linearGradient
       y2="3.003237"
       x2="9.0836811"
       y1="14.025002"
       x1="7.0348535"
       gradientTransform="matrix(-1,0,0,1,16.054825,4.9415695e-7)"
       gradientUnits="userSpaceOnUse"
       id="linearGradient7511"
       xlink:href="#linearGradient4052"
       inkscape:collect="always" />
    <linearGradient
       inkscape:collect="always"
       xlink:href="#linearGradient4052"
       id="linearGradient8037"
       x1="9"
       y1="15.5"
       x2="7"
       y2="0.5"
       gradientUnits="userSpaceOnUse" />
    <linearGradient
       inkscape:collect="always"
       xlink:href="#linearGradient4062"
       id="linearGradient8045"
       x1="9"
       y1="14"
       x2="7"
       y2="2"
       gradientUnits="userSpaceOnUse" />
    <linearGradient
       inkscape:collect="always"
       xlink:href="#linearGradient4062"
       id="linearGradient8056"
       x1="9"
       y1="12"
       x2="7"
       y2="4"
       gradientUnits="userSpaceOnUse" />
    <linearGradient
       inkscape:collect="always"
       xlink:href="#linearGradient4052"
       id="linearGradient8064"
       x1="9"
       y1="13.5"
       x2="7"
       y2="2.5"
       gradientUnits="userSpaceOnUse" />
    <linearGradient
       inkscape:collect="always"
       xlink:href="#linearGradient4052"
       id="linearGradient10119"
       x1="9.0070419"
       y1="15.968146"
       x2="7.0477824"
       y2="-0.91490471"
       gradientUnits="userSpaceOnUse" />
    <linearGradient
       inkscape:collect="always"
       xlink:href="#linearGradient4052"
       id="linearGradient10130"
       x1="9"
       y1="15"
       x2="7"
       y2="1"
       gradientUnits="userSpaceOnUse" />
    <linearGradient
       inkscape:collect="always"
       xlink:href="#linearGradient4062"
       id="linearGradient10138"
       x1="9"
       y1="14"
       x2="7"
       y2="2"
       gradientUnits="userSpaceOnUse" />
    <linearGradient
       gradientTransform="matrix(-1,0,0,1,16.035471,0.01653005)"
       y2="0.98346996"
       x2="9.035471"
       y1="14.98347"
       x1="7.035471"
       gradientUnits="userSpaceOnUse"
       id="linearGradient10162"
       xlink:href="#linearGradient4052"
       inkscape:collect="always" />
    <linearGradient
       inkscape:collect="always"
       xlink:href="#linearGradient4062"
       id="linearGradient3813"
       x1="1.0114847"
       y1="8.0160589"
       x2="15.011485"
       y2="8.0160589"
       gradientUnits="userSpaceOnUse" />
    <linearGradient
       inkscape:collect="always"
       xlink:href="#linearGradient4062"
       id="linearGradient3948"
       x1="9"
       y1="13.5"
       x2="7"
       y2="2"
       gradientUnits="userSpaceOnUse" />
    <linearGradient
       inkscape:collect="always"
       xlink:href="#linearGradient4062"
       id="linearGradient3038"
       gradientUnits="userSpaceOnUse"
       x1="9"
       y1="15"
       x2="7"
       y2="0.5" />
  </defs>
  <sodipodi:namedview
     id="base"
     pagecolor="#ffffff"
     bordercolor="#666666"
     borderopacity="1.0"
     inkscape:pageopacity="0.0"
     inkscape:pageshadow="2"
     inkscape:zoom="31.392433"
     inkscape:cx="1.9139443"
     inkscape:cy="8.5370583"
     inkscape:current-layer="layer10"
     showgrid="true"
     inkscape:grid-bbox="true"
     inkscape:document-units="px"
     inkscape:snap-grids="true"
     inkscape:window-width="1248"
     inkscape:window-height="721"
     inkscape:window-x="169"
     inkscape:window-y="140"
     inkscape:window-maximized="0">
    <inkscape:grid
       type="xygrid"
       id="grid3008"
       empspacing="4"
       visible="true"
       enabled="true"
       snapvisiblegridlinesonly="true"
       spacingx="0.5px"
       spacingy="0.5px" />
  </sodipodi:namedview>
  <metadata
     id="metadata3005">
    <rdf:RDF>
      <cc:Work
         rdf:about="">
        <dc:format>image/svg+xml</dc:format>
        <dc:type
           rdf:resource="http://purl.org/dc/dcmitype/StillImage" />
        <dc:title />
        <cc:license
           rdf:resource="http://creativecommons.org/publicdomain/zero/1.0/" />
        <dc:creator>
          <cc:Agent>
            <dc:title>Geert Bergman, geert@www.scrivo.org</dc:title>
          </cc:Agent>
        </dc:creator>
      </cc:Work>
    </rdf:RDF>
  </metadata>
  <g
     inkscape:groupmode="layer"
     id="layer2"
     inkscape:label="arrow_left"
     style="display:none">
    <path
       style="fill:url(#linearGradient4076);fill-opacity:1;stroke:url(#linearGradient4042);stroke-width:1px;stroke-linecap:butt;stroke-linejoin:round;stroke-opacity:1"
       d="m 1,8 4.5,-4.5 0,3 9,0 0,3 -9,0 0,3 z"
       id="path3239"
       inkscape:connector-curvature="0"
       sodipodi:nodetypes="cccccccc"
       inkscape:export-filename="/home/www/scrivo/ScrivoIcons/16/yellow_arrow_left.png"
       inkscape:export-xdpi="90"
       inkscape:export-ydpi="90" />
  </g>
  <g
     inkscape:groupmode="layer"
     id="layer3"
     inkscape:label="arrow_up"
     style="display:none">
    <path
       style="fill:url(#linearGradient5014);fill-opacity:1;stroke:url(#linearGradient5016);stroke-width:1px;stroke-linecap:butt;stroke-linejoin:round;stroke-opacity:1;display:inline"
       d="m 8,1 4.5,4.5 -3,0 0,9 -3,0 0,-9 -3,0 z"
       id="path3239-1"
       inkscape:connector-curvature="0"
       sodipodi:nodetypes="cccccccc" />
  </g>
  <g
     inkscape:groupmode="layer"
     id="layer4"
     inkscape:label="arrow_right"
     style="display:none">
    <path
       style="fill:url(#linearGradient5087);fill-opacity:1;stroke:url(#linearGradient5089);stroke-width:1px;stroke-linecap:butt;stroke-linejoin:round;stroke-opacity:1;display:inline"
       d="m 15,8 -4.5,4.5 0,-3 -9,0 0,-3 9,0 0,-3 z"
       id="path3239-6"
       inkscape:connector-curvature="0"
       sodipodi:nodetypes="cccccccc" />
  </g>
  <g
     inkscape:groupmode="layer"
     id="layer5"
     inkscape:label="arrow_down"
     style="display:none">
    <path
       style="fill:url(#linearGradient5139);fill-opacity:1;stroke:url(#linearGradient5141);stroke-width:1px;stroke-linecap:butt;stroke-linejoin:round;stroke-opacity:1;display:inline"
       d="m 8,15 -4.5,-4.5 3,0 0,-9 3,0 0,9 3,0 z"
       id="path3239-6-8"
       inkscape:connector-curvature="0"
       sodipodi:nodetypes="cccccccc" />
  </g>
  <g
     inkscape:groupmode="layer"
     id="layer6"
     inkscape:label="arrow_clockwise"
     style="display:none">
    <path
       style="fill:url(#linearGradient7475);fill-opacity:1;stroke:url(#linearGradient7467);stroke-width:1px;stroke-linecap:butt;stroke-linejoin:round;stroke-opacity:1;display:inline"
       d="m 15.52803,12.514119 0,-8.9999995 -3,3 C 10.546381,4.5513058 9.2253344,3.5663584 6.9546424,3.5459743 4.3345884,3.6399625 3.0364494,4.5998335 1.5280294,6.5141195 0.65608438,7.9646239 0.43246438,8.9715132 0.55988438,10.622184 c 0.231478,1.694677 0.97146502,2.881976 0.96814502,2.891935 0.337253,-1.91728 0.750632,-3.084009 1.394758,-4.1399196 0.957423,-1.3088442 1.822695,-1.8600799 3.117743,-1.8600799 1.677164,0 2.495626,1.0081268 3.487499,2 l -3,2.9999995 z"
       id="path7440"
       inkscape:connector-curvature="0"
       sodipodi:nodetypes="cccccccccccc" />
  </g>
  <g
     inkscape:groupmode="layer"
     id="layer7"
     inkscape:label="arrow_counterclockwise"
     style="display:none">
    <path
       style="fill:url(#linearGradient7509);fill-opacity:1;stroke:url(#linearGradient7511);stroke-width:1px;stroke-linecap:butt;stroke-linejoin:round;stroke-opacity:1;display:inline"
       d="m 0.49494003,12.514119 0,-8.999999 2.99999997,3 C 5.476589,4.5513063 6.7976364,3.5663589 9.068328,3.5459748 c 2.620054,0.093988 3.918193,1.0538592 5.426613,2.9681452 0.871945,1.4505044 1.095565,2.4573937 0.968145,4.108064 -0.231478,1.694677 -0.971465,2.881976 -0.968145,2.891935 C 14.157688,11.596839 13.744309,10.43011 13.100183,9.3741999 12.14276,8.0653557 11.277488,7.51412 9.98244,7.51412 c -1.677164,0 -2.495626,1.0081268 -3.4874986,2 l 2.9999996,2.999999 z"
       id="path7440-2"
       inkscape:connector-curvature="0"
       sodipodi:nodetypes="cccccccccccc" />
  </g>
  <g
     inkscape:groupmode="layer"
     id="layer8"
     inkscape:label="arrow_up_down"
     style="display:none">
    <path
       style="fill:url(#linearGradient8045);fill-opacity:1;stroke:url(#linearGradient8037);stroke-width:1px;stroke-linecap:butt;stroke-linejoin:round;stroke-opacity:1;display:inline"
       d="m 6.5,5.5 -3,0 L 8,1 l 4.5,4.5 -3,0 0,5 3,0 L 8,15 3.5,10.5 l 3,0 z"
       id="path8011"
       inkscape:connector-curvature="0"
       sodipodi:nodetypes="ccccccccccc" />
  </g>
  <g
     inkscape:groupmode="layer"
     id="layer9"
     inkscape:label="arrow_left_right"
     style="display:none">
    <path
       style="fill:url(#linearGradient8056);fill-opacity:1;stroke:url(#linearGradient8064);stroke-width:1px;stroke-linecap:butt;stroke-linejoin:round;stroke-opacity:1"
       d="m 15,8 -4.5,4.5 0,-3 -5,0 0,3 L 1,8 5.5,3.5 l 0,3 5,0 0,-3 z"
       id="path8048"
       inkscape:connector-curvature="0"
       sodipodi:nodetypes="ccccccccccc" />
  </g>
  <g
     inkscape:groupmode="layer"
     id="layer10"
     inkscape:label="arrow_reload"
     style="display:inline">
    <g
       id="g10101"
       style="fill:url(#linearGradient3813);fill-opacity:1;stroke:url(#linearGradient10119);stroke-linejoin:round"
       inkscape:export-filename="/home/geert/Pictures/icons/svg/blue_arrows_round.png"
       inkscape:export-xdpi="90"
       inkscape:export-ydpi="90">
      <path
         sodipodi:nodetypes="ccccsscsscc"
         inkscape:connector-curvature="0"
         id="path10052"
         d="m 8.5114847,6.5174586 6.0000003,0 0,-6.00000002 -2,2.00000002 C 11.384065,1.5811681 10.46122,1.0503418 9.3840655,0.74044226 8.238087,0.41074201 6.0486961,0.47386077 4.7133067,0.96814519 3.4344429,1.441507 2.3715646,2.4218942 1.9255972,3.2819741 2.9383081,2.6266913 3.8134142,2.3030533 4.9921308,2.2085875 5.8852836,2.1370075 6.9440312,2.1878251 7.7913249,2.5618143 8.6520115,2.9417149 9.3647115,3.3706854 10.511484,4.5174586 z"
         style="fill:url(#linearGradient3813);fill-opacity:1;stroke:url(#linearGradient10119);stroke-width:1px;stroke-linecap:butt;stroke-linejoin:round;stroke-opacity:1;display:inline" />
      <path
         sodipodi:nodetypes="ccccsscsscc"
         inkscape:connector-curvature="0"
         id="path10052-9"
         d="m 7.5114847,9.4914262 -5.9999999,0 0,5.9999998 2,-2 c 1.12742,0.93629 2.050265,1.467117 3.127419,1.777016 1.1459786,0.3297 3.0912233,0.366866 4.4266132,-0.127419 1.278864,-0.473362 2.585887,-1.554033 3.031855,-2.414112 -1.012711,0.655282 -1.887817,0.97892 -3.066534,1.073386 -0.893153,0.07158 -1.9518996,0.02076 -2.7991935,-0.353227 C 7.3709579,13.06717 6.6582578,12.6382 5.5114858,11.491426 z"
         style="fill:url(#linearGradient3038);fill-opacity:1;stroke:url(#linearGradient10119);stroke-width:1px;stroke-linecap:butt;stroke-linejoin:round;stroke-opacity:1;display:inline" />
    </g>
  </g>
  <g
     inkscape:groupmode="layer"
     id="layer11"
     inkscape:label="arrow_topright_bottomleft"
     style="display:none">
    <path
       style="fill:url(#linearGradient10138);fill-opacity:1;stroke:url(#linearGradient10130);stroke-width:1px;stroke-linecap:butt;stroke-linejoin:round;stroke-opacity:1"
       d="M 13.474585,2.525415 13.50644,9.5653282 10.980646,6.9237895 C 8.9806461,8.9237895 9,9 7,11 l 2.5,2.5 -7,0 0,-7 L 5,9 9.0125009,5.0193539 6.4169364,2.4874991 z"
       id="path10122"
       inkscape:connector-curvature="0"
       sodipodi:nodetypes="ccccccccccc" />
  </g>
  <g
     inkscape:groupmode="layer"
     id="layer12"
     inkscape:label="arrow_topleft_bottomright"
     style="display:none">
    <path
       style="fill:url(#linearGradient3948);fill-opacity:1;stroke:url(#linearGradient10162);stroke-width:1px;stroke-linecap:butt;stroke-linejoin:round;stroke-opacity:1;display:inline"
       d="m 2.5,2.5 0,7 L 5,7 c 1.9999998,2 2.5,2.5 4,4 l -2.5,2.5 7,0 0,-7 L 11,9 7,5 9.5,2.5 z"
       id="path10122-5"
       inkscape:connector-curvature="0"
       sodipodi:nodetypes="ccccccccccc"
       inkscape:export-filename="/home/www/scrivo/ScrivoIcons/16/path10122-5.png"
       inkscape:export-xdpi="90"
       inkscape:export-ydpi="90" />
  </g>
</svg>
