<?xml version="1.0" encoding="UTF-8" standalone="no"?>
<svg
   xmlns:dc="http://purl.org/dc/elements/1.1/"
   xmlns:cc="http://creativecommons.org/ns#"
   xmlns:rdf="http://www.w3.org/1999/02/22-rdf-syntax-ns#"
   xmlns:svg="http://www.w3.org/2000/svg"
   xmlns="http://www.w3.org/2000/svg"
   xmlns:xlink="http://www.w3.org/1999/xlink"
   xmlns:sodipodi="http://sodipodi.sourceforge.net/DTD/sodipodi-0.dtd"
   xmlns:inkscape="http://www.inkscape.org/namespaces/inkscape"
   height="16px"
   width="16px"
   version="1.1"
   enable-background="new"
   id="svg2"
   inkscape:version="0.48.4 r9939"
   sodipodi:docname="binoculars.svg">
  <sodipodi:namedview
     pagecolor="#ffffff"
     bordercolor="#666666"
     borderopacity="1"
     objecttolerance="10"
     gridtolerance="10"
     guidetolerance="10"
     inkscape:pageopacity="0"
     inkscape:pageshadow="2"
     inkscape:window-width="1680"
     inkscape:window-height="954"
     id="namedview66"
     showgrid="true"
     inkscape:zoom="29.5"
     inkscape:cx="3.2533864"
     inkscape:cy="5.8941423"
     inkscape:window-x="0"
     inkscape:window-y="25"
     inkscape:window-maximized="1"
     inkscape:current-layer="layer1"
     inkscape:snap-grids="false">
    <inkscape:grid
       type="xygrid"
       id="grid3191"
       empspacing="4"
       visible="true"
       enabled="true"
       snapvisiblegridlinesonly="true"
       spacingx="0.5px"
       spacingy="0.5px" />
  </sodipodi:namedview>
  <defs
     id="defs4">
    <linearGradient
       id="b">
      <stop
         stop-color="#748388"
         offset="0"
         id="stop7" />
      <stop
         stop-color="#cfd4d6"
         offset=".413"
         id="stop9" />
      <stop
         stop-color="#738287"
         offset="1"
         id="stop11" />
    </linearGradient>
    <linearGradient
       id="a">
      <stop
         stop-color="#2e3436"
         offset="0"
         id="stop14" />
      <stop
         stop-color="#839095"
         offset=".413"
         id="stop16" />
      <stop
         stop-color="#2e3436"
         offset="1"
         id="stop18" />
    </linearGradient>
    <linearGradient
       id="c">
      <stop
         stop-color="#d8e4f0"
         offset="0"
         id="stop21" />
      <stop
         stop-color="#2881df"
         offset="1"
         id="stop23" />
    </linearGradient>
    <radialGradient
       id="e"
       xlink:href="#c"
       gradientUnits="userSpaceOnUse"
       cy="8.53"
       cx="3.52"
       gradientTransform="matrix(.00439 -1 1.1 .0112 -4.93 12.9)"
       r="2" />
    <radialGradient
       id="f"
       xlink:href="#c"
       gradientUnits="userSpaceOnUse"
       cx="3.5"
       cy="9.5"
       r="2"
       gradientTransform="matrix(0,1,-1,0,13,6)" />
    <linearGradient
       id="p"
       y2="8.41"
       xlink:href="#b"
       gradientUnits="userSpaceOnUse"
       x2="7.5"
       y1="6"
       x1="1" />
    <linearGradient
       id="o"
       y2="6.51"
       xlink:href="#b"
       gradientUnits="userSpaceOnUse"
       y1="6.51"
       gradientTransform="matrix(1 0 0 .788 -.144 1.79)"
       x2="9.66"
       x1="6.66" />
    <linearGradient
       id="n"
       y2="5"
       xlink:href="#b"
       gradientUnits="userSpaceOnUse"
       x2="1.5"
       gradientTransform="matrix(-1 0 0 1 16 -7.1e-8)"
       y1="7.5"
       x1="8" />
    <linearGradient
       id="d"
       y2="7.5"
       xlink:href="#a"
       gradientUnits="userSpaceOnUse"
       x2="7"
       y1="6"
       x1="1" />
    <linearGradient
       id="l"
       y2="6"
       xlink:href="#a"
       gradientUnits="userSpaceOnUse"
       x2="2"
       gradientTransform="matrix(-1 0 0 1 16 -7.1e-8)"
       y1="7.5"
       x1="8" />
    <linearGradient
       id="j"
       y2="10"
       xlink:href="#a"
       gradientUnits="userSpaceOnUse"
       x2="1.66"
       y1="10.138079"
       x1="6.3751979" />
    <linearGradient
       id="i"
       y2="10"
       xlink:href="#a"
       gradientUnits="userSpaceOnUse"
       x2="6.33"
       y1="10"
       x1="1.66" />
    <linearGradient
       id="h"
       y2="9.49"
       xlink:href="#a"
       gradientUnits="userSpaceOnUse"
       x2="9.46"
       y1="9.49"
       x1="6.5" />
    <linearGradient
       id="g"
       y2="7.81"
       xlink:href="#a"
       gradientUnits="userSpaceOnUse"
       x2="9.5"
       gradientTransform="translate(.0156 -.578)"
       y1="7.81"
       x1="6.5" />
    <linearGradient
       inkscape:collect="always"
       xlink:href="#a"
       id="linearGradient3811"
       gradientUnits="userSpaceOnUse"
       x1="1.4745762"
       y1="9.4174461"
       x2="6.4576273"
       y2="9.6747389" />
  </defs>
  <metadata
     id="metadata36">
    <rdf:RDF>
      <cc:Work
         rdf:about="">
        <dc:format>image/svg+xml</dc:format>
        <dc:type
           rdf:resource="http://purl.org/dc/dcmitype/StillImage" />
        <dc:title />
        <cc:license
           rdf:resource="http://creativecommons.org/publicdomain/zero/1.0/" />
        <dc:creator>
          <cc:Agent>
            <dc:title>Geert Bergman, geert@www.scrivo.org</dc:title>
          </cc:Agent>
        </dc:creator>
      </cc:Work>
    </rdf:RDF>
  </metadata>
  <g
     inkscape:groupmode="layer"
     id="layer1"
     inkscape:label="binoculairs"
     style="display:inline">
    <g
       id="g38">
      <path
         d="M 1.17,8.62 3.57,5.77 4,4.16 C 3.97,3.74 4.69,3.3 5.63,3.33 6.141,3.3447 7.09,3.557 7,4.256 l -0.52,7.24 c -0.1,1 -1.21,2 -2.98,2 -1.69,-0.0186 -3,-0.895 -3,-2 z"
         id="path40"
         inkscape:connector-curvature="0"
         style="fill:url(#p);stroke:url(#d);stroke-width:1px;stroke-linejoin:round" />
      <g
         id="g42">
        <path
           d="m 6,10 a 2,2.04 0 1 1 -4,0 2,2.04 0 1 1 4,0 z"
           transform="matrix(1.5,0,0,0.982,-2.49,1.68)"
           id="path44"
           style="fill:url(#f);fill-rule:evenodd;stroke:url(#linearGradient3811);stroke-width:0.82394576;stroke-miterlimit:4;stroke-dasharray:none"
           inkscape:connector-curvature="0" />
        <path
           d="M 1.47,8.48 C 2.85,6.71 6.68,7.44 6.5,9.05"
           id="path46"
           inkscape:connector-curvature="0"
           style="fill:none;stroke:url(#d);stroke-width:0.69999999" />
        <path
           d="M 3.58,6 C 4.502,4.76 6.8,5.357 6.7,6.312"
           id="path48"
           inkscape:connector-curvature="0"
           style="fill:none;stroke:url(#d);stroke-width:0.69999999" />
      </g>
      <path
         d="M 14.8,8.62 12.4,5.77 12,4.16 C 12.0221,3.731 11.308,3.298 10.37,3.325 9.859,3.3397 8.91,3.552 9,4.251 l 0.52,7.25 c 0.1,1 1.18,2 2.98,2 1.69,-0.0186 3,-0.895 3,-2 z"
         id="path50"
         inkscape:connector-curvature="0"
         style="fill:url(#n);stroke:url(#l);stroke-width:1px;stroke-linejoin:round" />
      <g
         id="g52">
        <g
           id="g54">
          <path
             d="m 6,10 a 2,2.04 0 1 1 -4,0 2,2.04 0 1 1 4,0 z"
             transform="matrix(-1.5,0,0,0.982,18.5,1.68)"
             id="path56"
             style="fill:url(#e);fill-rule:evenodd;stroke:url(#j);stroke-width:0.824"
             inkscape:connector-curvature="0" />
          <path
             d="M 14.6,8.51 C 13.2,6.73 9.32,7.4 9.5,9.01"
             id="path58"
             inkscape:connector-curvature="0"
             style="fill:none;stroke:url(#l);stroke-width:0.69999999" />
          <path
             d="M 12.4,5.94 C 11.5,4.7 9.19,5.41 9.29,6.37"
             id="path60"
             inkscape:connector-curvature="0"
             style="fill:none;stroke:url(#l);stroke-width:0.69999999" />
        </g>
        <path
           d="M 6.63,9 C 6.6925,7.92 9.32,7.93 9.42,8.99676 l -0.3,-3.11 c -0.02,-0.56 -2.18,-0.57 -2.21,-0.01 z"
           id="path62"
           inkscape:connector-curvature="0"
           style="fill:url(#o);stroke:url(#g)" />
      </g>
      <path
         d="m 9.97,9.48 a 1.99,1.26 0 1 1 -3.98,0 1.99,1.26 0 1 1 3.98,0 z"
         transform="matrix(0.701,0,0,0.758,2.43,1.82)"
         id="path64"
         inkscape:connector-curvature="0"
         style="fill:#9ea9ac;stroke:url(#h);stroke-width:1.37px" />
    </g>
  </g>
</svg>
