<?xml version="1.0" encoding="UTF-8" standalone="no"?>
<svg
   xmlns:dc="http://purl.org/dc/elements/1.1/"
   xmlns:cc="http://creativecommons.org/ns#"
   xmlns:rdf="http://www.w3.org/1999/02/22-rdf-syntax-ns#"
   xmlns:svg="http://www.w3.org/2000/svg"
   xmlns="http://www.w3.org/2000/svg"
   xmlns:sodipodi="http://sodipodi.sourceforge.net/DTD/sodipodi-0.dtd"
   xmlns:inkscape="http://www.inkscape.org/namespaces/inkscape"
   height="16px"
   width="16px"
   version="1.1"
   enable-background="new"
   id="svg4922"
   inkscape:version="0.48.4 r9939"
   sodipodi:docname="painting.svg">
  <defs
     id="defs4966" />
  <sodipodi:namedview
     pagecolor="#ffffff"
     bordercolor="#666666"
     borderopacity="1"
     objecttolerance="10"
     gridtolerance="10"
     guidetolerance="10"
     inkscape:pageopacity="0"
     inkscape:pageshadow="2"
     inkscape:window-width="678"
     inkscape:window-height="480"
     id="namedview4964"
     showgrid="true"
     inkscape:zoom="10.429825"
     inkscape:cx="9.6951005"
     inkscape:cy="7.5029447"
     inkscape:window-x="504"
     inkscape:window-y="274"
     inkscape:window-maximized="0"
     inkscape:current-layer="layer4">
    <inkscape:grid
       type="xygrid"
       id="grid4968"
       empspacing="4"
       visible="true"
       enabled="true"
       snapvisiblegridlinesonly="true"
       spacingx="0.5px"
       spacingy="0.5px" />
  </sodipodi:namedview>
  <metadata
     id="metadata4924">
    <rdf:RDF>
      <cc:Work
         rdf:about="">
        <dc:format>image/svg+xml</dc:format>
        <dc:type
           rdf:resource="http://purl.org/dc/dcmitype/StillImage" />
        <dc:title></dc:title>
        <cc:license
           rdf:resource="http://creativecommons.org/publicdomain/zero/1.0/" />
        <dc:creator>
          <cc:Agent>
            <dc:title>Geert Bergman, geert@www.scrivo.org</dc:title>
          </cc:Agent>
        </dc:creator>
      </cc:Work>
    </rdf:RDF>
  </metadata>
  <g
     inkscape:groupmode="layer"
     id="layer4"
     inkscape:label="painting"
     style="display:inline">
    <g
       id="g4926">
      <rect
         rx="0"
         ry="0"
         height="7.9899998"
         width="8"
         y="1.5"
         x="1.5"
         id="rect4928"
         style="fill:#e75950" />
      <g
         id="g4930"
         style="fill:#f3d889">
        <rect
           height="4"
           width="5"
           y="1.5"
           x="9.5"
           id="rect4932" />
        <rect
           height="4.5"
           width="1.5"
           y="11.5"
           x="0"
           id="rect4934" />
        <rect
           height="1.5"
           width="5"
           y="0"
           x="9.5"
           id="rect4936" />
      </g>
      <rect
         rx="0"
         ry="0"
         height="4.4899998"
         width="1.51"
         y="11.5"
         x="14.5"
         id="rect4938"
         style="fill:#e75950" />
      <rect
         height="4"
         width="5"
         y="11.5"
         x="9.5"
         id="rect4940"
         style="fill:#5346aa" />
      <rect
         height="1.5"
         width="6"
         y="0"
         x="3.5"
         id="rect4942"
         style="fill:#f4f0e0" />
      <rect
         height="1.5"
         width="3.5"
         y="0"
         x="0"
         id="rect4944"
         style="fill:#e8efe6" />
      <rect
         height="6"
         width="1.5"
         y="5.5"
         x="0"
         id="rect4946"
         style="fill:#e8efe6" />
      <rect
         height="5"
         width="4"
         y="9.5"
         x="5.5"
         id="rect4948"
         style="fill:#d3cdcc" />
      <rect
         height="4"
         width="1.5"
         y="1.5"
         x="0"
         id="rect4950"
         style="fill:#fcfdf2" />
      <rect
         height="4"
         width="3"
         y="5.5"
         x="11.5"
         id="rect4952"
         style="fill:#f7f5e6" />
      <rect
         height="4"
         width="2"
         y="5.5"
         x="9.5"
         id="rect4954"
         style="fill:#e6e7de" />
      <rect
         height="2"
         width="5"
         y="9.5"
         x="9.5"
         id="rect4956"
         style="fill:#e6e7de" />
      <rect
         height="2.5"
         width="4"
         y="13.5"
         x="1.5"
         id="rect4958"
         style="fill:#e4e5da" />
      <rect
         height="11.5"
         width="1.5"
         y="0"
         x="14.5"
         id="rect4960"
         style="fill:#ebeee8" />
      <path
         d="M 11.5,5.5 V 9 m -2,-3.5 h 5 M 3.5,0 V 1 M 0,5.5 h 1.5 m -1,0 h 1 m 0,5 h 4 m -4,2 h 4 m -4,1 h 4 m 0,1 h 4 m -4,-5 v 6 M 5,15.5 H 15 M 9.5,0 V 16 M 1,9.5 H 15 M 1.5,16 V 1 M 0,11.5 H 16 M 14.5,0 V 16 M 0,1.5 h 15 m -3.5,4 V 9 m -2,-3.5 h 5 M 3.5,0 V 1 M 0,5.5 h 1.5 m -1,0 h 1 m 0,5 h 4 m -4,2 h 4 m -4,1 h 4 m 0,1 h 4 m -4,-5 v 6 M 5,15.5 H 15 M 9.5,0 V 16 M 1,9.5 H 15 M 1.5,16 V 1 M 0,11.5 H 16 M 14.5,0 V 16 M 0,1.5 h 15"
         id="path4962"
         inkscape:connector-curvature="0"
         style="fill:#e75950;stroke:#45393d;stroke-width:1px" />
    </g>
  </g>
</svg>
