<?xml version="1.0" encoding="UTF-8" standalone="no"?>
<!-- Created with Inkscape (http://www.inkscape.org/) -->

<svg
   xmlns:dc="http://purl.org/dc/elements/1.1/"
   xmlns:cc="http://creativecommons.org/ns#"
   xmlns:rdf="http://www.w3.org/1999/02/22-rdf-syntax-ns#"
   xmlns:svg="http://www.w3.org/2000/svg"
   xmlns="http://www.w3.org/2000/svg"
   xmlns:xlink="http://www.w3.org/1999/xlink"
   xmlns:sodipodi="http://sodipodi.sourceforge.net/DTD/sodipodi-0.dtd"
   xmlns:inkscape="http://www.inkscape.org/namespaces/inkscape"
   version="1.1"
   width="16"
   height="16"
   id="svg3000"
   style="enable-background:new"
   inkscape:version="0.48.4 r9939"
   sodipodi:docname="pencil.svg">
  <sodipodi:namedview
     pagecolor="#ffffff"
     bordercolor="#666666"
     borderopacity="1"
     objecttolerance="10"
     gridtolerance="10"
     guidetolerance="10"
     inkscape:pageopacity="0"
     inkscape:pageshadow="2"
     inkscape:window-width="1680"
     inkscape:window-height="954"
     id="namedview108"
     showgrid="true"
     inkscape:zoom="32"
     inkscape:cx="-1.2310517"
     inkscape:cy="8.0096465"
     inkscape:window-x="0"
     inkscape:window-y="25"
     inkscape:window-maximized="1"
     inkscape:current-layer="layer1"
     inkscape:snap-bbox="true"
     inkscape:snap-grids="false">
    <inkscape:grid
       type="xygrid"
       id="grid3085"
       empspacing="4"
       visible="true"
       enabled="true"
       snapvisiblegridlinesonly="true"
       spacingx="0.25px"
       spacingy="0.25px" />
  </sodipodi:namedview>
  <defs
     id="defs3002">
    <linearGradient
       id="linearGradient10893">
      <stop
         id="stop10895"
         style="stop-color:#adc5e0;stop-opacity:1;"
         offset="0" />
      <stop
         id="stop10897"
         style="stop-color:#729fcf;stop-opacity:1;"
         offset="1" />
    </linearGradient>
    <linearGradient
       id="linearGradient10885">
      <stop
         id="stop10887"
         style="stop-color:#729fcf;stop-opacity:1"
         offset="0" />
      <stop
         id="stop10889"
         style="stop-color:#adc5e0;stop-opacity:1"
         offset="0.35514718" />
      <stop
         id="stop10891"
         style="stop-color:#4f83ba;stop-opacity:1"
         offset="1" />
    </linearGradient>
    <linearGradient
       id="linearGradient10867">
      <stop
         id="stop10869"
         style="stop-color:#204a87;stop-opacity:1"
         offset="0" />
      <stop
         id="stop10871"
         style="stop-color:#648bbd;stop-opacity:1"
         offset="0.32936701" />
      <stop
         id="stop10873"
         style="stop-color:#0d2446;stop-opacity:1"
         offset="1" />
    </linearGradient>
    <linearGradient
       id="linearGradient6170">
      <stop
         id="stop6172"
         style="stop-color:#edd400;stop-opacity:1"
         offset="0" />
      <stop
         id="stop6174"
         style="stop-color:#eee59f;stop-opacity:1"
         offset="1" />
    </linearGradient>
    <linearGradient
       x1="6.0491881"
       y1="12.023088"
       x2="5.4161239"
       y2="11.422081"
       id="linearGradient4010"
       xlink:href="#linearGradient6170"
       gradientUnits="userSpaceOnUse"
       gradientTransform="translate(-1.0636447,0.04357013)"
       spreadMethod="reflect" />
    <radialGradient
       cx="14.815952"
       cy="3.5325313"
       r="1.65224"
       fx="14.815952"
       fy="3.5325313"
       id="radialGradient4012"
       xlink:href="#linearGradient10893"
       gradientUnits="userSpaceOnUse"
       gradientTransform="matrix(-0.02212266,-0.62401636,0.82909854,0.0159641,12.214904,12.710447)" />
    <radialGradient
       cx="6.7513204"
       cy="10.249237"
       r="1.3409765"
       fx="6.7513204"
       fy="10.249237"
       id="radialGradient4014"
       xlink:href="#linearGradient10893"
       gradientUnits="userSpaceOnUse"
       gradientTransform="matrix(0.91843626,0,0,0.95847992,0.55066263,0.4255491)" />
    <linearGradient
       x1="9.3900919"
       y1="5.7528691"
       x2="11.315113"
       y2="7.7218642"
       id="linearGradient4016"
       xlink:href="#linearGradient10885"
       gradientUnits="userSpaceOnUse"
       gradientTransform="translate(-1.0651137,0.04347273)" />
    <linearGradient
       x1="8.3588419"
       y1="5.5341191"
       x2="11.467191"
       y2="8.7058172"
       id="linearGradient4018"
       xlink:href="#linearGradient10867"
       gradientUnits="userSpaceOnUse"
       gradientTransform="translate(-1.0651137,0.04347273)" />
    <linearGradient
       inkscape:collect="always"
       xlink:href="#linearGradient6170"
       id="linearGradient3241"
       gradientUnits="userSpaceOnUse"
       gradientTransform="translate(-1.0636447,0.04357013)"
       spreadMethod="reflect"
       x1="6.0491881"
       y1="12.023088"
       x2="5.4161239"
       y2="11.422081" />
    <radialGradient
       inkscape:collect="always"
       xlink:href="#linearGradient10893"
       id="radialGradient3243"
       gradientUnits="userSpaceOnUse"
       gradientTransform="matrix(-0.02212266,-0.62401636,0.82909854,0.0159641,12.214904,12.710447)"
       cx="14.815952"
       cy="3.5325313"
       fx="14.815952"
       fy="3.5325313"
       r="1.65224" />
    <radialGradient
       inkscape:collect="always"
       xlink:href="#linearGradient10893"
       id="radialGradient3245"
       gradientUnits="userSpaceOnUse"
       gradientTransform="matrix(0.91843626,0,0,0.95847992,0.55066263,0.4255491)"
       cx="6.7513204"
       cy="10.249237"
       fx="6.7513204"
       fy="10.249237"
       r="1.3409765" />
    <linearGradient
       inkscape:collect="always"
       xlink:href="#linearGradient10885"
       id="linearGradient3247"
       gradientUnits="userSpaceOnUse"
       gradientTransform="translate(-1.0651137,0.04347273)"
       x1="9.3900919"
       y1="5.7528691"
       x2="11.315113"
       y2="7.7218642" />
    <linearGradient
       inkscape:collect="always"
       xlink:href="#linearGradient10867"
       id="linearGradient3249"
       gradientUnits="userSpaceOnUse"
       gradientTransform="translate(-1.0651137,0.04347273)"
       x1="8.3588419"
       y1="5.5341191"
       x2="11.467191"
       y2="8.7058172" />
    <linearGradient
       inkscape:collect="always"
       xlink:href="#linearGradient6170"
       id="linearGradient3269"
       gradientUnits="userSpaceOnUse"
       gradientTransform="translate(-1.0636447,0.04357013)"
       spreadMethod="reflect"
       x1="6.0491881"
       y1="12.023088"
       x2="5.4161239"
       y2="11.422081" />
    <radialGradient
       inkscape:collect="always"
       xlink:href="#linearGradient10893"
       id="radialGradient3271"
       gradientUnits="userSpaceOnUse"
       gradientTransform="matrix(-0.02212266,-0.62401636,0.82909854,0.0159641,12.214904,12.710447)"
       cx="14.815952"
       cy="3.5325313"
       fx="14.815952"
       fy="3.5325313"
       r="1.65224" />
    <radialGradient
       inkscape:collect="always"
       xlink:href="#linearGradient10893"
       id="radialGradient3273"
       gradientUnits="userSpaceOnUse"
       gradientTransform="matrix(0.91843626,0,0,0.95847992,0.55066263,0.4255491)"
       cx="6.7513204"
       cy="10.249237"
       fx="6.7513204"
       fy="10.249237"
       r="1.3409765" />
    <linearGradient
       inkscape:collect="always"
       xlink:href="#linearGradient10885"
       id="linearGradient3275"
       gradientUnits="userSpaceOnUse"
       gradientTransform="translate(-1.0651137,0.04347273)"
       x1="9.3900919"
       y1="5.7528691"
       x2="11.315113"
       y2="7.7218642" />
    <linearGradient
       inkscape:collect="always"
       xlink:href="#linearGradient10867"
       id="linearGradient3277"
       gradientUnits="userSpaceOnUse"
       gradientTransform="translate(-1.0651137,0.04347273)"
       x1="8.3588419"
       y1="5.5341191"
       x2="11.467191"
       y2="8.7058172" />
  </defs>
  <metadata
     id="metadata3005">
    <rdf:RDF>
      <cc:Work
         rdf:about="">
        <dc:format>image/svg+xml</dc:format>
        <dc:type
           rdf:resource="http://purl.org/dc/dcmitype/StillImage" />
        <dc:title />
        <cc:license
           rdf:resource="http://creativecommons.org/publicdomain/zero/1.0/" />
        <dc:creator>
          <cc:Agent>
            <dc:title>Geert Bergman, geert@www.scrivo.org</dc:title>
          </cc:Agent>
        </dc:creator>
      </cc:Work>
    </rdf:RDF>
  </metadata>
  <g
     inkscape:groupmode="layer"
     id="layer1"
     inkscape:label="pencil"
     style="display:inline">
    <g
       id="g3969"
       style="display:inline;enable-background:new">
      <g
         transform="matrix(1.1002025,0,0,1.0987542,-0.48537452,-1.0726453)"
         id="g3973"
         style="stroke:#f8e810;stroke-width:0.90952247;stroke-opacity:0.95988536;display:inline" />
      <g
         transform="matrix(1.2528157,0,0,1.2532694,-2.7061486,-1.3395105)"
         id="g4003">
        <path
           d="M 4.2233754,9.2476757 5.25392,8.2280711 7.768618,10.767156 6.758075,11.764326 c -1.7014757,0.68501 -2.1609276,0.911975 -4.3098692,1.779286 0.9149809,-2.179049 1.055325,-2.526774 1.7751696,-4.2959363 z"
           id="path3971"
           style="fill:url(#linearGradient4010);fill-opacity:1;stroke:#ab9500;stroke-width:0.55864036;stroke-linecap:butt;stroke-linejoin:round;stroke-miterlimit:4;stroke-opacity:1;stroke-dasharray:none"
           inkscape:connector-curvature="0"
           sodipodi:nodetypes="cccccc" />
        <path
           d="M 2.1943509,13.436465 2.8630193,11.84617 c 0,0 -0.1101417,0.667806 0.27467,1.031283 C 3.5225016,13.24093 4.156261,13.14206 4.156261,13.14206 L 2.5622722,13.801136 C 2.31907,13.928927 2.0665139,13.695164 2.1943509,13.436465 z"
           id="path3975"
           style="fill:#2e3436;stroke:none"
           inkscape:connector-curvature="0"
           sodipodi:nodetypes="ccsccc" />
        <g
           transform="translate(6.4960915,-7.4903421)"
           id="g3977"
           style="fill:url(#radialGradient4014);fill-opacity:1;stroke:none;display:inline">
          <path
             d="M 16.15224,3.5 A 1.65224,1.0891349 0 1 1 16.14374,3.3895006"
             transform="matrix(-0.68731869,-0.64806064,0.65448908,-0.65255728,14.426729,21.930067)"
             id="path3979"
             style="fill:url(#radialGradient4012);fill-opacity:1;stroke:none"
             inkscape:connector-curvature="0" />
        </g>
        <path
           d="m 11.941851,1.5567816 c 0.361465,-0.3603974 1.425433,-0.057133 1.994827,0.4797376 0.569393,0.536871 0.853963,1.6454256 0.492499,2.005823 C 14.067712,4.4027396 13.003744,4.0718543 12.43435,3.5349833 11.864957,2.9981124 11.580387,1.917179 11.941851,1.5567816 z m 0.0012,-0.00667 c -0.348399,0.3205115 0.009,0.013372 -0.0099,-5.517e-4 L 5.2839688,8.2219472 c -0.2734375,0.2734375 -0.3232239,1.4296552 0.3838051,2.1463668 0.6477014,0.656572 1.8336184,0.627593 2.146887,0.333716 0.046994,-0.04316 6.6185201,-6.6602648 6.6185201,-6.6602648 0.01126,-0.00976 -0.07313,0.088726 0.0078,0 C 14.802445,3.681368 14.510209,2.6165264 13.941537,2.0457866 13.388235,1.4904732 12.291491,1.2295957 11.943092,1.5501071 z"
           id="path3981"
           style="fill:url(#linearGradient4016);fill-opacity:1;stroke:url(#linearGradient4018);stroke-width:0.63844609;stroke-linecap:square;stroke-linejoin:round;stroke-miterlimit:4;stroke-opacity:0.99140398;stroke-dasharray:none;display:inline"
           inkscape:connector-curvature="0" />
      </g>
    </g>
  </g>
  <g
     style="display:inline"
     inkscape:label="pencil medium"
     id="g3223"
     inkscape:groupmode="layer">
    <g
       style="display:inline;enable-background:new"
       id="g3225"
       transform="matrix(0.8100283,0,0,0.80688022,1.9757409,1.065091)">
      <g
         style="stroke:#f8e810;stroke-width:1.12501633;stroke-opacity:0.95988536;display:inline"
         id="g3227"
         transform="matrix(1.1002025,0,0,1.0987542,-0.48537452,-1.0726453)" />
      <g
         id="g3229"
         transform="matrix(1.2528157,0,0,1.2532694,-2.7061486,-1.3395105)">
        <path
           inkscape:connector-curvature="0"
           style="fill:url(#linearGradient3241);fill-opacity:1;stroke:#ab9500;stroke-width:0.69099939;stroke-linecap:butt;stroke-linejoin:round;stroke-miterlimit:4;stroke-opacity:1;stroke-dasharray:none"
           id="path3231"
           d="M 4.2233754,9.2476757 5.25392,8.2280711 7.768618,10.767156 6.758075,11.764326 c -1.7014757,0.68501 -2.0792733,0.884661 -4.2282149,1.751972 0.9149809,-2.179049 0.9736707,-2.49946 1.6935153,-4.2686223 z"
           sodipodi:nodetypes="cccccc" />
        <path
           inkscape:connector-curvature="0"
           style="fill:#2e3436;stroke:none"
           id="path3233"
           d="m 2.2155718,13.370991 0.7132091,-1.736702 c 0,0 -0.067287,0.753664 0.2856726,1.148351 0.4060332,0.45403 1.1871547,0.34043 1.1871547,0.34043 L 2.6788948,13.827194 C 2.3707382,13.984614 2.064115,13.679782 2.2155718,13.370991 z"
           sodipodi:nodetypes="ccsccc" />
        <g
           style="fill:url(#radialGradient3245);fill-opacity:1;stroke:none;display:inline"
           id="g3235"
           transform="translate(6.4960915,-7.4903421)">
          <path
             inkscape:connector-curvature="0"
             style="fill:url(#radialGradient3243);fill-opacity:1;stroke:none"
             id="path3237"
             transform="matrix(-0.68731869,-0.64806064,0.65448908,-0.65255728,14.426729,21.930067)"
             d="M 16.15224,3.5 A 1.65224,1.0891349 0 1 1 16.14374,3.3895006" />
        </g>
        <path
           inkscape:connector-curvature="0"
           style="fill:url(#linearGradient3247);fill-opacity:1;stroke:url(#linearGradient3249);stroke-width:0.78971356;stroke-linecap:square;stroke-linejoin:round;stroke-miterlimit:4;stroke-opacity:0.99140398;stroke-dasharray:none;display:inline"
           id="path3239"
           d="m 11.941851,1.5567816 c 0.361465,-0.3603974 1.425433,-0.057133 1.994827,0.4797376 0.569393,0.536871 0.853963,1.6454256 0.492499,2.005823 C 14.067712,4.4027396 13.003744,4.0718543 12.43435,3.5349833 11.864957,2.9981124 11.580387,1.917179 11.941851,1.5567816 z m 0.0012,-0.00667 c -0.348399,0.3205115 0.009,0.013372 -0.0099,-5.517e-4 L 5.2839688,8.2219472 C 5.0105313,8.4953847 4.9258296,9.6821564 5.6328586,10.398868 6.28056,11.05544 7.5013923,10.995907 7.8146609,10.70203 7.8616549,10.65887 14.433181,4.0417652 14.433181,4.0417652 c 0.01126,-0.00976 -0.07313,0.088726 0.0078,0 C 14.802445,3.681368 14.510209,2.6165264 13.941537,2.0457866 13.388235,1.4904732 12.291491,1.2295957 11.943092,1.5501071 z"
           sodipodi:nodetypes="ssssscccscccscc" />
      </g>
    </g>
  </g>
  <g
     style="display:inline"
     inkscape:label="pencil small"
     id="g3251"
     inkscape:groupmode="layer">
    <g
       style="display:inline;enable-background:new"
       id="g3253"
       transform="matrix(0.60855348,0,0,0.60873298,4.1157179,2.1473353)">
      <g
         style="stroke:#f8e810;stroke-width:1.49434412;stroke-opacity:0.95988536;display:inline"
         id="g3255"
         transform="matrix(1.1002025,0,0,1.0987542,-0.48537452,-1.0726453)" />
      <g
         id="g3257"
         transform="matrix(1.2528157,0,0,1.2532694,-2.7061486,-1.3395105)">
        <path
           inkscape:connector-curvature="0"
           style="fill:url(#linearGradient3269);fill-opacity:1;stroke:#ab9500;stroke-width:0.91784537;stroke-linecap:butt;stroke-linejoin:round;stroke-miterlimit:4;stroke-opacity:1;stroke-dasharray:none"
           id="path3259"
           d="M 4.2233754,9.2476757 5.25392,8.2280711 7.768618,10.767156 6.758075,11.764326 C 5.0565993,12.449336 4.6188849,12.654578 2.4699433,13.521889 3.3849242,11.34284 3.5035308,11.016838 4.2233754,9.2476757 z"
           sodipodi:nodetypes="cccccc" />
        <path
           inkscape:connector-curvature="0"
           style="fill:#2e3436;stroke:none"
           id="path3261"
           d="m 2.0661363,13.325885 0.9403573,-2.289831 c 0,0 -0.2316759,0.875512 0.422012,1.550774 0.6169819,0.637345 1.5294892,0.409486 1.5294892,0.409486 L 2.6795567,13.928039 C 2.2682263,14.158556 1.8499982,13.737506 2.0661363,13.325885 z"
           sodipodi:nodetypes="ccsccc" />
        <g
           style="fill:url(#radialGradient3273);fill-opacity:1;stroke:none;display:inline"
           id="g3263"
           transform="translate(6.4960915,-7.4903421)">
          <path
             inkscape:connector-curvature="0"
             style="fill:url(#radialGradient3271);fill-opacity:1;stroke:none"
             id="path3265"
             transform="matrix(-0.68731869,-0.64806064,0.65448908,-0.65255728,14.426729,21.930067)"
             d="M 16.15224,3.5 A 1.65224,1.0891349 0 1 1 16.14374,3.3895006" />
        </g>
        <path
           inkscape:connector-curvature="0"
           style="fill:url(#linearGradient3275);fill-opacity:1.0;stroke:url(#linearGradient3277);stroke-width:1.04896616999999992;stroke-linecap:square;stroke-linejoin:round;stroke-miterlimit:4;stroke-opacity:0.99140397999999996;stroke-dasharray:none;display:inline"
           id="path3267"
           d="m 11.941851,1.5567816 c 0.361465,-0.3603974 1.425433,-0.057133 1.994827,0.4797376 0.569393,0.536871 0.853963,1.6454256 0.492499,2.005823 C 14.067712,4.4027396 13.003744,4.0718543 12.43435,3.5349833 11.864957,2.9981124 11.580387,1.917179 11.941851,1.5567816 z m 0.0012,-0.00667 c -0.348399,0.3205115 0.009,0.013372 -0.0099,-5.517e-4 L 5.2839688,8.2219472 c -0.2734375,0.2734375 -0.3232239,1.4296552 0.3838051,2.1463668 0.6477014,0.656572 1.8336184,0.627593 2.146887,0.333716 0.046994,-0.04316 6.6185201,-6.6602648 6.6185201,-6.6602648 0.01126,-0.00976 -0.07313,0.088726 0.0078,0 C 14.802445,3.681368 14.510209,2.6165264 13.941537,2.0457866 13.388235,1.4904732 12.291491,1.2295957 11.943092,1.5501071 z" />
      </g>
    </g>
  </g>
</svg>
