<?xml version="1.0" encoding="UTF-8" standalone="no"?>
<!-- Created with Inkscape (http://www.inkscape.org/) -->

<svg
   xmlns:dc="http://purl.org/dc/elements/1.1/"
   xmlns:cc="http://creativecommons.org/ns#"
   xmlns:rdf="http://www.w3.org/1999/02/22-rdf-syntax-ns#"
   xmlns:svg="http://www.w3.org/2000/svg"
   xmlns="http://www.w3.org/2000/svg"
   xmlns:xlink="http://www.w3.org/1999/xlink"
   xmlns:sodipodi="http://sodipodi.sourceforge.net/DTD/sodipodi-0.dtd"
   xmlns:inkscape="http://www.inkscape.org/namespaces/inkscape"
   width="16px"
   height="16px"
   id="svg3000"
   version="1.1"
   inkscape:version="0.48.4 r9939"
   sodipodi:docname="symbols.svg"
   enable-background="new"
   inkscape:export-filename="/home/www/scrivo/ScrivoIcons/16/plus.png"
   inkscape:export-xdpi="90"
   inkscape:export-ydpi="90">
  <defs
     id="defs3002">
    <linearGradient
       id="linearGradient4126">
      <stop
         style="stop-color:#8ae234;stop-opacity:1;"
         offset="0"
         id="stop4128" />
      <stop
         style="stop-color:#ddf7c4;stop-opacity:1;"
         offset="1"
         id="stop4130" />
    </linearGradient>
    <linearGradient
       id="linearGradient9450">
      <stop
         id="stop9452"
         offset="0"
         style="stop-color:#73d216;stop-opacity:1;" />
      <stop
         id="stop9454"
         offset="1"
         style="stop-color:#bbf384;stop-opacity:1;" />
    </linearGradient>
    <linearGradient
       id="linearGradient9442">
      <stop
         id="stop9444"
         offset="0"
         style="stop-color:#336405;stop-opacity:1;" />
      <stop
         id="stop9446"
         offset="1"
         style="stop-color:#4f9d06;stop-opacity:1;" />
    </linearGradient>
    <linearGradient
       inkscape:collect="always"
       xlink:href="#linearGradient9442"
       id="linearGradient9292"
       x1="9"
       y1="14"
       x2="7"
       y2="2"
       gradientUnits="userSpaceOnUse" />
    <linearGradient
       inkscape:collect="always"
       xlink:href="#linearGradient9442"
       id="linearGradient9448"
       gradientUnits="userSpaceOnUse"
       x1="8.5"
       y1="14"
       x2="7.5"
       y2="2" />
    <linearGradient
       inkscape:collect="always"
       xlink:href="#linearGradient9442"
       id="linearGradient22361"
       x1="8.9160728"
       y1="16.199001"
       x2="6.9775982"
       y2="0.026230017"
       gradientUnits="userSpaceOnUse" />
    <linearGradient
       inkscape:collect="always"
       xlink:href="#linearGradient9450"
       id="linearGradient22369"
       x1="8.9160728"
       y1="16.199001"
       x2="6.9775982"
       y2="0.026230017"
       gradientUnits="userSpaceOnUse" />
    <linearGradient
       inkscape:collect="always"
       xlink:href="#linearGradient9450"
       id="linearGradient4094"
       gradientUnits="userSpaceOnUse"
       x1="8.5"
       y1="13"
       x2="7.5"
       y2="3"
       gradientTransform="matrix(0.7272727,0,0,0.72727276,2.6818181,2.6818182)" />
    <linearGradient
       inkscape:collect="always"
       xlink:href="#linearGradient9442"
       id="linearGradient4096"
       gradientUnits="userSpaceOnUse"
       x1="8.5"
       y1="14"
       x2="7.5"
       y2="2"
       gradientTransform="matrix(0.7272727,0,0,0.72727276,2.6818181,2.6818182)" />
    <linearGradient
       inkscape:collect="always"
       xlink:href="#linearGradient9450"
       id="linearGradient4102"
       gradientUnits="userSpaceOnUse"
       x1="8.5"
       y1="13"
       x2="7.5"
       y2="3"
       gradientTransform="matrix(1.3636363,0,0,1.3636364,-2.9090907,-2.9090909)" />
    <linearGradient
       inkscape:collect="always"
       xlink:href="#linearGradient9442"
       id="linearGradient4104"
       gradientUnits="userSpaceOnUse"
       x1="8.5"
       y1="14"
       x2="7.5"
       y2="2"
       gradientTransform="matrix(1.3636363,0,0,1.3636364,-2.9090907,-2.9090909)" />
    <linearGradient
       inkscape:collect="always"
       xlink:href="#linearGradient9450"
       id="linearGradient4114"
       gradientUnits="userSpaceOnUse"
       x1="9"
       y1="13"
       x2="7"
       y2="3"
       gradientTransform="matrix(0.72727274,0,0,0.72727274,2.6818182,2.67185)" />
    <linearGradient
       inkscape:collect="always"
       xlink:href="#linearGradient9442"
       id="linearGradient4116"
       gradientUnits="userSpaceOnUse"
       x1="9"
       y1="14"
       x2="7"
       y2="2"
       gradientTransform="matrix(0.72727274,0,0,0.72727274,2.6818182,2.67185)" />
    <linearGradient
       inkscape:collect="always"
       xlink:href="#linearGradient9450"
       id="linearGradient4118"
       gradientUnits="userSpaceOnUse"
       x1="9"
       y1="13"
       x2="7"
       y2="3"
       gradientTransform="matrix(0.97939333,0,0,1.0276771,0.43839327,-0.26964681)" />
    <linearGradient
       inkscape:collect="always"
       xlink:href="#linearGradient9442"
       id="linearGradient4120"
       gradientUnits="userSpaceOnUse"
       x1="9"
       y1="14"
       x2="7"
       y2="2"
       gradientTransform="matrix(1.2321849,0,0,1.2321848,-1.8574783,-1.8584394)" />
    <linearGradient
       inkscape:collect="always"
       xlink:href="#linearGradient4126"
       id="linearGradient4124"
       gradientUnits="userSpaceOnUse"
       gradientTransform="matrix(0.97939333,0,0,1.0276771,0.43839327,-0.26964681)"
       x1="9"
       y1="14"
       x2="7"
       y2="2" />
    <linearGradient
       inkscape:collect="always"
       xlink:href="#linearGradient4126"
       id="linearGradient4134"
       gradientUnits="userSpaceOnUse"
       x1="9"
       y1="14"
       x2="7"
       y2="2"
       gradientTransform="matrix(0.90909091,0,0,0.909091,0.72727287,0.71481243)" />
    <linearGradient
       inkscape:collect="always"
       xlink:href="#linearGradient9450"
       id="linearGradient4136"
       gradientUnits="userSpaceOnUse"
       x1="9"
       y1="13"
       x2="7"
       y2="3"
       gradientTransform="matrix(0.90909091,0,0,0.909091,0.72727287,0.71481243)" />
    <linearGradient
       inkscape:collect="always"
       xlink:href="#linearGradient4126"
       id="linearGradient4140"
       gradientUnits="userSpaceOnUse"
       gradientTransform="matrix(1.3636363,0,0,1.3636364,-2.9090907,-2.9090909)"
       x1="8.5"
       y1="14"
       x2="7.5"
       y2="2" />
    <linearGradient
       inkscape:collect="always"
       xlink:href="#linearGradient9450"
       id="linearGradient4144"
       gradientUnits="userSpaceOnUse"
       x1="8.5"
       y1="13"
       x2="7.5"
       y2="3"
       gradientTransform="matrix(0.90909092,0,0,0.9090909,0.72727272,0.72727272)" />
    <linearGradient
       inkscape:collect="always"
       xlink:href="#linearGradient4126"
       id="linearGradient4146"
       gradientUnits="userSpaceOnUse"
       x1="8.5"
       y1="14"
       x2="7.5"
       y2="2"
       gradientTransform="matrix(0.90909092,0,0,0.9090909,0.72727272,0.72727272)" />
    <linearGradient
       inkscape:collect="always"
       xlink:href="#linearGradient4126"
       id="linearGradient4150"
       gradientUnits="userSpaceOnUse"
       x1="8.9160728"
       y1="16.199001"
       x2="6.9775982"
       y2="0.026230017" />
    <linearGradient
       y2="0.026230017"
       x2="6.9775982"
       y1="16.199001"
       x1="8.9160728"
       gradientTransform="matrix(0.78570654,0,0,0.73545954,1.3313707,2.0994877)"
       gradientUnits="userSpaceOnUse"
       id="linearGradient4698"
       xlink:href="#linearGradient9450"
       inkscape:collect="always" />
    <linearGradient
       y2="0.026230017"
       x2="6.9775982"
       y1="16.199001"
       x1="8.9160728"
       gradientTransform="matrix(0.78570654,0,0,0.73545954,1.3313707,2.0994877)"
       gradientUnits="userSpaceOnUse"
       id="linearGradient4700"
       xlink:href="#linearGradient9442"
       inkscape:collect="always" />
    <linearGradient
       inkscape:collect="always"
       xlink:href="#linearGradient9450"
       id="linearGradient4773"
       gradientUnits="userSpaceOnUse"
       gradientTransform="matrix(1.3636363,0,0,1.3636364,-2.9090907,-2.9090909)"
       x1="8.3666668"
       y1="10.933333"
       x2="7.6333337"
       y2="5.0666666" />
    <linearGradient
       inkscape:collect="always"
       xlink:href="#linearGradient4126"
       id="linearGradient4775"
       gradientUnits="userSpaceOnUse"
       gradientTransform="matrix(1.3636363,0,0,1.3636364,-2.9090907,-2.9090909)"
       x1="8.3666668"
       y1="10.933333"
       x2="7.6333337"
       y2="4.333333" />
    <linearGradient
       inkscape:collect="always"
       xlink:href="#linearGradient9450"
       id="linearGradient4777"
       gradientUnits="userSpaceOnUse"
       gradientTransform="matrix(0.90909092,0,0,0.9090909,0.72727272,0.72727272)"
       x1="8.5500002"
       y1="10.75"
       x2="7.4499998"
       y2="5.25" />
    <linearGradient
       inkscape:collect="always"
       xlink:href="#linearGradient4126"
       id="linearGradient4779"
       gradientUnits="userSpaceOnUse"
       gradientTransform="matrix(0.90909092,0,0,0.9090909,0.72727272,0.72727272)"
       x1="8.5500002"
       y1="11.85"
       x2="7.4499998"
       y2="5.25" />
    <linearGradient
       inkscape:collect="always"
       xlink:href="#linearGradient9450"
       id="linearGradient4797"
       gradientUnits="userSpaceOnUse"
       gradientTransform="matrix(0.7272727,0,0,0.66666657,2.6818182,3.1666669)"
       x1="8.2168322"
       y1="11.159406"
       x2="7.6415839"
       y2="5.1945543" />
    <linearGradient
       inkscape:collect="always"
       xlink:href="#linearGradient9442"
       id="linearGradient4799"
       gradientUnits="userSpaceOnUse"
       gradientTransform="matrix(0.7272727,0,0,0.66666657,2.6818182,3.1666669)"
       x1="8.3584156"
       y1="12.088614"
       x2="7.7123761"
       y2="4.1237626" />
    <linearGradient
       inkscape:collect="always"
       xlink:href="#linearGradient4126"
       id="linearGradient4803"
       gradientUnits="userSpaceOnUse"
       gradientTransform="matrix(0.78570654,0,0,0.73545954,1.3313707,2.0994877)"
       x1="8.9160728"
       y1="16.199001"
       x2="6.9775982"
       y2="0.026230017" />
    <linearGradient
       inkscape:collect="always"
       xlink:href="#linearGradient9450"
       id="linearGradient4840"
       x1="8.3391075"
       y1="13.494041"
       x2="6.9123049"
       y2="2.4882042"
       gradientUnits="userSpaceOnUse"
       gradientTransform="matrix(0.63636364,0,0,0.63747368,2.9090909,2.8941052)" />
    <linearGradient
       inkscape:collect="always"
       xlink:href="#linearGradient9442"
       id="linearGradient4842"
       gradientUnits="userSpaceOnUse"
       gradientTransform="matrix(0.49999507,0,0,0.4688361,3.7563268,4.2324733)"
       x1="8.9160728"
       y1="16.199001"
       x2="6.9775982"
       y2="0.026230017" />
  </defs>
  <sodipodi:namedview
     id="base"
     pagecolor="#ffffff"
     bordercolor="#666666"
     borderopacity="1.0"
     inkscape:pageopacity="0.0"
     inkscape:pageshadow="2"
     inkscape:zoom="11.098901"
     inkscape:cx="49.146211"
     inkscape:cy="-14.77517"
     inkscape:current-layer="g4106"
     showgrid="true"
     inkscape:grid-bbox="true"
     inkscape:document-units="px"
     inkscape:snap-grids="true"
     inkscape:window-width="1680"
     inkscape:window-height="954"
     inkscape:window-x="0"
     inkscape:window-y="25"
     inkscape:window-maximized="1"
     inkscape:snap-bbox="true">
    <inkscape:grid
       type="xygrid"
       id="grid3008"
       empspacing="4"
       visible="true"
       enabled="true"
       snapvisiblegridlinesonly="true"
       spacingx="0.5px"
       spacingy="0.5px" />
  </sodipodi:namedview>
  <metadata
     id="metadata3005">
    <rdf:RDF>
      <cc:Work
         rdf:about="">
        <dc:format>image/svg+xml</dc:format>
        <dc:type
           rdf:resource="http://purl.org/dc/dcmitype/StillImage" />
        <dc:title></dc:title>
        <cc:license
           rdf:resource="http://creativecommons.org/publicdomain/zero/1.0/" />
        <dc:creator>
          <cc:Agent>
            <dc:title>Geert Bergman, geert@www.scrivo.org</dc:title>
          </cc:Agent>
        </dc:creator>
      </cc:Work>
    </rdf:RDF>
  </metadata>
  <g
     style="display:inline"
     inkscape:label="cross"
     id="g4106"
     inkscape:groupmode="layer">
    <path
       inkscape:connector-curvature="0"
       id="path4108"
       d="M 4,1.5 1.5,4 l 4,4 -4,4 2.5,2.5 4,-4 4,4 2.5,-2.5 -4,-4 4,-4 -2.5,-2.5 -4,4 z"
       style="fill:url(#linearGradient4118);fill-opacity:1;stroke:url(#linearGradient4124);stroke-width:0.99999994;stroke-linecap:butt;stroke-linejoin:miter;stroke-miterlimit:4;stroke-opacity:1;stroke-dasharray:none"
       sodipodi:nodetypes="ccccccccccccc" />
    <path
       sodipodi:nodetypes="ccccccccccccc"
       style="fill:none;stroke:url(#linearGradient4120);stroke-width:0.99999994px;stroke-linecap:butt;stroke-linejoin:round;stroke-opacity:1"
       d="M 4,0.5 0.5,4 l 4,4 -4,4 3.5,3.5 4,-4 4,4 3.5,-3.5 -4,-4 4,-4 -3.5,-3.5 -4,4 z"
       id="path4122"
       inkscape:connector-curvature="0" />
  </g>
  <g
     inkscape:groupmode="layer"
     id="layer12"
     inkscape:label="cross medium"
     style="display:none">
    <path
       inkscape:connector-curvature="0"
       id="path4132"
       d="M 4.5,3 3,4.5 6.5,8 3,11.5 4.5,13 8,9.5 11.5,13 13,11.5 9.5,8 13,4.5 11.5,3 8,6.5 z"
       style="fill:url(#linearGradient4136);fill-opacity:1;stroke:url(#linearGradient4134);stroke-width:1px;stroke-linecap:butt;stroke-linejoin:round;stroke-opacity:1"
       sodipodi:nodetypes="ccccccccccccc" />
    <path
       style="fill:none;stroke:url(#linearGradient9292);stroke-width:1px;stroke-linecap:butt;stroke-linejoin:round;stroke-opacity:1"
       d="m 4.5,2.5137061 -2,2 3.5,3.5 -3.5,3.4999999 2,2 3.5,-3.5 3.5,3.5 2,-2 -3.5,-3.4999999 3.5,-3.5 -2,-2 -3.5,3.5 -3.5,-3.5 z"
       id="path8739"
       inkscape:connector-curvature="0" />
  </g>
  <g
     inkscape:groupmode="layer"
     id="g4110"
     inkscape:label="cross small"
     style="display:none">
    <path
       style="fill:url(#linearGradient4114);fill-opacity:1;stroke:url(#linearGradient4116);stroke-width:1px;stroke-linecap:butt;stroke-linejoin:round;stroke-opacity:1"
       d="M 5.9545455,4.5 4.5,5.9545454 7.045455,8.5 4.5,11.045455 5.9545455,12.5 8.5,9.954546 11.045455,12.5 12.5,11.045455 9.954546,8.5 12.5,5.9545454 11.045455,4.5 8.5,7.045455 5.9545455,4.5 z"
       id="path4112"
       inkscape:connector-curvature="0" />
  </g>
  <g
     style="display:none"
     inkscape:label="plus"
     id="g9419"
     inkscape:groupmode="layer">
    <path
       inkscape:connector-curvature="0"
       id="path9421"
       d="m 5.5,0.5 0,5 -5,0 0,5 5,0 0,5 5,0 0,-5 5,0 0,-5 -5,0 0,-5 z"
       style="fill:url(#linearGradient4102);fill-opacity:1;stroke:url(#linearGradient4104);stroke-width:0.99999994px;stroke-linecap:butt;stroke-linejoin:round;stroke-opacity:1"
       sodipodi:nodetypes="ccccccccccccc" />
    <path
       sodipodi:nodetypes="ccccccccccccc"
       style="fill:url(#linearGradient4102);fill-opacity:1;stroke:url(#linearGradient4140);stroke-width:1;stroke-linecap:butt;stroke-linejoin:miter;stroke-miterlimit:4;stroke-opacity:1;stroke-dasharray:none"
       d="m 6.5,1.5 0,5 -5,0 0,3 5,0 0,5 3,0 0,-5 5,0 0,-3 -5,0 0,-5 z"
       id="path4138"
       inkscape:connector-curvature="0" />
  </g>
  <g
     inkscape:groupmode="layer"
     id="g4098"
     inkscape:label="plus medium"
     style="display:none">
    <path
       inkscape:connector-curvature="0"
       id="path4142"
       d="M 7,3 7,7 3,7 3,9 7,9 7,13 9,13 9,9 13,9 13,7 9,7 9,3 z"
       style="fill:url(#linearGradient4144);fill-opacity:1;stroke:url(#linearGradient4146);stroke-width:0.99999994px;stroke-linecap:butt;stroke-linejoin:round;stroke-opacity:1"
       sodipodi:nodetypes="ccccccccccccc" />
    <path
       style="fill:none;stroke:url(#linearGradient9448);stroke-width:1px;stroke-linecap:butt;stroke-linejoin:round;stroke-opacity:1"
       d="m 6.5,2.5 0,4 -4,0 0,3 4,0 0,4 3,0 0,-4 4,0 0,-3 -4,0 0,-4 z"
       id="path4100"
       inkscape:connector-curvature="0" />
  </g>
  <g
     inkscape:groupmode="layer"
     id="g4090"
     inkscape:label="plus small"
     style="display:none">
    <path
       style="fill:url(#linearGradient4094);fill-opacity:1;stroke:url(#linearGradient4096);stroke-width:1px;stroke-linecap:butt;stroke-linejoin:round;stroke-opacity:1"
       d="m 7.5,4.5 0,3 -3,0 0,2 3,0 0,3 2,0 0,-3 3,0 0,-2 -3,0 0,-3 z"
       id="path4092"
       inkscape:connector-curvature="0"
       sodipodi:nodetypes="ccccccccccccc" />
  </g>
  <g
     inkscape:groupmode="layer"
     id="g4730"
     inkscape:label="minus"
     style="display:none">
    <path
       sodipodi:nodetypes="ccccc"
       style="fill:url(#linearGradient4102);fill-opacity:1;stroke:url(#linearGradient4104);stroke-width:0.99999994px;stroke-linecap:butt;stroke-linejoin:round;stroke-opacity:1"
       d="m 0.5,5.5 0,5 c 5.4455007,0 9.650267,0 15,0 l 0,-5 z"
       id="path4732"
       inkscape:connector-curvature="0" />
    <path
       inkscape:connector-curvature="0"
       id="path4734"
       d="m 1.5,6.5 0,3 13,0 0,-3 z"
       style="fill:url(#linearGradient4773);fill-opacity:1;stroke:url(#linearGradient4775);stroke-width:1;stroke-linecap:butt;stroke-linejoin:miter;stroke-miterlimit:4;stroke-opacity:1;stroke-dasharray:none"
       sodipodi:nodetypes="ccccc" />
  </g>
  <g
     style="display:none"
     inkscape:label="minus medium"
     id="g4736"
     inkscape:groupmode="layer">
    <path
       sodipodi:nodetypes="ccccc"
       style="fill:url(#linearGradient4777);fill-opacity:1;stroke:url(#linearGradient4779);stroke-width:0.99999994px;stroke-linecap:butt;stroke-linejoin:round;stroke-opacity:1"
       d="M 3,7 3,9 13,9 13,7 z"
       id="path4738"
       inkscape:connector-curvature="0" />
    <path
       inkscape:connector-curvature="0"
       id="path4740"
       d="m 2.5,6.5 0,3 11,0 0,-3 z"
       style="fill:none;stroke:url(#linearGradient9448);stroke-width:1px;stroke-linecap:butt;stroke-linejoin:round;stroke-opacity:1"
       sodipodi:nodetypes="ccccc" />
  </g>
  <g
     style="display:none"
     inkscape:label="minus small"
     id="g4742"
     inkscape:groupmode="layer">
    <path
       inkscape:connector-curvature="0"
       id="path4744"
       d="m 4.4999998,7.4999997 0,1.9999999 8.0000002,0 0,-1.9999999 z"
       style="fill:url(#linearGradient4797);fill-opacity:1;stroke:url(#linearGradient4799);stroke-width:1px;stroke-linecap:butt;stroke-linejoin:round;stroke-opacity:1"
       sodipodi:nodetypes="ccccc" />
  </g>
  <g
     inkscape:groupmode="layer"
     id="layer23"
     inkscape:label="tick"
     style="display:none">
    <path
       inkscape:export-ydpi="90"
       inkscape:export-xdpi="90"
       inkscape:export-filename="/home/www/scrivo/ScrivoIcons/16/tick.png"
       sodipodi:nodetypes="cccccccccccc"
       inkscape:connector-curvature="0"
       id="path4148"
       d="M 3.4605189,8.450495 2.5461625,9.3648515 C 1.9619727,10.030613 1.9917584,10.03539 2.7014842,10.644059 l 4.4256189,3.729703 c 0.8354356,0.696582 1.0207874,0.33568 1.3153465,-0.07884 L 14.657673,2.590099 13.566335,1.5361386 c -0.75609,-0.80209634 -0.885195,-0.1006863 -1.14641,0.3716584 0,0 -3.8882917,7.1504714 -4.0764853,7.4570545 C 7.9236348,10.013234 6.8082544,10.461415 5.9987615,9.7996282 L 4.8523506,8.7207921 C 4.1344159,8.0537115 4.0365421,7.9036798 3.4605189,8.450495 z"
       style="fill:url(#linearGradient22369);fill-opacity:1;stroke:url(#linearGradient4150);stroke-width:1px;stroke-linecap:butt;stroke-linejoin:round;stroke-opacity:1" />
    <path
       style="fill:none;stroke:url(#linearGradient22361);stroke-width:1px;stroke-linecap:butt;stroke-linejoin:round;stroke-opacity:1"
       d="M 2.9874991,8 1.7577962,9.1621287 C 1.543811,9.4211634 1.4840526,9.6779521 1.4874991,10.004455 c 0.00345,0.326504 0.2679456,0.684654 0.4256188,0.819802 l 5.0563119,4.247773 c 0,0 0.4553717,0.455601 1.0180693,0.42797 0.5626976,-0.02763 0.7252475,-0.461757 0.7252475,-0.461757 L 15.487499,2.5 13.859157,0.90544554 C 13.498761,0.61262376 13.32674,0.48469564 12.987499,0.5 c -0.339241,0.0153044 -0.657673,0.27029703 -0.770297,0.5068069 0,0 -4.1360638,7.6234912 -4.3242574,7.9300743 C 7.4731397,9.5852637 6.7181554,9.6955739 6.2690585,9.2365099 L 4.9874991,8 c 0,0 -0.5,-0.5 -1,-0.5 -0.5,0 -1,0.5 -1,0.5 z"
       id="path21761"
       inkscape:connector-curvature="0"
       sodipodi:nodetypes="cczcczccczcccczc"
       inkscape:export-filename="/home/www/scrivo/ScrivoIcons/16/tick.png"
       inkscape:export-xdpi="90"
       inkscape:export-ydpi="90" />
  </g>
  <g
     inkscape:groupmode="layer"
     id="layer1"
     inkscape:label="tick medium"
     style="display:none">
    <path
       style="fill:url(#linearGradient4698);fill-opacity:1;stroke:url(#linearGradient4803);stroke-width:0.99999994px;stroke-linecap:butt;stroke-linejoin:round;stroke-opacity:1;display:inline"
       d="m 4.0449996,8.3176399 -0.854694,0.695423 C 2.8166638,9.4771365 3.0215439,9.5781051 3.5193985,10.01251 L 7,12.707056 C 7.621931,13.187528 7.7032754,13.032314 8,12.5 L 12.872581,4.0477822 12.013546,3.2432285 c -0.669738,-0.5763395 -0.662919,-0.131552 -0.844128,0.1382568 0,0 -3.0745314,5.2882218 -3.2223961,5.5137008 C 7.5100844,9.5194932 6.5205334,9.8153654 5.9862453,9.2748251 L 5.0270986,8.4132043 C 4.3911347,7.9480913 4.6253339,8.0357483 4.0449996,8.3176399 z"
       id="path4801"
       inkscape:connector-curvature="0"
       sodipodi:nodetypes="cccccccccccc"
       inkscape:export-filename="/home/www/scrivo/ScrivoIcons/16/spell.png"
       inkscape:export-xdpi="90"
       inkscape:export-ydpi="90" />
    <path
       inkscape:export-ydpi="90"
       inkscape:export-xdpi="90"
       inkscape:export-filename="/home/www/scrivo/ScrivoIcons/16/spell.png"
       sodipodi:nodetypes="cczcczccczcccczc"
       inkscape:connector-curvature="0"
       id="path23350"
       d="m 3.6786693,7.9831644 -0.9661859,0.854697 c -0.1681295,0.190511 -0.2150821,0.379369 -0.2123741,0.619499 0.0027,0.24013 0.2105258,0.503535 0.3344108,0.6029316 l 3.9727776,3.124065 c 0,0 0.3577884,0.335076 0.7999033,0.314755 0.4421155,-0.02032 0.5698326,-0.339605 0.5698326,-0.339605 L 13.5,3.9381367 12.220602,2.7654063 C 11.937436,2.5500477 11.802277,2.4559617 11.535733,2.4672174 c -0.266543,0.011254 -0.516736,0.1987925 -0.605226,0.3727361 0,0 -3.2497329,5.6067699 -3.3975976,5.8322489 -0.3298434,0.476859 -0.9230402,0.557987 -1.2758982,0.220365 L 5.2500823,7.9831644 c 0,0 -0.392853,-0.36773 -0.7857071,-0.36773 -0.392853,0 -0.7857059,0.36773 -0.7857059,0.36773 z"
       style="fill:none;stroke:url(#linearGradient4700);stroke-width:0.99999994px;stroke-linecap:butt;stroke-linejoin:round;stroke-opacity:1;display:inline" />
  </g>
  <g
     style="display:none"
     inkscape:label="tick small"
     id="g4805"
     inkscape:groupmode="layer">
    <path
       style="fill:url(#linearGradient4840);fill-opacity:1;stroke:url(#linearGradient4842);stroke-width:0.99999994px;stroke-linecap:butt;stroke-linejoin:round;stroke-opacity:1;display:inline"
       d="M 5.2500623,7.9831624 4.6352167,8.5280093 C 4.5282252,8.649455 4.4983463,8.7698471 4.5000695,8.9229236 c 0.00172,0.1530765 0.133971,0.3209903 0.212807,0.384353 l 2.5281311,1.9915094 c 0,0 0.2276836,0.213602 0.5090294,0.200648 0.2813463,-0.01295 0.3626208,-0.216489 0.3626208,-0.216489 L 11.5,5.4045637 10.685838,4.656979 C 10.505641,4.5196935 10.419631,4.4597162 10.250012,4.4668914 c -0.169618,0.00717 -0.3288321,0.1267249 -0.3851439,0.2376094 0,0 -2.0680119,3.5741683 -2.1621076,3.7179052 C 7.4928602,8.7263911 7.1153713,8.778108 6.8908253,8.5628829 L 6.2500524,7.9831624 c 0,0 -0.2499974,-0.2344181 -0.4999955,-0.2344181 -0.2499973,0 -0.4999946,0.2344181 -0.4999946,0.2344181 z"
       id="path4809"
       inkscape:connector-curvature="0"
       sodipodi:nodetypes="cczcczccczcccczc"
       inkscape:export-filename="/home/www/scrivo/ScrivoIcons/16/spell.png"
       inkscape:export-xdpi="90"
       inkscape:export-ydpi="90" />
  </g>
</svg>
