<?xml version="1.0" encoding="UTF-8" standalone="no"?>
<svg xmlns:rdf="http://www.w3.org/1999/02/22-rdf-syntax-ns#" xmlns="http://www.w3.org/2000/svg" height="16px" width="16px" version="1.1" xmlns:cc="http://creativecommons.org/ns#" xmlns:xlink="http://www.w3.org/1999/xlink" enable-background="new" xmlns:dc="http://purl.org/dc/elements/1.1/">
<defs>
<linearGradient id="g">
<stop stop-color="#2e588f" offset="0"/>
<stop stop-color="#15325a" offset="1"/>
</linearGradient>
<linearGradient id="k" y2="12.5" gradientUnits="userSpaceOnUse" y1="3.5" x2="9" x1="7">
<stop stop-color="#60635e" offset="0"/>
<stop stop-color="#2e3436" offset="1"/>
</linearGradient>
<linearGradient id="l" y2="12" gradientUnits="userSpaceOnUse" y1="4" x2="9" x1="7">
<stop stop-color="#ececea" offset="0"/>
<stop stop-color="#dee1db" offset="1"/>
</linearGradient>
<linearGradient id="m" x1="2.5" gradientUnits="userSpaceOnUse" y1="4.5" gradientTransform="matrix(1.07 0 0 1.14 -.590 -1.16)" x2="5.5" y2="11">
<stop stop-color="#eeeeec" offset="0"/>
<stop stop-color="#fff" offset=".615"/>
<stop stop-color="#d3d7cf" stop-opacity="0" offset="1"/>
</linearGradient>
<filter id="j" y="-.135" width="1.14" x="-.0719" height="1.27">
<feGaussianBlur stdDeviation="0.38553692"/>
</filter>
<linearGradient id="n" x1="7.85" xlink:href="#g" gradientUnits="userSpaceOnUse" y1="4.72" gradientTransform="matrix(1.03 0 0 1.03 0 -.418)" x2="8.97" y2="10.5"/>
<linearGradient id="o" x1="7.85" xlink:href="#g" gradientUnits="userSpaceOnUse" y1="4.72" gradientTransform="matrix(.947 0 0 1.11 0 -.452)" x2="8.97" y2="10.5"/>
<linearGradient id="i" y2="10.5" xlink:href="#g" gradientUnits="userSpaceOnUse" x2="8.97" gradientTransform="matrix(.947 0 0 1.11 0 -.452)" y1="4.72" x1="7.85"/>
<linearGradient id="h" y2="10.5" xlink:href="#g" gradientUnits="userSpaceOnUse" x2="8.97" gradientTransform="matrix(1.03 0 0 1.03 0 -.418)" y1="4.72" x1="7.85"/>
</defs>
<metadata>
<rdf:RDF>
<cc:Work rdf:about="">
<dc:format>image/svg+xml</dc:format>
<dc:type rdf:resource="http://purl.org/dc/dcmitype/StillImage"/>
<dc:title/>
<cc:license rdf:resource="http://creativecommons.org/publicdomain/zero/1.0/"/>
<dc:creator>
<cc:Agent>
<dc:title>Geert Bergman, geert@www.scrivo.org</dc:title>
</cc:Agent>
</dc:creator>
</cc:Work>
</rdf:RDF>
</metadata>
<rect ry="1.5" height="9" width="15" stroke="url(#k)" y="3.5" x=".5" fill="url(#l)"/>
<rect rx="1.5" ry="1.5" height="6.86" filter="url(#j)" width="12.9" stroke="url(#m)" y="4.55" x="1.55" stroke-width=".607" fill="none"/>
<g stroke-width="0" transform="scale(.923 1.08)" fill="url(#n)">
<path fill="url(#h)" d="m2.21 10.3v-5.73c0.91 0.00648 1.82-0.017 2.73 0.0215 0.428 0.00633 0.87 0.133 1.17 0.451 0.39 0.367 0.513 0.924 0.484 1.44 0.03 0.46-0.12 0.92-0.46 1.24-0.43 0.44-1.07 0.61-1.67 0.59-0.36 0-0.72-0.01-1.08 0v1.94h-1.16m1.16-4.76v1.84c0.417 0.00363 0.836 0.0112 1.25-0.0251 0.25 0 0.54-0.06 0.68-0.3 0.18-0.27 0.13-0.64 0.03-0.93-0.14-0.35-0.54-0.47-0.88-0.46-0.36-0.01-0.72-0.01-1.08-0.01"/>
</g>
<g stroke-width="0" fill="url(#o)">
<path d="m6.02 11.1v-1.19h1.01v1.19h-1.01"/>
<path fill="url(#i)" d="m7.96 9.06c0.367-0.0312 0.733-0.0625 1.1-0.0937 0.06 0.364 0.0364 0.819 0.38 1.05 0.423 0.237 1.03 0.19 1.37-0.175 0.2-0.25 0.2-0.72-0.1-0.91-0.2-0.16-0.4-0.27-0.6-0.34-0.37-0.11-0.72-0.28-1.06-0.45-0.36-0.15-0.71-0.37-0.86-0.75-0.28-0.64-0.27-1.46 0.23-1.99 0.44-0.46 1.12-0.62 1.69-0.58 0.588 0.0352 1.22 0.272 1.51 0.82 0.214 0.375 0.296 0.812 0.309 1.24-0.367 0.0433-0.733 0.0867-1.1 0.13 0-0.33 0-0.74-0.3-1-0.4-0.26-0.98-0.25-1.35 0.08-0.28 0.3-0.25 0.89 0.14 1.08 0.29 0.154 0.616 0.222 0.91 0.37 0.447 0.159 0.894 0.336 1.27 0.632 0.51 0.359 0.638 1.05 0.535 1.63-0.2 0.8-1 1.4-1.8 1.4-0.53 0-1.18 0-1.63-0.4-0.43-0.5-0.61-1.11-0.66-1.73"/>
<path d="m13 11.1v-1.19h1.01v1.19h-1.01"/>
</g>
</svg>
