<?xml version="1.0" encoding="UTF-8" standalone="no"?>
<svg xmlns:rdf="http://www.w3.org/1999/02/22-rdf-syntax-ns#" xmlns="http://www.w3.org/2000/svg" height="16px" width="16px" version="1.1" enable-background="new" xmlns:cc="http://creativecommons.org/ns#" xmlns:xlink="http://www.w3.org/1999/xlink" xmlns:dc="http://purl.org/dc/elements/1.1/">
<defs>
<linearGradient id="c" y2="16" gradientUnits="userSpaceOnUse" x2="8.02" y1=".546" x1="7.22">
<stop stop-color="#fcfaee" offset="0"/>
<stop stop-color="#f3eec3" offset="1"/>
</linearGradient>
<linearGradient id="b" y2=".546" gradientUnits="userSpaceOnUse" x2="7.22" y1="16" x1="8.02">
<stop stop-color="#3c4446" offset="0"/>
<stop stop-color="#7a7d77" offset="1"/>
</linearGradient>
<linearGradient id="a" y2="10.9" gradientUnits="userSpaceOnUse" x2="8.48" y1="1.98" x1="7.42">
<stop stop-color="#235093" offset="0"/>
<stop stop-color="#132c51" offset="1"/>
</linearGradient>
</defs>
<metadata>
<rdf:RDF>
<cc:Work rdf:about="">
<dc:format>image/svg+xml</dc:format>
<dc:type rdf:resource="http://purl.org/dc/dcmitype/StillImage"/>
<dc:title/>
<cc:license rdf:resource="http://creativecommons.org/publicdomain/zero/1.0/"/>
<dc:creator>
<cc:Agent>
<dc:title>Geert Bergman, geert@www.scrivo.org</dc:title>
</cc:Agent>
</dc:creator>
</cc:Work>
</rdf:RDF>
</metadata>
<g>
<path d="m4 0.5h8c1.38 0 2.5 1.12 2.5 2.5v7c0 1.38-0.989 2.41-1.97 2.44 0 0-0.0178 1.63-0.025 2.48-0.0072 0.853-0.285 0.82-1.22 0.008-1-0.8-2.79-2.4-2.79-2.4h-2.51-2c-1.38 0-2.5-1.1-2.5-2.5v-7c0-1.38 1.12-2.5 2.5-2.5z" stroke="url(#b)" fill="url(#c)"/>
<path d="m7.55 9.06h0.956c0.282 0 0.51 0.227 0.51 0.51v0.956c0 0.282-0.227 0.51-0.51 0.51h-0.956c-0.282 0-0.51-0.227-0.51-0.51v-0.956c0-0.282 0.227-0.51 0.51-0.51zm0.46-1.06s-0.00309-0.00935-0.704 0.000306c-0.21 0.01-0.3-0.11-0.3-0.25-0.01-0.57 0.14-0.92 1.31-1.83 0.36-0.35 0.88-0.81 0.79-1.31-0.08-0.46-0.45-0.85-1.08-0.86-0.63-0.02-0.99 0.36-1.02 0.81-0.01 0.25-0.25 0.45-0.51 0.45-0.5 0-0.51-0.01-1 0-0.23 0-0.49-0.24-0.49-0.5 0.01-0.69 0.23-1.15 0.78-1.64 0.55-0.48 1.31-0.84 2.23-0.84 0.922 0 1.65 0.361 2.21 0.856 0.559 0.494 0.774 1.24 0.774 1.75s-0.281 1.18-0.86 1.76c-0.25 0.29-1.08 0.71-1.1 1.17-0.01 0.25-0.18 0.42-0.51 0.43-0.144 0.00225-0.345 0.00177-0.484 0.0061" fill="url(#a)"/>
</g>
</svg>
