<?xml version="1.0" encoding="UTF-8" standalone="no"?>
<svg xmlns:rdf="http://www.w3.org/1999/02/22-rdf-syntax-ns#" xmlns="http://www.w3.org/2000/svg" height="16px" width="16px" version="1.1" enable-background="new" xmlns:cc="http://creativecommons.org/ns#" xmlns:xlink="http://www.w3.org/1999/xlink" xmlns:dc="http://purl.org/dc/elements/1.1/">
<defs>
<linearGradient id="m" y2="16" xlink:href="#g" gradientUnits="userSpaceOnUse" x2="8" gradientTransform="matrix(.585 0 0 .534 7.63 7.25)" x1="6"/>
<linearGradient id="g">
<stop stop-color="#959793" offset="0"/>
<stop stop-color="#797d76" offset="1"/>
</linearGradient>
<linearGradient id="n" y2="6.06" xlink:href="#g" gradientUnits="userSpaceOnUse" x2="8.71" gradientTransform="matrix(.509 0 0 .472 8.76 7.21)" y1="2.5" x1="11.5"/>
<linearGradient id="l" y2="14" gradientUnits="userSpaceOnUse" x2="8" gradientTransform="matrix(.612 0 0 .550 7.43 7.11)" y1="2" x1="6">
<stop stop-color="#e8ecf1" offset="0"/>
<stop stop-color="#b8c2cd" offset="1"/>
</linearGradient>
<linearGradient id="k" y2="15" gradientUnits="userSpaceOnUse" x2="8" gradientTransform="matrix(.612 0 0 .550 7.43 7.11)" y1="1" x1="6">
<stop stop-color="#fdfeff" offset="0"/>
<stop stop-color="#d7d8e1" offset="1"/>
</linearGradient>
<linearGradient id="j" y2="2.05" gradientUnits="userSpaceOnUse" y1="3.5" gradientTransform="matrix(0.6 0 0 .543 7.51 7.16)" x2="12" x1="10.5">
<stop stop-color="#e8ecf1" offset="0"/>
<stop stop-color="#b8c2cd" offset="1"/>
</linearGradient>
<linearGradient id="i" y2="13.9" gradientUnits="userSpaceOnUse" y1="4.19" gradientTransform="matrix(.465 .473 .466 -.459 -3.36 10.4)" x2="3.09" x1="14.8">
<stop stop-color="#8ae234" offset="0"/>
<stop stop-color="#c8f39d" offset="1"/>
</linearGradient>
<linearGradient id="h" y2="14.4" gradientUnits="userSpaceOnUse" y1="3.74" gradientTransform="matrix(.465 .473 .466 -.459 -3.36 10.4)" x2="2.52" x1="15.3">
<stop stop-color="#316004" offset="0"/>
<stop stop-color="#52a108" offset="1"/>
</linearGradient>
<linearGradient id="q" x1="6" gradientUnits="userSpaceOnUse" y1="3.5" gradientTransform="matrix(.732 0 0 .731 2.22 2.07)" x2="7" y2="14.5">
<stop stop-color="#fdf9ee" offset="0"/>
<stop stop-color="#f9ecc7" offset="1"/>
</linearGradient>
<linearGradient id="r" x1="6" gradientUnits="userSpaceOnUse" y1="3.5" gradientTransform="matrix(.732 0 0 .731 2.22 2.07)" x2="7" y2="14.5">
<stop stop-color="#f8ebc5" offset="0"/>
<stop stop-color="#f3d88d" offset="1"/>
</linearGradient>
<linearGradient id="s" x1="6.5" gradientUnits="userSpaceOnUse" y1="9" gradientTransform="matrix(.732 0 0 .731 2.22 2.07)" x2="5.16" y2="4.69">
<stop stop-color="#e1c25e" offset="0"/>
<stop stop-color="#ecc778" offset="1"/>
</linearGradient>
<linearGradient id="t" x1="7.5" gradientUnits="userSpaceOnUse" y1="10" gradientTransform="matrix(.732 0 0 .731 2.22 2.07)" x2="8" y2="14">
<stop stop-color="#f8e694" offset="0"/>
<stop stop-color="#f0cb26" offset="1"/>
</linearGradient>
<linearGradient id="o" y2="3" gradientUnits="userSpaceOnUse" y1="15" x2="5.5" x1="7">
<stop stop-color="#b16d21" offset="0"/>
<stop stop-color="#d0a927" offset=".5"/>
<stop stop-color="#b16d21" offset="1"/>
</linearGradient>
<linearGradient id="p" x1="7" gradientUnits="userSpaceOnUse" x2="5.5" y1="15" y2="3">
<stop stop-color="#b16d21" offset="0"/>
<stop stop-color="#c09c24" offset=".614"/>
<stop stop-color="#b16d21" offset="1"/>
</linearGradient>
</defs>
<metadata>
<rdf:RDF>
<cc:Work rdf:about="">
<dc:format>image/svg+xml</dc:format>
<dc:type rdf:resource="http://purl.org/dc/dcmitype/StillImage"/>
<dc:title/>
<cc:license rdf:resource="http://creativecommons.org/publicdomain/zero/1.0/"/>
<dc:creator>
<cc:Agent>
<dc:title>Geert Bergman, geert@www.scrivo.org</dc:title>
</cc:Agent>
</dc:creator>
</cc:Work>
</rdf:RDF>
</metadata>
<g transform="translate(-2 -4)">
<path d="m2.59 5.36 0.73-0.73h3.66l0.73 0.73h4.39v2.19h0.732l0.732 0.731-1.1 4.38h-9.08l-0.73-0.8z" stroke-width="0" fill="none"/>
<g stroke-width="0">
<path fill="url(#q)" d="m8.44 8.28 0.74-0.73h3.66l0.732 0.731-1.1 4.38h-9.15l1.1-4.38z"/>
<path fill="url(#r)" d="m2.59 5.36 0.73-0.73h3.66l0.73 0.73h4.03l0.366 0.365v1.83h-2.92l-0.73 0.74h-4.03l-1.09 4.42-0.73-0.4z"/>
<path fill="url(#s)" d="m3.5 10.5v-5h2.5l1 1.04h4l0.0051 1.01h-1.83l-0.732 0.731h-4.03z"/>
<path fill="url(#t)" d="m5.39 9.52-0.93 2.78h6.94c0.303-1.22 0.588-2.56 0.916-3.78l-2.8-0.02-1 1z"/>
</g>
<g stroke-linejoin="round" transform="matrix(.735 0 0 .731 2.13 1.94)" stroke-width="1.36px" fill="none">
<path stroke="url(#o)" d="m0.5 4.5 1-1 4.44 0.00712 1.36 1.37h6.12l0.0419 2.72 1.3 0.0302 0.8 0.66-1.5 6.21h-13l-0.5-0.5z"/>
<path stroke-linecap="round" stroke="url(#p)" d="m3.22 8.98h4.76l1.36-1.37h5.44l0.68 0.684-1.5 6.21h-12.5z"/>
</g>
</g>
<path d="m13.5 7.43v1.9h2.1z" stroke-width="0" fill="url(#j)"/>
<g>
<path d="m8.96 7.93v7.15h6.12v-6.05l-1.22-1.1z" stroke="url(#k)" stroke-width="1.13" fill="url(#l)"/>
<path stroke-linejoin="round" d="m13.6 7.68v1.65h1.78-1.78z" stroke="url(#n)" stroke-linecap="square" fill="none"/>
<path stroke-linejoin="round" d="m8.51 7.52v8.01h7.02v-6.41l-1.76-1.6z" stroke="url(#m)" fill="none"/>
</g>
<path stroke-linejoin="round" d="m9.71 12-4.19 4.2v-2.8c-1.84-0.1-2.91-0.2-3.98-1.3-1.18-1.3-1.33-2.33-1.14-3.92 0.267-1.08 0.63-1.65 1.46-2.34 0.9-0.67 1.79-0.87 1.8-0.87-0.74 1.04-1.09 1.77-1.28 2.56-0.17 1.05-0.02 1.71 0.58 2.32 0.78 0.75 1.63 0.75 2.56 0.75v-2.81z" stroke="url(#h)" stroke-width="1px" fill="url(#i)"/>
</svg>
