<?xml version="1.0" encoding="UTF-8" standalone="no"?>
<svg xmlns:rdf="http://www.w3.org/1999/02/22-rdf-syntax-ns#" xmlns="http://www.w3.org/2000/svg" height="16px" width="16px" version="1.1" enable-background="new" xmlns:cc="http://creativecommons.org/ns#" xmlns:dc="http://purl.org/dc/elements/1.1/">
<metadata>
<rdf:RDF>
<cc:Work rdf:about="">
<dc:format>image/svg+xml</dc:format>
<dc:type rdf:resource="http://purl.org/dc/dcmitype/StillImage"/>
<dc:title/>
<cc:license rdf:resource="http://creativecommons.org/publicdomain/zero/1.0/"/>
<dc:creator>
<cc:Agent>
<dc:title>Geert Bergman, geert@www.scrivo.org</dc:title>
</cc:Agent>
</dc:creator>
</cc:Work>
</rdf:RDF>
</metadata>
<g>
<g>
<rect height="8" width="10" y="0" x="0" fill="#0d6996"/>
<rect height="2" width="10" y="3" x="0" fill="#f3c91b"/>
<rect height="8" width="2" y="0" x="2.5" fill="#f3c91b"/>
</g>
<rect opacity=".516" height="7" width="9" stroke="#000" y=".495" x=".504" fill="none"/>
<rect opacity=".175" height="5" width="7" stroke="#fff" stroke-linecap="square" y="1.49" x="1.5" fill="none"/>
<g>
<rect height="8" width="10" y="4" x="3" fill="#fff"/>
<rect height="8" width="3" y="4" x="3" fill="#3dc233"/>
<rect height="8" width="3" y="4" x="10" fill="#df2100"/>
<path d="m8 6.75c-0.55 0-1 0.34-1 0.75 0 0.19 0.09 0.37 0.25 0.5-0.16 0.13-0.25 0.31-0.25 0.5 0 0.41 0.45 0.75 1 0.75s1-0.34 1-0.75c0-0.19-0.12-0.37-0.28-0.5 0.16-0.13 0.28-0.31 0.28-0.5 0-0.41-0.45-0.75-1-0.75z" fill-rule="evenodd" fill="#8d7d6a"/>
</g>
<rect opacity=".516" height="7" width="9" stroke="#000" y="4.5" x="3.52" fill="none"/>
<rect opacity=".175" height="5" width="7" stroke="#fff" stroke-linecap="square" y="5.5" x="4.52" fill="none"/>
<g>
<rect ry="0" height="8" width="10" y="8" x="6" fill="#fafafa"/>
<rect height="2.78" width="9.98" y="8" x="6" fill="#df2100"/>
<rect height="2.78" width="9.98" y="13.2" x="6.02" fill="#002c8f"/>
</g>
<rect opacity=".516" height="7" width="9" stroke="#000" y="8.5" x="6.5" fill="none"/>
<rect opacity=".175" height="5" width="7" stroke="#fff" stroke-linecap="square" y="9.5" x="7.5" fill="none"/>
</g>
</svg>
