<?xml version="1.0" encoding="UTF-8" standalone="no"?>
<svg xmlns:rdf="http://www.w3.org/1999/02/22-rdf-syntax-ns#" xmlns="http://www.w3.org/2000/svg" height="16px" width="16px" version="1.1" enable-background="new" xmlns:cc="http://creativecommons.org/ns#" xmlns:xlink="http://www.w3.org/1999/xlink" xmlns:dc="http://purl.org/dc/elements/1.1/">
<defs>
<linearGradient id="i">
<stop stop-color="#bc8657" offset="0"/>
<stop stop-color="#845934" offset="1"/>
</linearGradient>
<linearGradient id="b" y2="9.61" xlink:href="#i" gradientUnits="userSpaceOnUse" x2="8.61" y1="1.52" x1="7.5"/>
<linearGradient id="a" y2="9.61" gradientUnits="userSpaceOnUse" x2="8.61" y1="1.52" x1="7.5">
<stop stop-color="#feead7" offset="0"/>
<stop stop-color="#ffdab7" offset="1"/>
</linearGradient>
<linearGradient id="h" y2="7" gradientUnits="userSpaceOnUse" x2="15" y1="1.5" x1="15">
<stop stop-color="#4e9a06" offset="0"/>
<stop stop-color="#316004" offset="1"/>
</linearGradient>
<linearGradient id="g" y2="7" gradientUnits="userSpaceOnUse" x2="15" y1="1.5" x1="15">
<stop stop-color="#8ae234" offset="0"/>
<stop stop-color="#4e9a06" offset="1"/>
</linearGradient>
<linearGradient id="c" y2="3.52" gradientUnits="userSpaceOnUse" x2="7.5" gradientTransform="matrix(.736 0 0 .661 .156 4.18)" y1=".5" x1="7">
<stop stop-color="#a4c1e1" offset="0"/>
<stop stop-color="#729fcf" offset="1"/>
</linearGradient>
<linearGradient id="d" y2="4" gradientUnits="userSpaceOnUse" x2="7.5" gradientTransform="matrix(.736 0 0 .661 .156 4.18)" x1="7">
<stop stop-color="#204a87" offset="0"/>
<stop stop-color="#4a7ab3" offset="1"/>
</linearGradient>
<linearGradient id="f" y2="15" gradientUnits="userSpaceOnUse" x2="8.94" gradientTransform="matrix(3.66 0 0 .663 -1.31 4.22)" y1=".978" x1="7.06">
<stop stop-color="#eeeeec" offset="0"/>
<stop stop-color="#dfdfdc" offset="1"/>
</linearGradient>
<linearGradient id="e" y2="15.5" gradientUnits="userSpaceOnUse" x2="9" gradientTransform="matrix(3.66 0 0 .663 -1.31 4.22)" y1=".5" x1="7">
<stop stop-color="#9fa19c" offset="0"/>
<stop stop-color="#666964" offset="1"/>
</linearGradient>
</defs>
<metadata>
<rdf:RDF>
<cc:Work rdf:about="">
<dc:format>image/svg+xml</dc:format>
<dc:type rdf:resource="http://purl.org/dc/dcmitype/StillImage"/>
<dc:title/>
<cc:license rdf:resource="http://creativecommons.org/publicdomain/zero/1.0/"/>
<dc:creator>
<cc:Agent>
<dc:title>Geert Bergman, geert@www.scrivo.org</dc:title>
</cc:Agent>
</dc:creator>
</cc:Work>
</rdf:RDF>
</metadata>
<g>
<path d="m0.524 4.55h11v9.94h-11z" stroke="url(#e)" fill="url(#f)"/>
<rect height="1.98" width="11" stroke="url(#d)" y="4.51" x=".524" fill="url(#c)"/>
<g stroke="#83847f" stroke-width="1px" fill="#888a85">
<path d="m2 9.5h2"/>
<path d="m5 9.5h5"/>
<path d="m2 11.5h2"/>
<path d="m5 11.5h5"/>
</g>
<g>
<g fill="url(#a)" stroke="url(#b)">
<path d="m13.6 2.57s-1.01-0.445-1.62-0.588c-0.6-0.15-1.7-0.38-2.6-0.43-1.38-0.08-2.65-0.06-4.14 0.21-0.8 0.14-2.06 0.22-1.89 1.07 0.14 0.65 0.94 0.59 1.31 0.54 0.88-0.13 0.55-0.07 1.65-0.22-1.04 1.02-3.88 3.88-3.88 3.88s-0.882 0.88-0.337 1.38c0.55 0.5 1.36-0.4 1.36-0.4l4.03-4.01-2.5 2.5s-0.25 0.44 0.23 0.81 0.93 0.13 1.27-0.31 2-2 2-2-2.42 2.46-2 2c-0.42 0.49-0.35 0.9 0.02 1.18 0.36 0.28 0.72 0.17 1-0.2s1.98-1.98 1.98-1.98l-1.34 1.34c-0.24 0.31-0.4 0.74 0.17 1.11 0.56 0.37 1.21-0.5 1.67-0.95 0.509-0.497 0.799-0.595 1.27-0.746 0.747-0.242 2.35-0.221 2.35-0.221z" stroke="url(#b)" stroke-width="0.8" fill="url(#a)"/>
</g>
</g>
<path stroke-linejoin="round" d="m16 1.5h-1.5v6h1.5" stroke="url(#h)" stroke-width="1px" fill="url(#g)"/>
</g>
</svg>
