<?xml version="1.0" encoding="UTF-8" standalone="no"?>
<svg xmlns:rdf="http://www.w3.org/1999/02/22-rdf-syntax-ns#" xmlns="http://www.w3.org/2000/svg" xmlns:osb="http://www.openswatchbook.org/uri/2009/osb" height="16px" width="16px" version="1.1" enable-background="new" xmlns:cc="http://creativecommons.org/ns#" xmlns:xlink="http://www.w3.org/1999/xlink" xmlns:dc="http://purl.org/dc/elements/1.1/">
<defs>
<linearGradient id="h" y2="13" gradientUnits="userSpaceOnUse" x2="8.5" gradientTransform="translate(-3.8 .841)" y1="3" x1="7.5">
<stop stop-color="#fff" offset="0"/>
<stop stop-color="#eeeeec" offset="1"/>
</linearGradient>
<linearGradient id="g" y2="2" gradientUnits="userSpaceOnUse" x2="7.5" gradientTransform="translate(-3.8 .841)" y1="14" x1="8.5">
<stop stop-color="#3f4046" stop-opacity=".941" offset="0"/>
<stop stop-color="#7b7d77" offset="1"/>
</linearGradient>
<linearGradient id="i" x1="6.05" spreadMethod="reflect" gradientUnits="userSpaceOnUse" y1="12" gradientTransform="translate(-1.06 .0436)" x2="5.42" y2="11.4">
<stop stop-color="#edd400" offset="0"/>
<stop stop-color="#eee59f" offset="1"/>
</linearGradient>
<radialGradient id="m" xlink:href="#a" gradientUnits="userSpaceOnUse" cy="10.2" cx="6.75" gradientTransform="matrix(.918 0 0 .958 .551 .426)" r="1.34"/>
<linearGradient id="a">
<stop stop-color="#c1d5ea" offset="0"/>
<stop stop-color="#5382b9" offset="1"/>
</linearGradient>
<radialGradient id="l" xlink:href="#a" gradientUnits="userSpaceOnUse" cy="3.53" cx="14.8" gradientTransform="matrix(-.393 .422 -.559 -.548 14.2 6.29)" r="1.65"/>
<linearGradient id="j" x1="9.39" gradientUnits="userSpaceOnUse" y1="5.75" gradientTransform="translate(-1.07 .0435)" x2="11.3" y2="7.72">
<stop stop-color="#729fcf" offset="0"/>
<stop stop-color="#a4c1e0" offset=".355"/>
<stop stop-color="#5382b9" offset="1"/>
</linearGradient>
<linearGradient id="k" x1="8.36" gradientUnits="userSpaceOnUse" y1="5.53" gradientTransform="translate(-1.07 .0435)" x2="11.5" y2="8.71">
<stop stop-color="#204a87" offset="0"/>
<stop stop-color="#4a7ab3" offset=".329"/>
<stop stop-color="#132c50" offset="1"/>
</linearGradient>
</defs>
<metadata>
<rdf:RDF>
<cc:Work rdf:about="">
<dc:format>image/svg+xml</dc:format>
<dc:type rdf:resource="http://purl.org/dc/dcmitype/StillImage"/>
<dc:title/>
<cc:license rdf:resource="http://creativecommons.org/publicdomain/zero/1.0/"/>
<dc:creator>
<cc:Agent>
<dc:title>Geert Bergman, geert@www.scrivo.org</dc:title>
</cc:Agent>
</dc:creator>
</cc:Work>
</rdf:RDF>
</metadata>
<g>
<rect stroke-linejoin="round" rx=".5" ry=".5" height="5" width="15" stroke="url(#g)" stroke-linecap="round" y="9.5" x=".5" fill="url(#h)"/>
<path d="m3.03 13v-2" stroke="#000" stroke-width=".5" fill="none"/>
<path d="m2.01 13v-2" stroke="#000" stroke-width=".5" fill="none"/>
</g>
<g style="enable-background:new" transform="translate(1.01 -.957)">
<g style="enable-background:new" transform="matrix(.81 0 0 .807 1.98 1.07)">
<g transform="matrix(1.25,0,0,1.25,-2.71,-1.34)">
<path stroke-linejoin="round" d="m4.22 9.25 1.03-1.02 2.52 2.57-1.01 1c-1.7 0.7-2.07 0.9-4.22 1.7 0.92-2.1 0.96-2.5 1.68-4.22z" stroke="#ab9500" stroke-width=".691" fill="url(#i)"/>
<path d="m2.22 13.4 0.713-1.74s-0.0673 0.754 0.286 1.15c0.406 0.454 1.19 0.34 1.19 0.34l-1.74 0.6c-0.3 0.2-0.63 0-0.45-0.4z" fill="#2e3436"/>
<g fill="url(#m)" transform="translate(6.5,-7.49)">
<path fill="url(#l)" d="m5.43 9.71a1.56 1.01 42.1 1 1 -0.00324 0.137"/>
</g>
<path stroke-linejoin="round" d="m11.9 1.56c0.361-0.36 1.43-0.0571 1.99 0.48 0.569 0.537 0.854 1.65 0.492 2.01-0.3 0.35-1.4 0.02-2-0.52-0.5-0.53-0.8-1.61-0.5-1.97zm0.0012-0.00667c-0.348 0.321 0.009 0.0134-0.0099-0.000552l-6.62 6.67c-0.27 0.28-0.35 1.46 0.35 2.18 0.65 0.7 1.87 0.6 2.18 0.3 0.05 0 6.59-6.66 6.59-6.66 0.0113-0.00976-0.0731 0.0887 0.0078 0 0.4-0.36 0.1-1.42-0.5-1.99-0.5-0.56-1.6-0.82-2-0.5z" stroke-opacity=".991" stroke="url(#k)" stroke-linecap="square" stroke-width=".790" fill="url(#j)"/>
</g>
</g>
</g>
</svg>
