<?xml version="1.0" encoding="UTF-8" standalone="no"?>
<svg xmlns:rdf="http://www.w3.org/1999/02/22-rdf-syntax-ns#" xmlns="http://www.w3.org/2000/svg" height="16px" width="16px" version="1.1" enable-background="new" xmlns:cc="http://creativecommons.org/ns#" xmlns:xlink="http://www.w3.org/1999/xlink" xmlns:dc="http://purl.org/dc/elements/1.1/">
<defs>
<linearGradient id="a">
<stop stop-color="#eeeeec" offset="0"/>
<stop stop-color="#babdb6" offset="1"/>
</linearGradient>
<linearGradient id="c" y2="7" gradientUnits="userSpaceOnUse" x2="11.5" gradientTransform="matrix(0 -1 1 0 -.00287 10)" y1="9" x1="1.52">
<stop stop-color="#8ae234" offset="0"/>
<stop stop-color="#c8f39d" offset="1"/>
</linearGradient>
<linearGradient id="b" y2="7" gradientUnits="userSpaceOnUse" x2="12.5" gradientTransform="matrix(0 -1 1 0 -.00287 10)" y1="9" x1=".519">
<stop stop-color="#316004" offset="0"/>
<stop stop-color="#52a108" offset="1"/>
</linearGradient>
<linearGradient id="f" y2="7" gradientUnits="userSpaceOnUse" x2="7" y1="14" x1="8">
<stop stop-color="#79888c" offset="0"/>
<stop stop-color="#606c70" offset=".643"/>
<stop stop-color="#6f7d81" offset="1"/>
</linearGradient>
<linearGradient id="e" y2="8.99" xlink:href="#a" gradientUnits="userSpaceOnUse" x2="8.04" y1="8.01" x1="8.04"/>
<linearGradient id="d" y2="10" xlink:href="#a" gradientUnits="userSpaceOnUse" x2="7.01" y1="13" x1="7.04"/>
</defs>
<metadata>
<rdf:RDF>
<cc:Work rdf:about="">
<dc:format>image/svg+xml</dc:format>
<dc:type rdf:resource="http://purl.org/dc/dcmitype/StillImage"/>
<dc:title/>
<cc:license rdf:resource="http://creativecommons.org/publicdomain/zero/1.0/"/>
<dc:creator>
<cc:Agent>
<dc:title>Geert Bergman, geert@www.scrivo.org</dc:title>
</cc:Agent>
</dc:creator>
</cc:Work>
</rdf:RDF>
</metadata>
<g>
<g>
<path stroke-linejoin="round" d="m1.52 14.2 11.4 0.0221 1.79-1.48v-1.7h-13.2z" stroke="#4d565a" stroke-width="1.6" fill="#2e3436"/>
<rect rx="0.5" ry=".5" height="4" width="13" y="9.5" x=".5" fill="url(#d)"/>
<path d="m3.5 7.5-2.5 2h12.5l2-2z" fill="url(#e)"/>
</g>
<path d="m13.5 13.5 2-2v-4l-2 2z" fill="#babdb6"/>
<path stroke-linejoin="round" d="m2.5 11.5h9" stroke="#77888c" stroke-linecap="round" stroke-width="1px" fill="#2e3436"/>
<path d="m10.5 10.5h1" stroke="#8ae234" stroke-linecap="round" stroke-width="1px" fill="#8ae234"/>
<path d="m11 10.6a0.605 0.589 0 1 1 -0.0109 0.111" fill-rule="evenodd" transform="matrix(.829 0 0 .851 1.9 1.42)" fill="#4e9a06"/>
<g stroke-width="1px">
<path d="m1 9.5h12.5" stroke="#fff" fill="#f9f9f9"/>
<path stroke-linejoin="round" d="m15 8-1 1c-0.5 0.5-0.5 0.5-0.5 1v3.5m-13-3.4c0.011-0.44 0.309-0.79 0.564-0.96 0.31-0.22 1.42-0.97 1.96-1.32 0.49-0.33 0.9-0.32 1.48-0.31h10c0.583-0.0033 0.999 0.432 1.01 0.989l-0.0063 2.35c-0.008 0.438-0.0209 0.7-0.363 1.03l-1.14 1.12c-0.5 0.5-0.7 0.6-1.5 0.6h-11c-0.603 0-0.998-0.4-1-1-0.002-0.7 0-1.7-0.004-2.4z" stroke="url(#f)" fill="none"/>
<path stroke-linejoin="round" d="m8 9.01-4.5-4.5h3v-4.01h3l-0.000855 4.01h3z" stroke="url(#b)" fill="url(#c)"/>
</g>
</g>
</svg>
