<?xml version="1.0" encoding="UTF-8" standalone="no"?>
<svg xmlns:rdf="http://www.w3.org/1999/02/22-rdf-syntax-ns#" xmlns="http://www.w3.org/2000/svg" height="16px" width="16px" version="1.1" enable-background="new" xmlns:cc="http://creativecommons.org/ns#" xmlns:xlink="http://www.w3.org/1999/xlink" xmlns:dc="http://purl.org/dc/elements/1.1/">
<defs>
<linearGradient id="h" y2="9.01" gradientUnits="userSpaceOnUse" y1="7.01" gradientTransform="matrix(0 1 -1 0 16 1.51)" x2="1.49" x1="13.5">
<stop stop-color="#faa330" offset="0"/>
<stop stop-color="#fed293" offset="1"/>
</linearGradient>
<linearGradient id="g" y2="9.01" gradientUnits="userSpaceOnUse" y1="7.01" gradientTransform="matrix(0 1 -1 0 16 1.51)" x2=".485" x1="14.3">
<stop stop-color="#8a3d00" offset="0"/>
<stop stop-color="#dd6700" offset="1"/>
</linearGradient>
<linearGradient id="j" y2="16" xlink:href="#d" gradientUnits="userSpaceOnUse" x2="8" gradientTransform="translate(1.01 -.000855)" x1="6"/>
<linearGradient id="d">
<stop stop-color="#959793" offset="0"/>
<stop stop-color="#797d76" offset="1"/>
</linearGradient>
<linearGradient id="i" y2="4" xlink:href="#d" gradientUnits="userSpaceOnUse" x2="10.5" gradientTransform="translate(1.01 -.000855)" y1="2.5" x1="11.5"/>
<linearGradient id="k" y2="2.05" gradientUnits="userSpaceOnUse" y1="3.5" gradientTransform="matrix(1 0 0 1.03 1 -.0619)" x2="12" x1="10.5">
<stop stop-color="#e8ecf1" offset="0"/>
<stop stop-color="#b8c2cd" offset="1"/>
</linearGradient>
<linearGradient id="f" y2="14" gradientUnits="userSpaceOnUse" y1="2" gradientTransform="translate(1.02 .0129)" x2="8" x1="6">
<stop stop-color="#e8ecf1" offset="0"/>
<stop stop-color="#b8c2cd" offset="1"/>
</linearGradient>
<linearGradient id="e" y2="15" gradientUnits="userSpaceOnUse" y1="1" gradientTransform="translate(1.02 .0129)" x2="8" x1="6">
<stop stop-color="#fdfeff" offset="0"/>
<stop stop-color="#d7d8e1" offset="1"/>
</linearGradient>
<linearGradient id="l" y2="100" gradientUnits="userSpaceOnUse" y1="-60" x2="-12" x1="-56">
<stop stop-color="#2e68c0" offset="0"/>
<stop stop-color="#2d67be" offset="1"/>
</linearGradient>
<radialGradient id="n" gradientUnits="userSpaceOnUse" cy="-34.2" cx="-41.5" gradientTransform="matrix(-.301 1.04 -.694 -.202 -72 3.25)" r="86">
<stop stop-color="#fff" stop-opacity=".895" offset="0"/>
<stop stop-color="#e3e6ea" stop-opacity=".438" offset=".5"/>
<stop stop-color="#132c51" stop-opacity=".192" offset="1"/>
</radialGradient>
<radialGradient id="m" gradientUnits="userSpaceOnUse" cy="21.6" cx="-93.7" gradientTransform="matrix(-.0305 .0478 -.052 -.0329 5.58 9.74)" r="78.9">
<stop stop-color="#fff" offset="0"/>
<stop stop-color="#fff" offset=".25"/>
<stop stop-color="#9ae650" offset=".5"/>
<stop stop-color="#63c308" offset="1"/>
</radialGradient>
</defs>
<metadata>
<rdf:RDF>
<cc:Work rdf:about="">
<dc:format>image/svg+xml</dc:format>
<dc:type rdf:resource="http://purl.org/dc/dcmitype/StillImage"/>
<dc:title/>
<cc:license rdf:resource="http://creativecommons.org/publicdomain/zero/1.0/"/>
<dc:creator>
<cc:Agent>
<dc:title>Geert Bergman, geert@www.scrivo.org</dc:title>
</cc:Agent>
</dc:creator>
</cc:Work>
</rdf:RDF>
</metadata>
<g>
<path d="m3.52 1.51v13h10v-11l-2-2z" stroke="url(#e)" stroke-width="1px" fill="url(#f)"/>
<path d="m11 0.451v3.59h3.5z" stroke-width="0" fill="url(#k)"/>
<path stroke-linejoin="round" d="m10.5 0.999v3.5h3.5-3.5z" stroke="url(#i)" stroke-linecap="square" stroke-width="1px" fill="none"/>
<path stroke-linejoin="round" d="m2.51 0.499v15h12v-12l-3-3z" stroke="url(#j)" stroke-width="1px" fill="none"/>
<g transform="translate(2.51 2.52)">
<path d="m60 18a86 86 0 1 1 -172 0 86 86 0 1 1 172 0z" fill-rule="evenodd" transform="matrix(.064 0 0 .0638 9.66 6.84)" fill="url(#l)"/>
<path d="m60 18a86 86 0 1 1 -172 0 86 86 0 1 1 172 0z" fill-rule="evenodd" transform="matrix(.0636 0 0 .0639 9.67 6.86)" fill="url(#n)"/>
<path style="block-progression:tb;color:#000000;enable-background:accumulate;text-transform:none;text-indent:0" fill="url(#m)" d="m6.26 4.87c0.49 0.21 1.07 0.55 1.61 0.32 0.65-0.16 0.55-0.93 0.02-1.17-0.39-0.57-1.11-0.48-1.58-0.06-0.37 0.22-0.36 0.64-0.05 0.91zm3.46 7.43c-0.36-0.2-0.85 0.4-0.24 0.3 0.22 0.1 1.02 0 0.62-0.3h-0.38zm0.88-0.3c-0.279 0.551 0.738 0.0608 0.0902-0.0014h-0.1zm-5.35-8.24c-0.25 0.63-1.12 0.17-1.25 0.89-0.23 0.4-0.71 0.81-0.2 1.24 0.23 0.33 0.38 0.58 0.77 0.66 0.35 0.34 0.02 0.91 0.52 1.09 0.18 0.38 0.49 0.75 0.9 0.72 0.26 0.46 1.16 0.17 0.76-0.34-0.23-0.18-1.09 0.06-0.82-0.43 0.4-0.08 1.13 0.25 1.22-0.27 0.04-0.52 0.38-0.92 0.64-1.3-0.05-0.45-0.64-0.61-0.83-0.21-0.22-0.19-0.43-0.46-0.7-0.47-0.29-0.36-1.43-0.56-0.89-1.15 0.18-0.17 0.19-0.42-0.12-0.43zm-2.11 4.2c-0.32 0.38 0.56 0.31 0.15 0-0.04-0.03-0.11-0.04-0.15 0zm6.86-4.77c-0.53-0.11-0.83 0.45-1.21 0.74-0.37 0.31-0.56 1.23 0.05 1.36 0.47-0.1 0.9-0.3 1.36-0.38 0.2-0.48 0.1-1.05 0-1.56 0.1-0.18 0-0.18-0.2-0.16zm0.322 1.67c-0.689 0.152 0.494 0.67 0.14 0.0372v-0.03l-0.1-0.01zm-2.71-2.14c-0.37 0.39-0.06 1.03 0.49 0.83 0.31 0.08 1.12-0.11 0.58-0.47-0.39-0.01-0.84 0.01-1.07-0.36zm-0.58 0.4c-0.75 0.161 0.546 0.707 0.172 0.0443l-0.08-0.03-0.09-0.01zm4.83 1.73c-0.628 0.015-0.467 0.977-0.964 0.965-0.445 0.0817-0.182 0.512-0.0753 0.688-0.0923 0.578-0.226 1.18-0.629 1.61-0.0216 0.413 0.388 0.758 0.4 1.14 0.429 0.0952 1.04 0.00998 1.02 0.636 0.395 0.439 1.26 0.149 1.17-0.494 0.3-0.41 0.6-0.92 0.7-1.45 0-0.74 0-1.55-0.4-2.2-0.1-0.51-0.6-1.15-1.2-0.89zm-4.44 3.2c-0.56 0.25-0.18 1.1-0.66 1.43 0.08 0.45 0.64 0.72 0.37 1.22 0.09 0.4-0.2 1.3 0.33 1.4 0.35-0.3 0.29-1 0.77-1.1 0.48-0.2 0.68-0.8 1.03-1.15 0.24-0.41-0.09-0.72-0.47-0.72-0.13-0.39-0.31-0.78-0.8-0.68-0.21-0.09-0.34-0.29-0.53-0.4z"/>
<path opacity=".293" d="m15.7 8.02a7.6 7.55 0 1 1 -15.2 0 7.6 7.55 0 1 1 15.2 0z" transform="matrix(.659 0 0 .664 2.67 2.67)" stroke="#000" stroke-width="1.51" fill="none"/>
</g>
<path stroke-linejoin="round" d="m8.03 2 4.5 4.5-3 0.00217-0.00478 4h-3l0.00478-4h-3z" stroke="url(#g)" stroke-width="1px" fill="url(#h)"/>
</g>
</svg>
