<?xml version="1.0" encoding="UTF-8" standalone="no"?>
<svg xmlns:rdf="http://www.w3.org/1999/02/22-rdf-syntax-ns#" xmlns="http://www.w3.org/2000/svg" height="16px" width="16px" version="1.1" enable-background="new" xmlns:cc="http://creativecommons.org/ns#" xmlns:xlink="http://www.w3.org/1999/xlink" xmlns:dc="http://purl.org/dc/elements/1.1/">
<defs>
<linearGradient id="b">
<stop stop-color="#eeeeec" offset="0"/>
<stop stop-color="#babdb6" offset="1"/>
</linearGradient>
<linearGradient id="f" y2="9.01" gradientUnits="userSpaceOnUse" y1="7.01" gradientTransform="matrix(0 1 -1 0 16 1.51)" x2="1.49" x1="13.5">
<stop stop-color="#faa330" offset="0"/>
<stop stop-color="#fed293" offset="1"/>
</linearGradient>
<linearGradient id="e" y2="9.01" gradientUnits="userSpaceOnUse" y1="7.01" gradientTransform="matrix(0 1 -1 0 16 1.51)" x2=".485" x1="14.3">
<stop stop-color="#8a3d00" offset="0"/>
<stop stop-color="#dd6700" offset="1"/>
</linearGradient>
<linearGradient id="h" y2="16" xlink:href="#a" gradientUnits="userSpaceOnUse" x2="8" gradientTransform="translate(1.01 -.000855)" x1="6"/>
<linearGradient id="a">
<stop stop-color="#959793" offset="0"/>
<stop stop-color="#797d76" offset="1"/>
</linearGradient>
<linearGradient id="g" y2="4" xlink:href="#a" gradientUnits="userSpaceOnUse" x2="10.5" gradientTransform="translate(1.01 -.000855)" y1="2.5" x1="11.5"/>
<linearGradient id="i" y2="2.05" gradientUnits="userSpaceOnUse" y1="3.5" gradientTransform="matrix(1 0 0 1.03 1 -.0619)" x2="12" x1="10.5">
<stop stop-color="#e8ecf1" offset="0"/>
<stop stop-color="#b8c2cd" offset="1"/>
</linearGradient>
<linearGradient id="d" y2="14" gradientUnits="userSpaceOnUse" y1="2" gradientTransform="translate(1.02 .0129)" x2="8" x1="6">
<stop stop-color="#e8ecf1" offset="0"/>
<stop stop-color="#b8c2cd" offset="1"/>
</linearGradient>
<linearGradient id="c" y2="15" gradientUnits="userSpaceOnUse" y1="1" gradientTransform="translate(1.02 .0129)" x2="8" x1="6">
<stop stop-color="#fdfeff" offset="0"/>
<stop stop-color="#d7d8e1" offset="1"/>
</linearGradient>
<linearGradient id="l" y2="7" gradientUnits="userSpaceOnUse" x2="7" gradientTransform="translate(0,1)" y1="14" x1="8">
<stop stop-color="#79888c" offset="0"/>
<stop stop-color="#606c70" offset=".643"/>
<stop stop-color="#6f7d81" offset="1"/>
</linearGradient>
<linearGradient id="k" y2="8.99" xlink:href="#b" gradientUnits="userSpaceOnUse" x2="8.04" gradientTransform="translate(0,1)" y1="8.01" x1="8.04"/>
<linearGradient id="j" y2="10" xlink:href="#b" gradientUnits="userSpaceOnUse" x2="7.01" gradientTransform="translate(0,1)" y1="13" x1="7.04"/>
</defs>
<metadata>
<rdf:RDF>
<cc:Work rdf:about="">
<dc:format>image/svg+xml</dc:format>
<dc:type rdf:resource="http://purl.org/dc/dcmitype/StillImage"/>
<dc:title/>
<cc:license rdf:resource="http://creativecommons.org/publicdomain/zero/1.0/"/>
<dc:creator>
<cc:Agent>
<dc:title>Geert Bergman, geert@www.scrivo.org</dc:title>
</cc:Agent>
</dc:creator>
</cc:Work>
</rdf:RDF>
</metadata>
<g>
<path d="m3.52 1.51v13h10v-11l-2-2z" stroke="url(#c)" stroke-width="1px" fill="url(#d)"/>
<path d="m11 0.451v3.59h3.5z" stroke-width="0" fill="url(#i)"/>
<path stroke-linejoin="round" d="m10.5 0.999v3.5h3.5-3.5z" stroke="url(#g)" stroke-linecap="square" stroke-width="1px" fill="none"/>
<path stroke-linejoin="round" d="m2.51 0.499v15h12v-12l-3-3z" stroke="url(#h)" stroke-width="1px" fill="none"/>
<g>
<path stroke-linejoin="round" d="m1.52 15.2 11.4 0.0221 1.79-1.48v-1.7h-13.2z" stroke="#4d565a" stroke-width="1.6" fill="#2e3436"/>
<rect rx="0.5" ry=".5" height="4" width="13" y="10.5" x=".5" fill="url(#j)"/>
<path d="m3.5 8.5-2.5 2h12.5l2-2z" fill="url(#k)"/>
</g>
<path d="m13.5 14.5 2-2v-4l-2 2z" fill="#babdb6"/>
<path stroke-linejoin="round" d="m2.5 12.5h9" stroke="#77888c" stroke-linecap="round" stroke-width="1px" fill="#2e3436"/>
<path d="m10.5 11.5h1" stroke="#8ae234" stroke-linecap="round" stroke-width="1px" fill="#8ae234"/>
<path d="m11 10.6a0.605 0.589 0 1 1 -0.0109 0.111" fill-rule="evenodd" transform="matrix(.829 0 0 .851 1.9 2.42)" fill="#4e9a06"/>
<g stroke-width="1px">
<path d="m1 10.5h12.5" stroke="#fff" fill="#f9f9f9"/>
<path stroke-linejoin="round" d="m15 9-1 1c-0.5 0.5-0.5 0.5-0.5 1v3.5m-13-3.4c0.011-0.4 0.309-0.8 0.564-1 0.31-0.18 1.42-0.93 1.96-1.28 0.49-0.33 0.9-0.32 1.48-0.31h10c0.583-0.0033 0.999 0.432 1.01 0.989l-0.0063 2.35c-0.008 0.438-0.0209 0.7-0.363 1.03l-1.14 1.12c-0.5 0.5-0.7 0.6-1.5 0.6h-11c-0.603 0-0.998-0.4-1-1-0.002-0.7 0-1.7-0.004-2.4z" stroke="url(#l)" fill="none"/>
<path stroke-linejoin="round" d="m8.03 2 4.5 4.5-3 0.00217-0.00478 4h-3l0.00478-4h-3z" stroke="url(#e)" fill="url(#f)"/>
</g>
</g>
</svg>
