<?xml version="1.0" encoding="UTF-8" standalone="no"?>
<svg xmlns:rdf="http://www.w3.org/1999/02/22-rdf-syntax-ns#" xmlns="http://www.w3.org/2000/svg" height="16px" width="16px" version="1.1" enable-background="new" xmlns:cc="http://creativecommons.org/ns#" xmlns:xlink="http://www.w3.org/1999/xlink" xmlns:dc="http://purl.org/dc/elements/1.1/">
<defs>
<linearGradient id="c" y2="2" gradientUnits="userSpaceOnUse" x2="6" y1="16" x1="7.5">
<stop offset="0"/>
<stop stop-color="#2e3436" offset="1"/>
</linearGradient>
<linearGradient id="d" x1="6.05" spreadMethod="reflect" gradientUnits="userSpaceOnUse" y1="12" gradientTransform="matrix(1.01 0 0 1.02 -1.16 -.169)" x2="5.42" y2="11.4">
<stop stop-color="#edd400" offset="0"/>
<stop stop-color="#eee59f" offset="1"/>
</linearGradient>
<radialGradient gradientUnits="userSpaceOnUse" cy="10.2" cx="6.75" gradientTransform="matrix(.918 0 0 .958 .551 .426)" r="1.34">
<stop stop-color="#f89999" offset="0"/>
<stop stop-color="#dd1414" offset="1"/>
</radialGradient>
<linearGradient id="e" x1="9.39" gradientUnits="userSpaceOnUse" y1="5.75" gradientTransform="matrix(1.01 0 0 1.02 -1.17 -.169)" x2="11.3" y2="7.72">
<stop stop-color="#ef2929" offset="0"/>
<stop stop-color="#f47070" offset=".355"/>
<stop stop-color="#dd1414" offset="1"/>
</linearGradient>
<linearGradient id="a" x1="8.36" gradientUnits="userSpaceOnUse" y1="5.53" gradientTransform="matrix(1.01 0 0 1.02 -1.17 -.169)" x2="11.5" y2="8.71">
<stop stop-color="#a40000" offset="0"/>
<stop stop-color="#d80e0e" offset=".329"/>
<stop stop-color="#5f0000" offset="1"/>
</linearGradient>
<linearGradient id="b" y2="13.5" xlink:href="#a" gradientUnits="userSpaceOnUse" x2="3.23" y1="12.9" x1="2.47"/>
</defs>
<metadata>
<rdf:RDF>
<cc:Work rdf:about="">
<dc:format>image/svg+xml</dc:format>
<dc:type rdf:resource="http://purl.org/dc/dcmitype/StillImage"/>
<dc:title/>
<cc:license rdf:resource="http://creativecommons.org/publicdomain/zero/1.0/"/>
<dc:creator>
<cc:Agent>
<dc:title>Geert Bergman, geert@www.scrivo.org</dc:title>
</cc:Agent>
</dc:creator>
</cc:Work>
</rdf:RDF>
</metadata>
<g>
<rect ry="0" height="10" width="10" y="4" x="2" fill="#fff"/>
<path fill="url(#c)" d="m0 2v14h14v-14h-14zm7 3c2.21 0 4 1.79 4 4s-1.79 4-4 4-4-1.8-4-4c0-2.21 1.79-4 4-4z"/>
<g style="enable-background:new" transform="matrix(1.26 0 0 1.24 5.02 -7.83)">
<g style="enable-background:new">
<g transform="matrix(1.25,0,0,1.25,-2.71,-1.34)">
<path stroke-linejoin="round" d="m4.16 9.22 1.04-1.04 2.54 2.62-1.02 1c-1.71 0.699-2.08 0.833-4.25 1.72 0.725-1.71 1.24-3.17 1.69-4.32z" stroke="#ab9500" stroke-width=".641" fill="url(#d)"/>
<path d="m2.93 11.6s-0.0678 0.789 0.317 1.15c0.38 0.4 1.14 0.356 1.14 0.356l-1.81 0.7c-0.22 0.1-0.52-0.1-0.38-0.4 0.22-0.6 0.49-1.3 0.73-1.8z" fill="url(#b)"/>
<path stroke-linejoin="round" d="m7.25 6.12-2.03 2.05c-0.275 0.278-0.326 1.46 0.387 2.19 0.653 0.67 1.88 0.669 2.2 0.369 0.0474-0.044 1.35-1.39 1.35-1.39v-3.22h-1.91z" stroke-opacity=".991" stroke="url(#a)" stroke-linecap="square" stroke-width=".641" fill="url(#e)"/>
</g>
</g>
</g>
</g>
</svg>
