<?xml version="1.0" encoding="UTF-8" standalone="no"?>
<svg xmlns:rdf="http://www.w3.org/1999/02/22-rdf-syntax-ns#" xmlns="http://www.w3.org/2000/svg" xmlns:osb="http://www.openswatchbook.org/uri/2009/osb" height="16px" width="16px" version="1.1" enable-background="new" xmlns:cc="http://creativecommons.org/ns#" xmlns:xlink="http://www.w3.org/1999/xlink" xmlns:dc="http://purl.org/dc/elements/1.1/">
<defs>
<filter id="d" height="1.23" width="1.23" y="-.116" x="-.116">
<feGaussianBlur stdDeviation="0.5814978"/>
</filter>
<linearGradient id="c" y2="1.5" gradientUnits="userSpaceOnUse" x2="5" y1="14" x1="11">
<stop stop-color="#c00" offset="0"/>
<stop stop-color="#f57b7b" offset="1"/>
</linearGradient>
<linearGradient id="b" y2="1" gradientUnits="userSpaceOnUse" x2="5" y1="15" x1="11">
<stop stop-color="#700" offset="0"/>
<stop stop-color="#ba0000" offset="1"/>
</linearGradient>
<linearGradient id="a" y2="2.5" gradientUnits="userSpaceOnUse" x2="6" y1="11" x1="10">
<stop stop-color="#c00" stop-opacity="0" offset="0"/>
<stop stop-color="#f36161" offset=".5"/>
<stop stop-color="#fff" offset="1"/>
</linearGradient>
</defs>
<metadata>
<rdf:RDF>
<cc:Work rdf:about="">
<dc:format>image/svg+xml</dc:format>
<dc:type rdf:resource="http://purl.org/dc/dcmitype/StillImage"/>
<dc:title/>
<cc:license rdf:resource="http://creativecommons.org/publicdomain/zero/1.0/"/>
<dc:creator>
<cc:Agent>
<dc:title>Geert Bergman, geert@www.scrivo.org</dc:title>
</cc:Agent>
</dc:creator>
</cc:Work>
</rdf:RDF>
</metadata>
<g>
<g transform="translate(-2.54 -2.54)">
<path d="m15.5 8c0 4.14-3.36 7.5-7.5 7.5s-7.5-3.4-7.5-7.5c0-4.14 3.36-7.5 7.5-7.5s7.5 3.36 7.5 7.5z" fill-rule="evenodd" transform="matrix(.667 0 0 .667 5.17 5.17)" fill="url(#c)"/>
<path d="m15.4 8c0 4.07-3.3 7.37-7.37 7.37-4.1 0-7.4-3.3-7.4-7.4-0.003-4.07 3.3-7.37 7.37-7.37s7.37 3.3 7.37 7.37z" transform="matrix(.681 0 0 .681 5.07 5.07)" stroke="url(#b)" stroke-width="1.47" fill="none"/>
<path opacity=".498" d="m14 8c0 3.31-2.69 6-6 6s-6-2.7-6-6c0-3.31 2.69-6 6-6s6 2.69 6 6z" transform="matrix(.681 0 0 .681 5.07 5.07)" filter="url(#d)" stroke="url(#a)" stroke-width=".881" fill="none"/>
</g>
</g>
</svg>
