<?xml version="1.0" encoding="UTF-8" standalone="no"?>
<svg xmlns:rdf="http://www.w3.org/1999/02/22-rdf-syntax-ns#" xmlns="http://www.w3.org/2000/svg" height="16px" width="16px" version="1.1" enable-background="new" xmlns:cc="http://creativecommons.org/ns#" xmlns:xlink="http://www.w3.org/1999/xlink" xmlns:dc="http://purl.org/dc/elements/1.1/">
<defs>
<linearGradient id="b" y2="-.915" gradientUnits="userSpaceOnUse" x2="7.05" y1="16" x1="9.01">
<stop stop-color="#316004" offset="0"/>
<stop stop-color="#4e9a06" offset="1"/>
</linearGradient>
<linearGradient id="a" y2=".5" gradientUnits="userSpaceOnUse" x2="7.5" y1="15" x1="9">
<stop stop-color="#78d21e" offset="0"/>
<stop stop-color="#c8f39d" offset="1"/>
</linearGradient>
</defs>
<metadata>
<rdf:RDF>
<cc:Work rdf:about="">
<dc:format>image/svg+xml</dc:format>
<dc:type rdf:resource="http://purl.org/dc/dcmitype/StillImage"/>
<dc:title/>
<cc:license rdf:resource="http://creativecommons.org/publicdomain/zero/1.0/"/>
<dc:creator>
<cc:Agent>
<dc:title>Geert Bergman, geert@www.scrivo.org</dc:title>
</cc:Agent>
</dc:creator>
</cc:Work>
</rdf:RDF>
</metadata>
<g>
<g stroke-linejoin="round" stroke-width="1px" stroke="url(#b)" fill="url(#a)">
<path d="m8.51 6.52h6v-6l-2 2c-1.1-0.94-2-1.47-3.12-1.78-1.14-0.329-3.33-0.266-4.67 0.228-1.28 0.472-2.34 1.45-2.78 2.31 1.01-0.65 1.88-0.98 3.06-1.07 0.9-0.07 1.95-0.02 2.8 0.35 0.86 0.38 1.57 0.81 2.71 1.96z"/>
<path d="m7.51 9.49h-6v6l2-2c1.13 0.936 2.05 1.47 3.13 1.78 1.15 0.33 3.09 0.367 4.43-0.127 1.28-0.473 2.59-1.55 3.03-2.41-1.01 0.655-1.89 0.979-3.07 1.07-0.893 0.0716-1.95 0.0208-2.8-0.353-0.87-0.4-1.58-0.9-2.73-2z"/>
</g>
</g>
</svg>
