<?xml version="1.0" encoding="UTF-8" standalone="no"?>
<svg xmlns:rdf="http://www.w3.org/1999/02/22-rdf-syntax-ns#" xmlns="http://www.w3.org/2000/svg" xmlns:osb="http://www.openswatchbook.org/uri/2009/osb" height="16px" width="16px" version="1.1" enable-background="new" xmlns:cc="http://creativecommons.org/ns#" xmlns:xlink="http://www.w3.org/1999/xlink" xmlns:dc="http://purl.org/dc/elements/1.1/">
<defs>
<linearGradient id="b" y2="16" gradientUnits="userSpaceOnUse" x2="10" x1="6">
<stop stop-color="#7b7d78" offset="0"/>
<stop stop-color="#414340" offset="1"/>
</linearGradient>
<linearGradient id="a" y2="15" gradientUnits="userSpaceOnUse" x2="10" y1="1" x1="6">
<stop stop-color="#eff0ed" offset="0"/>
<stop stop-color="#d2d4cf" offset="1"/>
</linearGradient>
</defs>
<metadata>
<rdf:RDF>
<cc:Work rdf:about="">
<dc:format>image/svg+xml</dc:format>
<dc:type rdf:resource="http://purl.org/dc/dcmitype/StillImage"/>
<dc:title/>
<cc:license rdf:resource="http://creativecommons.org/publicdomain/zero/1.0/"/>
<dc:creator>
<cc:Agent>
<dc:title>Geert Bergman, geert@www.scrivo.org</dc:title>
</cc:Agent>
</dc:creator>
</cc:Work>
</rdf:RDF>
</metadata>
<g>
<path stroke-linejoin="round" d="m8 0.5c-1.93 0-3.5 1.57-3.5 3.5 0 1.4 1 2.86 2.27 3.33l0.0312 5.59c-0.91-0.2-1.55-0.6-2.11-1-0.39-0.3-0.73-0.6-1.03-1l1.34-1.4h-4.5v4.5l1.5-1.5c0.64 0.855 1.46 1.58 2.41 2.09 3.31 1.8 7.39 0.8 9.59-2.1l1.5 1.5v-4.5h-4.5l1.38 1.38c-0.752 0.973-1.99 1.72-3.09 2.03l-0.04-5.6c1.23-0.42 2.23-1.9 2.23-3.3 0-1.93-1.57-3.5-3.5-3.5zm0 2c0.828 0 1.5 0.672 1.5 1.5s-0.672 1.5-1.5 1.5-1.5-0.672-1.5-1.5 0.672-1.5 1.5-1.5z" stroke="url(#b)" fill="url(#a)"/>
</g>
</svg>
