<?xml version="1.0" encoding="UTF-8" standalone="no"?>
<svg xmlns:rdf="http://www.w3.org/1999/02/22-rdf-syntax-ns#" xmlns="http://www.w3.org/2000/svg" height="16px" width="16px" version="1.1" enable-background="new" xmlns:cc="http://creativecommons.org/ns#" xmlns:xlink="http://www.w3.org/1999/xlink" xmlns:dc="http://purl.org/dc/elements/1.1/">
<defs>
<linearGradient id="a">
<stop stop-color="#204a87" offset="0"/>
<stop stop-color="#16345e" offset="1"/>
</linearGradient>
<linearGradient id="b">
<stop stop-color="#89acd9" offset="0"/>
<stop stop-color="#3465a4" offset="1"/>
</linearGradient>
<linearGradient id="g" y2="11.3" gradientUnits="userSpaceOnUse" x2="15.5" y1="11.3" x1="14.5">
<stop stop-color="#888a85" offset="0"/>
<stop stop-color="#888a85" stop-opacity="0" offset="1"/>
</linearGradient>
<linearGradient id="f" y2="2" xlink:href="#b" gradientUnits="userSpaceOnUse" x2="16" gradientTransform="translate(0 .486)" y1="7.5" x1="4.5"/>
<linearGradient id="e" y2="11" xlink:href="#b" gradientUnits="userSpaceOnUse" x2="3" gradientTransform="translate(0 .486)" x1="14"/>
<linearGradient id="d" y2="16" xlink:href="#a" gradientUnits="userSpaceOnUse" x2="8" gradientTransform="translate(0 .486)" x1="6"/>
<linearGradient id="c" y2="11.3" xlink:href="#a" gradientUnits="userSpaceOnUse" x2="15.5" y1="11.3" x1="14.5"/>
</defs>
<metadata>
<rdf:RDF>
<cc:Work rdf:about="">
<dc:format>image/svg+xml</dc:format>
<dc:type rdf:resource="http://purl.org/dc/dcmitype/StillImage"/>
<dc:title/>
<cc:license rdf:resource="http://creativecommons.org/publicdomain/zero/1.0/"/>
<dc:creator>
<cc:Agent>
<dc:title>Geert Bergman, geert@www.scrivo.org</dc:title>
</cc:Agent>
</dc:creator>
</cc:Work>
</rdf:RDF>
</metadata>
<g>
<g>
<path d="m14.5 8.5v2.5l-7 4v-2.5z" stroke="#babdb6" stroke-width="1px" fill="#eeeeec"/>
<path d="m1 4.49 7 7.01 7.1-4.23-6.91-6.32z" fill="url(#f)"/>
<path d="m0.5 8.99 6 6h1v-3l-7-7z" fill="url(#e)"/>
<g stroke-width="1px">
<path d="m0.688 4.67 7.19 7.13" stroke="#e0eaf4" fill="#729fcf"/>
<path d="m15 11.5v-0.5" stroke="url(#c)" stroke-linecap="round" fill="url(#g)"/>
<path d="m14.5 8v3.5" stroke="#888a85" fill="#888a85"/>
</g>
</g>
<path stroke-linejoin="round" d="m7.5 15.5h0.5l7-4m-14.5-6.51 0.5-0.5 7-3.49h0.5c0.94 0.75 3.3 3.01 6.5 6v0.5l-6.95 4-0.55 0.5v3.5c-6.06-6.22-1-1-6.81-7l-0.19-0.5z" stroke="url(#d)" stroke-linecap="round" stroke-width="1px" fill="none"/>
</g>
</svg>
