<?xml version="1.0" encoding="UTF-8" standalone="no"?>
<svg xmlns:rdf="http://www.w3.org/1999/02/22-rdf-syntax-ns#" xmlns="http://www.w3.org/2000/svg" height="16px" width="16px" version="1.1" enable-background="new" xmlns:cc="http://creativecommons.org/ns#" xmlns:xlink="http://www.w3.org/1999/xlink" xmlns:dc="http://purl.org/dc/elements/1.1/">
<defs>
<linearGradient id="c">
<stop stop-color="#9ee757" offset="0"/>
<stop stop-color="#73d216" offset="1"/>
</linearGradient>
<linearGradient id="f" y2="16" gradientUnits="userSpaceOnUse" x2="8" gradientTransform="matrix(.756 0 0 .756 2.12 2.1)" x1="6">
<stop stop-color="#488e05" offset="0"/>
<stop stop-color="#316004" offset="1"/>
</linearGradient>
<linearGradient id="b" y2="11.3" xlink:href="#linearGradient20624-8" gradientUnits="userSpaceOnUse" x2="15.5" gradientTransform="matrix(.756 0 0 .756 2.12 1.73)" y1="11.3" x1="14.5"/>
<linearGradient id="a" y2="11.3" xlink:href="#linearGradient20883-8" gradientUnits="userSpaceOnUse" x2="15.5" gradientTransform="matrix(.756 0 0 .756 2.12 1.73)" y1="11.3" x1="14.5"/>
<linearGradient id="e" y2="11" xlink:href="#c" gradientUnits="userSpaceOnUse" x2="3" gradientTransform="matrix(.756 0 0 .756 2.12 2.1)" x1="14"/>
<linearGradient id="d" y2="2" xlink:href="#c" gradientUnits="userSpaceOnUse" x2="16" gradientTransform="matrix(.756 0 0 .756 2.12 2.1)" y1="7.5" x1="4.5"/>
<linearGradient id="i" y2="16" xlink:href="#linearGradient20883-8" gradientUnits="userSpaceOnUse" x2="8" gradientTransform="matrix(.756 0 0 .756 2.12 2.1)" x1="6"/>
<linearGradient id="h" y2="11" xlink:href="#linearGradient20875-0" gradientUnits="userSpaceOnUse" x2="3" gradientTransform="matrix(.756 0 0 .756 2.12 2.1)" x1="14"/>
<linearGradient id="g" y2="2" xlink:href="#linearGradient20875-0" gradientUnits="userSpaceOnUse" x2="16" gradientTransform="matrix(.756 0 0 .756 2.12 2.1)" y1="7.5" x1="4.5"/>
</defs>
<metadata>
<rdf:RDF>
<cc:Work rdf:about="">
<dc:format>image/svg+xml</dc:format>
<dc:type rdf:resource="http://purl.org/dc/dcmitype/StillImage"/>
<dc:title/>
<cc:license rdf:resource="http://creativecommons.org/publicdomain/zero/1.0/"/>
<dc:creator>
<cc:Agent>
<dc:title>Geert Bergman, geert@www.scrivo.org</dc:title>
</cc:Agent>
</dc:creator>
</cc:Work>
</rdf:RDF>
</metadata>
<g>
<g>
<path stroke-linejoin="round" d="m13.1 8.16v1.89l-5.3 3.03v-1.89z" stroke="#babdb6" stroke-width="1px" fill="#eeeeec"/>
<path d="m2.88 5.12 5.29 5.28 5.33-3.17-5.18-4.78z" fill="url(#g)"/>
<path d="m2.5 8.53 4.54 4.54h0.756v-2.27l-5.3-5.3z" fill="url(#h)"/>
<g stroke-width="1px">
<path d="m2.64 5.26 5.44 5.44" stroke="#e0eaf4" fill="#9ee757"/>
<path d="m13.5 10.4v-0.378" stroke="url(#a)" stroke-linecap="round" fill="url(#b)"/>
<path d="m13.1 7.78v2.65" stroke="#888a85" fill="#888a85"/>
</g>
</g>
<path stroke-linejoin="round" d="m7.8 13.5h0.378l5.3-3.03m-11-5 0.38-0.38 5.29-2.64h0.378c0.709 0.569 2.46 2.27 4.92 4.54v0.378l-5.26 3-0.414 0.366v2.68c-4.62-4.65-0.79-0.7-5.19-5.24l-0.14-0.38z" stroke="url(#i)" stroke-linecap="round" stroke-width="1px" fill="none"/>
<g>
<path stroke-linejoin="round" d="m13.1 8.16v1.89l-5.3 3.03v-1.89z" stroke="#babdb6" stroke-width="1px" fill="#eeeeec"/>
<path d="m2.88 5.12 5.29 5.28 5.33-3.17-5.18-4.78z" fill="url(#d)"/>
<path d="m2.5 8.53 4.54 4.54h0.756v-2.27l-5.3-5.3z" fill="url(#e)"/>
<g stroke-width="1px">
<path d="m2.64 5.26 5.44 5.44" stroke="#e0eaf4" fill="#9ee757"/>
<path d="m13.5 10.4v-0.378" stroke="url(#a)" stroke-linecap="round" fill="url(#b)"/>
<path d="m13.1 7.78v2.65" stroke="#888a85" fill="#888a85"/>
</g>
</g>
<path stroke-linejoin="round" d="m7.8 13.5h0.378l5.3-3.03m-11-5 0.38-0.38 5.29-2.64h0.378c0.709 0.569 2.46 2.27 4.92 4.54v0.378l-5.26 3-0.414 0.366v2.68c-4.62-4.65-0.79-0.7-5.19-5.24l-0.14-0.38z" stroke="url(#f)" stroke-linecap="round" stroke-width="1px" fill="none"/>
</g>
</svg>
