<?xml version="1.0" encoding="UTF-8" standalone="no"?>
<svg xmlns:rdf="http://www.w3.org/1999/02/22-rdf-syntax-ns#" xmlns="http://www.w3.org/2000/svg" height="16px" width="16px" version="1.1" enable-background="new" xmlns:cc="http://creativecommons.org/ns#" xmlns:xlink="http://www.w3.org/1999/xlink" xmlns:dc="http://purl.org/dc/elements/1.1/">
<defs>
<linearGradient id="f" y2="7.02" xlink:href="#a" gradientUnits="userSpaceOnUse" x2="5.09" gradientTransform="matrix(1 0 0 1.01 0 -.0108)" y1="7.02" x1="1.97"/>
<linearGradient id="a">
<stop stop-color="#f4f4f3" offset="0"/>
<stop stop-color="#e0e0dd" offset="1"/>
</linearGradient>
<linearGradient id="e" y2="8.06" xlink:href="#a" gradientUnits="userSpaceOnUse" x2="6.09" y1="8.03" x1="11.6"/>
<linearGradient id="d" y2="9" xlink:href="#a" gradientUnits="userSpaceOnUse" x2="7" y1="9" x1="13"/>
<linearGradient id="c" y2="8" gradientUnits="userSpaceOnUse" x2="13.5" y1="8" x1="1.5">
<stop stop-color="#a3a69f" offset="0"/>
<stop stop-color="#656763" offset="1"/>
</linearGradient>
<linearGradient id="b" y2="15" gradientUnits="userSpaceOnUse" y1="2" x2="8" x1="6">
<stop stop-color="#555753" offset="0"/>
<stop stop-color="#262b2d" offset="1"/>
</linearGradient>
</defs>
<metadata>
<rdf:RDF>
<cc:Work rdf:about="">
<dc:format>image/svg+xml</dc:format>
<dc:type rdf:resource="http://purl.org/dc/dcmitype/StillImage"/>
<dc:title/>
<cc:license rdf:resource="http://creativecommons.org/publicdomain/zero/1.0/"/>
<dc:creator>
<cc:Agent>
<dc:title>Geert Bergman, geert@www.scrivo.org</dc:title>
</cc:Agent>
</dc:creator>
</cc:Work>
</rdf:RDF>
</metadata>
<g>
<path stroke-linejoin="round" d="m0.758 2.76-0.024 7.74 4.01 3.8h9.56v-8.78l-0.8-0.78-8.74 0.05-2.26-2.02z" stroke="url(#b)" stroke-width="1.5" fill="none"/>
<path d="m1.53 2.54-0.0312 7.25l3.99 3.71h8.01v-8h-8.5l-2-3z" stroke="url(#c)" fill="none"/>
<g>
<rect rx=".5" ry="0" height="8" width="7.02" y="5" x="6" fill="url(#d)"/>
<path stroke-linejoin="round" d="m6 5.5v7.03s2.03-1.43 3.25-1.75c1.25-0.3 2.25-0.3 2.25-0.3v-8s-1.19 0.0213-2.47 0.375c-1.28 0.35-3.03 1.62-3.03 1.62z" stroke="#7c7e79" stroke-width="1px" fill="url(#e)"/>
<path d="m2 9.59-0.0019-8.37 1.03-0.188 2 3-0.00915 8.36z" fill="url(#f)"/>
</g>
<path stroke-linejoin="round" d="m1.5 2v-0.5l0.375-1s1.87 1.17 2.53 2.03c0.55 0.71 1.09 2.47 1.09 2.47v1" stroke="#777974" stroke-width="1px" fill="none"/>
<path d="m5.5 5v7.5" stroke="#2e3436" stroke-linecap="round" stroke-width="1px" fill="#2e3436"/>
</g>
</svg>
