<?xml version="1.0" encoding="UTF-8" standalone="no"?>
<svg xmlns:rdf="http://www.w3.org/1999/02/22-rdf-syntax-ns#" xmlns="http://www.w3.org/2000/svg" height="16px" width="16px" version="1.1" enable-background="new" xmlns:cc="http://creativecommons.org/ns#" xmlns:xlink="http://www.w3.org/1999/xlink" xmlns:dc="http://purl.org/dc/elements/1.1/">
<defs>
<linearGradient id="e" y2="16" xlink:href="#b" gradientUnits="userSpaceOnUse" x2="8" gradientTransform="matrix(.670 0 0 .666 6.49 5.16)" x1="6"/>
<linearGradient id="b">
<stop stop-color="#959793" offset="0"/>
<stop stop-color="#797d76" offset="1"/>
</linearGradient>
<linearGradient id="f" y2="6.06" xlink:href="#b" gradientUnits="userSpaceOnUse" x2="8.71" gradientTransform="matrix(.653 0 0 .649 6.82 5.1)" y1="2.5" x1="11.5"/>
<linearGradient id="d" y2="14" xlink:href="#a" gradientUnits="userSpaceOnUse" x2="8" gradientTransform="matrix(.621 0 0 .619 6.86 5.56)" y1="2" x1="6"/>
<linearGradient id="a">
<stop stop-color="#e8ecf1" offset="0"/>
<stop stop-color="#b8c2cd" offset="1"/>
</linearGradient>
<linearGradient id="c" y2="15" gradientUnits="userSpaceOnUse" x2="8" gradientTransform="matrix(.621 0 0 .619 6.86 5.56)" y1="1" x1="6">
<stop stop-color="#fdfeff" offset="0"/>
<stop stop-color="#d7d8e1" offset="1"/>
</linearGradient>
<linearGradient id="l" y2="2.05" gradientUnits="userSpaceOnUse" y1="3.5" gradientTransform="matrix(.770 0 0 .748 5.22 5.03)" x2="12" x1="10.5">
<stop stop-color="#e8ecf1" offset="0"/>
<stop stop-color="#b8c2cd" offset="1"/>
</linearGradient>
<linearGradient id="k" y2="14.5" gradientUnits="userSpaceOnUse" x2="7" y1="1.5" x1="5">
<stop stop-color="#8e5902" offset="0"/>
<stop stop-color="#5c3901" offset="1"/>
</linearGradient>
<linearGradient id="j" y2="14.5" gradientUnits="userSpaceOnUse" x2="7" y1="1.5" x1="5">
<stop stop-color="#e2a13d" offset="0"/>
<stop stop-color="#a76c0f" offset="1"/>
</linearGradient>
<linearGradient id="i" y2="13" gradientUnits="userSpaceOnUse" x2="6.5" y1="3" x1="5">
<stop stop-color="#c78112" offset="0"/>
<stop stop-color="#905800" offset="1"/>
</linearGradient>
<linearGradient id="h" y2="5" gradientUnits="userSpaceOnUse" x2="6.5" x1="5.5">
<stop stop-color="#5a666a" offset="0"/>
<stop stop-color="#2e3436" offset="1"/>
</linearGradient>
<linearGradient id="g" y2="4" xlink:href="#a" gradientUnits="userSpaceOnUse" x2="6.5" y1="1" x1="5.5"/>
</defs>
<metadata>
<rdf:RDF>
<cc:Work rdf:about="">
<dc:format>image/svg+xml</dc:format>
<dc:type rdf:resource="http://purl.org/dc/dcmitype/StillImage"/>
<dc:title/>
<cc:license rdf:resource="http://creativecommons.org/publicdomain/zero/1.0/"/>
<dc:creator>
<cc:Agent>
<dc:title>Geert Bergman, geert@www.scrivo.org</dc:title>
</cc:Agent>
</dc:creator>
</cc:Work>
</rdf:RDF>
</metadata>
<g>
<rect stroke-linejoin="round" ry="2" height="13" width="11" stroke="url(#k)" stroke-linecap="round" y="1.5" x=".5" fill="url(#j)"/>
<rect ry=".5" height="10" width="8" y="3" x="2" stroke-width="0" fill="url(#i)"/>
</g>
<g>
<path d="m12.9 5.4v2.62h2.69z" stroke-width="0" fill="url(#l)"/>
<g>
<path d="m8.41 6.49v8.05h6.21v-6.81l-1.24-1.24z" stroke="url(#c)" stroke-width="1.13" fill="url(#d)"/>
<path stroke-linejoin="round" d="m13 5.75v2.27h2.28-2.28z" stroke="url(#f)" stroke-linecap="square" fill="none"/>
<path stroke-linejoin="round" d="m7.5 5.49v9.99h8.04v-7.99l-2.01-2z" stroke="url(#e)" fill="none"/>
</g>
<g stroke="#888a85" stroke-width="1px" fill="#888a85">
<path d="m9 8.5h2"/>
<path d="m9 10.5h5"/>
<path d="m9 12.5h5"/>
</g>
</g>
<g stroke-width="1px">
<path stroke-linejoin="round" d="m2.5 3.5 0.5 1h6l0.5-1-2-2v-1h-3v1z" stroke="url(#h)" fill="url(#g)"/>
<path d="m5.5 2.5h1" stroke="#454f51" stroke-linecap="round" fill="#2e3436"/>
</g>
</svg>
