<?xml version="1.0" encoding="UTF-8" standalone="no"?>
<svg xmlns:rdf="http://www.w3.org/1999/02/22-rdf-syntax-ns#" xmlns="http://www.w3.org/2000/svg" height="16px" width="16px" version="1.1" enable-background="new" xmlns:cc="http://creativecommons.org/ns#" xmlns:xlink="http://www.w3.org/1999/xlink" xmlns:dc="http://purl.org/dc/elements/1.1/">
<defs>
<linearGradient id="a" y2="10.1" gradientUnits="userSpaceOnUse" x2="9.84" y1="6.01" x1="5.75">
<stop stop-color="#fff" offset="0"/>
<stop stop-color="#fcd2eb" offset=".163"/>
<stop stop-color="#fcd2eb" stop-opacity=".941" offset=".821"/>
<stop stop-color="#f47ac2" offset="1"/>
</linearGradient>
</defs>
<metadata>
<rdf:RDF>
<cc:Work rdf:about="">
<dc:format>image/svg+xml</dc:format>
<dc:type rdf:resource="http://purl.org/dc/dcmitype/StillImage"/>
<dc:title/>
<cc:license rdf:resource="http://creativecommons.org/publicdomain/zero/1.0/"/>
<dc:creator>
<cc:Agent>
<dc:title>Geert Bergman, geert@www.scrivo.org</dc:title>
</cc:Agent>
</dc:creator>
</cc:Work>
</rdf:RDF>
</metadata>
<g stroke-width="1px">
<path d="m6.56 13.5h7.96" stroke="#555753" stroke-linecap="round" fill="#555753"/>
<path d="m7.5 3.5c2.88-2.95 7.97 1.59 5.25 4.38-2.17 2.35-5.7 5.67-5.7 5.67 0.375-0.375-0.0217-0.526-0.55-1.05-0.49-0.4-0.98-0.9-1.5-1.4-0.5-0.5-1.1-1.1-1.79-1.71-0.54-0.49-1.22-0.23-1.59 0.15z" stroke="#f57cc3" fill="url(#a)"/>
<path d="m1.75 9.35c-0.42 0.47-0.29 1.15 0.07 1.45 0.47 0.4 0.73 0.7 1.16 1.2 0.53 0.5 0.67 0.7 1.03 1 0.39 0.4 0.74 0.5 0.99 0.5 0.678-0.0188 1.52 0.0188 2.1 0.0159 0.35-0.3-0.01-0.5-0.58-1-0.48-0.5-0.72-0.7-1.52-1.5-0.59-0.6-0.93-0.9-1.79-1.67-0.55-0.49-1.09-0.36-1.46 0.02z" stroke="#f57cc3" fill="#fcd2eb"/>
</g>
</svg>
