<?xml version="1.0" encoding="UTF-8" standalone="no"?>
<svg xmlns:rdf="http://www.w3.org/1999/02/22-rdf-syntax-ns#" xmlns="http://www.w3.org/2000/svg" height="16px" width="16px" version="1.1" enable-background="new" xmlns:cc="http://creativecommons.org/ns#" xmlns:xlink="http://www.w3.org/1999/xlink" xmlns:dc="http://purl.org/dc/elements/1.1/">
<defs>
<linearGradient id="c" y2="15" gradientUnits="userSpaceOnUse" x2="9.531" gradientTransform="matrix(1.02 0 0 1.023 -3.893 -3.899)" y1="1.031" x1="6.961">
<stop stop-color="#d8dad5" offset="0"/>
<stop stop-color="#b2b5ad" offset="1"/>
</linearGradient>
<linearGradient id="b" y2="15.88" gradientUnits="userSpaceOnUse" x2="9.531" gradientTransform="matrix(1.02 0 0 1.023 -3.893 -3.899)" y1="-.09374" x1="6.93">
<stop stop-color="#647175" offset="0"/>
<stop stop-color="#2e3436" offset="1"/>
</linearGradient>
<linearGradient id="a" y2="11" gradientUnits="userSpaceOnUse" x2="9.5" y1="5.5" x1="6">
<stop stop-color="#4e585c" offset="0"/>
<stop stop-color="#d3d7cf" offset="1"/>
</linearGradient>
</defs>
<metadata>
<rdf:RDF>
<cc:Work rdf:about="">
<dc:format>image/svg+xml</dc:format>
<dc:type rdf:resource="http://purl.org/dc/dcmitype/StillImage"/>
<dc:title/>
<cc:license rdf:resource="http://creativecommons.org/publicdomain/zero/1.0/"/>
<dc:creator>
<cc:Agent>
<dc:title>Geert Bergman, geert@www.scrivo.org</dc:title>
</cc:Agent>
</dc:creator>
</cc:Work>
</rdf:RDF>
</metadata>
<g>
<g transform="matrix(.7361 0 0 .7303 4.871 4.881)">
<path stroke-linejoin="round" d="m3.55-3.355-0.3029 2.109c-0.4606 0.08577-0.9253 0.2243-1.339 0.4155l-1.49-1.518c-0.4031 0.2437-0.7753 0.5299-1.156 0.807l0.9883 1.926c-0.3372 0.3489-0.6541 0.7236-0.8926 1.151l-2.096-0.361c-0.1851 0.4364-0.313 0.8907-0.4543 1.342l1.913 0.9987c-0.09276 0.4879-0.04866 0.9492-0.03188 1.406l-1.921 0.9348c0.09723 0.4761 0.2665 0.9264 0.4304 1.382l2.096-0.3356c0.2363 0.4501 0.5485 0.8468 0.8926 1.214l-1.02 1.91c0.366 0.3283 0.7769 0.5876 1.188 0.8549l1.49-1.515c0.433 0.207 0.917 0.357 1.403 0.447l0.3108 2.117c0.4704 0.03555 0.9398 0.01556 1.411 0.008l0.318-2.128c0.46-0.086 0.925-0.224 1.339-0.415l1.498 1.526c0.3944-0.2481 0.7593-0.5358 1.132-0.815l-0.9723-1.926c0.3372-0.3489 0.6541-0.7236 0.8926-1.151l2.082 0.376c0.2052-0.4362 0.3236-0.8986 0.4622-1.358l-1.905-0.991c0.09276-0.4879 0.04866-0.9492 0.03188-1.406l1.913-0.935c-0.1-0.473-0.25-0.925-0.41-1.382l-2.109 0.335c-0.236-0.45-0.549-0.8463-0.893-1.214l0.9962-1.918c-0.348-0.329-0.7525-0.5732-1.148-0.8389l-1.506 1.51c-0.432-0.206-0.917-0.356-1.402-0.447l-0.327-2.117c-0.481-0.04447-0.919-0.00875-1.411 0.00799zm0.7173 5.593c1.127 0 2.04 0.9158 2.04 2.045 0 1.13-0.9135 2.045-2.04 2.045-1.127 0-2.04-0.9158-2.04-2.045 0-1.13 0.9135-2.045 2.04-2.045z" stroke="url(#b)" stroke-linecap="round" stroke-width="1.023" fill="url(#c)"/>
<path d="m11 8c0 1.657-1.343 3-3 3s-3-1.343-3-3 1.343-3 3-3 3 1.343 3 3z" transform="matrix(1.02 0 0 1.023 -3.893 -3.899)" stroke="url(#a)" stroke-width="1.001" fill="none"/>
</g>
</g>
</svg>
