<?xml version="1.0" encoding="UTF-8" standalone="no"?>
<svg xmlns:rdf="http://www.w3.org/1999/02/22-rdf-syntax-ns#" xmlns="http://www.w3.org/2000/svg" height="16px" width="16px" version="1.1" enable-background="new" xmlns:cc="http://creativecommons.org/ns#" xmlns:xlink="http://www.w3.org/1999/xlink" xmlns:dc="http://purl.org/dc/elements/1.1/">
<defs>
<linearGradient id="c" y2="11" gradientUnits="userSpaceOnUse" x2="9.5" y1="5.5" x1="6">
<stop stop-color="#4e585c" offset="0"/>
<stop stop-color="#d3d7cf" offset="1"/>
</linearGradient>
<linearGradient id="b" y2="15.88" gradientUnits="userSpaceOnUse" x2="9.531" y1="-.09374" x1="6.93">
<stop stop-color="#647175" offset="0"/>
<stop stop-color="#2e3436" offset="1"/>
</linearGradient>
<linearGradient id="a" y2="15" gradientUnits="userSpaceOnUse" x2="9.531" y1="1.031" x1="6.961">
<stop stop-color="#d8dad5" offset="0"/>
<stop stop-color="#b2b5ad" offset="1"/>
</linearGradient>
</defs>
<metadata>
<rdf:RDF>
<cc:Work rdf:about="">
<dc:format>image/svg+xml</dc:format>
<dc:type rdf:resource="http://purl.org/dc/dcmitype/StillImage"/>
<dc:title/>
<cc:license rdf:resource="http://creativecommons.org/publicdomain/zero/1.0/"/>
<dc:creator>
<cc:Agent>
<dc:title>Geert Bergman, geert@www.scrivo.org</dc:title>
</cc:Agent>
</dc:creator>
</cc:Work>
</rdf:RDF>
</metadata>
<g>
<path stroke-linejoin="round" d="m7.297 0.5312-0.297 2.063c-0.451 0.084-0.907 0.219-1.312 0.406l-1.461-1.484c-0.396 0.238-0.76 0.518-1.133 0.789l0.968 1.883c-0.33 0.341-0.641 0.707-0.874 1.124l-2.055-0.351c-0.1816 0.427-0.307 0.871-0.4455 1.312l1.874 0.977c-0.09 0.477-0.047 0.928-0.031 1.375l-1.883 0.914c0.09531 0.4655 0.2612 0.9058 0.4219 1.352l2.055-0.33c0.232 0.44 0.538 0.83 0.875 1.19l-1 1.867c0.3588 0.321 0.7616 0.5746 1.164 0.8359l1.461-1.49c0.4243 0.2024 0.8992 0.3491 1.375 0.4375l0.3047 2.07c0.4611 0.03476 0.9213 0.01522 1.383 0.0078l0.312-2.08c0.451-0.09 0.907-0.22 1.31-0.41l1.469 1.492c0.3866-0.2426 0.7443-0.5239 1.109-0.7969l-0.95-1.88c0.3305-0.3412 0.6412-0.7075 0.875-1.125l2.039 0.3594c0.2012-0.4265 0.3172-0.8787 0.4531-1.328l-1.87-0.962c0.09093-0.4771 0.0477-0.9281 0.03125-1.375l1.875-0.9141c-0.09-0.463-0.24-0.905-0.39-1.352l-2.07 0.329c-0.24-0.441-0.54-0.828-0.88-1.188l0.98-1.875c-0.34-0.322-0.74-0.561-1.13-0.82l-1.47 1.476c-0.429-0.202-0.904-0.349-1.38-0.437l-0.32-2.071c-0.472-0.043-0.901-0.0081-1.383 0.0082zm0.703 5.469c1.105 0 2 0.8954 2 2s-0.8954 2-2 2-2-0.895-2-2 0.895-2 2-2z" stroke="url(#b)" stroke-linecap="round" fill="url(#a)"/>
<path d="m11 8a3 3 0 1 1 -6 0 3 3 0 1 1 6 0z" stroke="url(#c)" stroke-width="1px" fill="none"/>
</g>
</svg>
