<?xml version="1.0" encoding="UTF-8" standalone="no"?>
<svg xmlns:rdf="http://www.w3.org/1999/02/22-rdf-syntax-ns#" xmlns="http://www.w3.org/2000/svg" xmlns:osb="http://www.openswatchbook.org/uri/2009/osb" height="16px" width="16px" version="1.1" enable-background="new" xmlns:cc="http://creativecommons.org/ns#" xmlns:xlink="http://www.w3.org/1999/xlink" xmlns:dc="http://purl.org/dc/elements/1.1/">
<defs>
<linearGradient id="a">
<stop stop-color="#7b7d78" offset="0"/>
<stop stop-color="#414340" offset="1"/>
</linearGradient>
<linearGradient id="b">
<stop stop-color="#eff0ed" offset="0"/>
<stop stop-color="#d2d4cf" offset="1"/>
</linearGradient>
<linearGradient id="f" y2="12" xlink:href="#a" gradientUnits="userSpaceOnUse" x2="9" y1="5" x1="7"/>
<linearGradient id="e" y2="11.5" xlink:href="#b" gradientUnits="userSpaceOnUse" x2="9" y1="5.5" x1="7"/>
<linearGradient id="d" y2="10" xlink:href="#a" gradientUnits="userSpaceOnUse" x2="8.5" y1="7" x1="7.5"/>
<linearGradient id="c" y2="9.5" xlink:href="#b" gradientUnits="userSpaceOnUse" x2="8.5" y1="7.5" x1="7.5"/>
</defs>
<metadata>
<rdf:RDF>
<cc:Work rdf:about="">
<dc:format>image/svg+xml</dc:format>
<dc:type rdf:resource="http://purl.org/dc/dcmitype/StillImage"/>
<dc:title/>
<cc:license rdf:resource="http://creativecommons.org/publicdomain/zero/1.0/"/>
<dc:creator>
<cc:Agent>
<dc:title>Geert Bergman, geert@www.scrivo.org</dc:title>
</cc:Agent>
</dc:creator>
</cc:Work>
</rdf:RDF>
</metadata>
<g stroke-linejoin="round">
<path d="m3 5.5c-1.38 0-2.5 1.34-2.5 3s1.12 3 2.5 3h3c0.828 0 1.55-0.479 2-1.22 0.45 0.7 1.17 1.2 2 1.2h3c1.38 0 2.5-1.34 2.5-3s-1.12-3-2.5-3h-3c-0.83 0-1.55 0.48-2 1.22-0.45-0.74-1.17-1.22-2-1.22h-3zm0.5 2h9c0.554 0 1 0.446 1 1s-0.446 1-1 1h-9c-0.554 0-1-0.446-1-1s0.446-1 1-1z" stroke="url(#f)" fill="url(#e)"/>
<rect rx="1" ry="1" height="2" width="7" stroke="url(#d)" y="7.5" x="4.5" fill="url(#c)"/>
</g>
</svg>
