<?xml version="1.0" encoding="UTF-8" standalone="no"?>
<svg xmlns:rdf="http://www.w3.org/1999/02/22-rdf-syntax-ns#" xmlns="http://www.w3.org/2000/svg" xmlns:osb="http://www.openswatchbook.org/uri/2009/osb" height="16px" width="16px" version="1.1" enable-background="new" xmlns:cc="http://creativecommons.org/ns#" xmlns:xlink="http://www.w3.org/1999/xlink" xmlns:dc="http://purl.org/dc/elements/1.1/">
<defs>
<linearGradient id="a">
<stop stop-color="#7b7d78" offset="0"/>
<stop stop-color="#414340" offset="1"/>
</linearGradient>
<linearGradient id="b">
<stop stop-color="#eff0ed" offset="0"/>
<stop stop-color="#d2d4cf" offset="1"/>
</linearGradient>
<linearGradient id="f" y2="9.5" xlink:href="#b" gradientUnits="userSpaceOnUse" x2="8.5" gradientTransform="matrix(.801 0 0 1 1.6 .0329)" y1="7.5" x1="7.5"/>
<linearGradient id="e" y2="10" xlink:href="#a" gradientUnits="userSpaceOnUse" x2="8.5" gradientTransform="matrix(.801 0 0 1 1.6 .0329)" y1="7" x1="7.5"/>
<linearGradient id="d" y2="11.5" xlink:href="#b" gradientUnits="userSpaceOnUse" x2="9" gradientTransform="matrix(.801 0 0 1 1.6 .0329)" y1="5.5" x1="7"/>
<linearGradient id="c" y2="12" xlink:href="#a" gradientUnits="userSpaceOnUse" x2="9" gradientTransform="matrix(.801 0 0 1 1.6 .0329)" y1="5" x1="7"/>
</defs>
<metadata>
<rdf:RDF>
<cc:Work rdf:about="">
<dc:format>image/svg+xml</dc:format>
<dc:type rdf:resource="http://purl.org/dc/dcmitype/StillImage"/>
<dc:title/>
<cc:license rdf:resource="http://creativecommons.org/publicdomain/zero/1.0/"/>
<dc:creator>
<cc:Agent>
<dc:title>Geert Bergman, geert@www.scrivo.org</dc:title>
</cc:Agent>
</dc:creator>
</cc:Work>
</rdf:RDF>
</metadata>
<g stroke-linejoin="round">
<path d="m4.51 5.5c-1.11 0-2.5 1.34-2.5 3s1.39 3 2.5 3h1.5c0.663 0 1.64-0.545 2-1.29 0.37 0.8 1.34 1.3 1.99 1.3h1.5c1.11 0 2.5-1.31 2.5-2.97s-1.39-3.03-2.5-3.03h-1.5c-0.65 0-1.61 0.58-1.98 1.32-0.36-0.74-1.35-1.32-2.01-1.32zm0.5 2h6c0.444 0 1 0.446 1 1s-0.556 1-1 1h-6c-0.444 0-1-0.446-1-1s0.556-1 1-1z" stroke="url(#c)" fill="url(#d)"/>
<path d="m6.51 7.5h3c0.554 0 1 0.446 1 1s-0.446 1-1 1h-3c-0.55 0-1.01-0.45-1.01-1s0.46-1 1.01-1z" stroke="url(#e)" fill="url(#f)"/>
</g>
</svg>
