<?xml version="1.0" encoding="UTF-8" standalone="no"?>
<svg xmlns:rdf="http://www.w3.org/1999/02/22-rdf-syntax-ns#" xmlns="http://www.w3.org/2000/svg" height="16px" width="16px" version="1.1" enable-background="new" xmlns:cc="http://creativecommons.org/ns#" xmlns:xlink="http://www.w3.org/1999/xlink" xmlns:dc="http://purl.org/dc/elements/1.1/">
<defs>
<linearGradient id="e" y2="7.5" gradientUnits="userSpaceOnUse" x2="7.5" y1="15.5" x1="8.5">
<stop stop-color="#826a00" offset="0"/>
<stop stop-color="#a18400" offset="1"/>
</linearGradient>
<linearGradient id="d" y2="15.5" gradientUnits="userSpaceOnUse" x2="8.5" y1="7.5" x1="7.5">
<stop stop-color="#fffcea" offset="0"/>
<stop stop-color="#fef6b8" offset="1"/>
</linearGradient>
<linearGradient id="c" y2="9" gradientUnits="userSpaceOnUse" x2="7.5" y1="14" x1="8">
<stop stop-color="#e0c800" offset="0"/>
<stop stop-color="#ffea34" offset="1"/>
</linearGradient>
<linearGradient id="b" y2=".575" gradientUnits="userSpaceOnUse" x2="7.56" y1="7.56" x1="8.55">
<stop stop-color="#3c4446" offset="0"/>
<stop stop-color="#7a7d77" offset="1"/>
</linearGradient>
<linearGradient id="a" y2=".575" gradientUnits="userSpaceOnUse" x2="7.56" y1="7.49" x1="8.57">
<stop stop-color="#d3d7cf" offset="0"/>
<stop stop-color="#e8eae6" offset="1"/>
</linearGradient>
</defs>
<metadata>
<rdf:RDF>
<cc:Work rdf:about="">
<dc:format>image/svg+xml</dc:format>
<dc:type rdf:resource="http://purl.org/dc/dcmitype/StillImage"/>
<dc:title/>
<cc:license rdf:resource="http://creativecommons.org/publicdomain/zero/1.0/"/>
<dc:creator>
<cc:Agent>
<dc:title>Geert Bergman, geert@www.scrivo.org</dc:title>
</cc:Agent>
</dc:creator>
</cc:Work>
</rdf:RDF>
</metadata>
<g>
<path d="m10.5 7.5v-3.51c0-0.74-1.11-1.49-2.49-1.49-1.41 0.01-2.5 0.75-2.51 1.54v3.46h-2l0.000564-3.46c-0.05-1.89 1.91-3.5 4.4-3.54 2.5-0.042 4.5 1.49 4.6 3.42v3.58z" stroke="url(#b)" stroke-width="1px" fill="url(#a)"/>
<rect stroke-linejoin="round" ry="1" height="8" width="11" stroke="url(#e)" y="7.5" x="2.5" fill="url(#d)"/>
<rect ry="0" height="5" width="8" y="9" x="4" stroke-width="0" fill="url(#c)"/>
<path d="m8.79 10.5a0.789 0.773 0 1 1 -1.58 0 0.789 0.773 0 1 1 1.58 0z" fill-rule="evenodd" transform="matrix(1.27 0 0 1.28 -2.2 -2.97)" fill="#2e3436"/>
<path d="m7 13.5h2l-0.51-1.3-0.51-1.2z" fill="#2e3436"/>
</g>
</svg>
