<?xml version="1.0" encoding="UTF-8" standalone="no"?>
<svg xmlns:rdf="http://www.w3.org/1999/02/22-rdf-syntax-ns#" xmlns="http://www.w3.org/2000/svg" xmlns:osb="http://www.openswatchbook.org/uri/2009/osb" height="16px" width="16px" version="1.1" enable-background="new" xmlns:cc="http://creativecommons.org/ns#" xmlns:xlink="http://www.w3.org/1999/xlink" xmlns:dc="http://purl.org/dc/elements/1.1/">
<defs>
<linearGradient id="a">
<stop stop-color="#8e9387" offset="0"/>
<stop stop-color="#333432" offset="1"/>
</linearGradient>
<radialGradient id="b" xlink:href="#a" gradientUnits="userSpaceOnUse" cy="8.32" cx="8.26" gradientTransform="matrix(.656 .787 -.667 .556 9.13 -2.12)" r="4.5"/>
<linearGradient id="f" y2="13" gradientUnits="userSpaceOnUse" x2="11" y1="6" x1="8">
<stop stop-color="#f0f6fb" offset="0"/>
<stop stop-color="#d1e2f3" offset=".644"/>
<stop stop-color="#a0c5e7" offset="1"/>
</linearGradient>
<linearGradient id="e" y2="12" xlink:href="#a" spreadMethod="reflect" gradientUnits="userSpaceOnUse" x2="14" gradientTransform="translate(-2.16 -2.16)" y1="13" x1="13"/>
<linearGradient id="d" y2="13" spreadMethod="reflect" gradientUnits="userSpaceOnUse" x2="15" gradientTransform="translate(-2.47 -2.53)" y1="14" x1="14">
<stop stop-color="#e9b96e" offset="0"/>
<stop stop-color="#553401" offset="1"/>
</linearGradient>
<linearGradient id="c" y2="10.5" spreadMethod="reflect" gradientUnits="userSpaceOnUse" x2="13.5" y1="12" x1="12">
<stop stop-color="#8f5902" offset="0"/>
<stop stop-color="#6e4402" offset="1"/>
</linearGradient>
<linearGradient id="g" y2="12.1" gradientUnits="userSpaceOnUse" x2="10.5" y1="6.93" x1="8.47">
<stop stop-color="#fff" offset="0"/>
<stop stop-color="#eaf2fa" offset=".663"/>
<stop stop-color="#a4c7e8" stop-opacity="0" offset="1"/>
</linearGradient>
<filter id="h">
<feGaussianBlur stdDeviation="0.23664097"/>
</filter>
</defs>
<metadata>
<rdf:RDF>
<cc:Work rdf:about="">
<dc:format>image/svg+xml</dc:format>
<dc:type rdf:resource="http://purl.org/dc/dcmitype/StillImage"/>
<dc:title/>
<cc:license rdf:resource="http://creativecommons.org/publicdomain/zero/1.0/"/>
<dc:creator>
<cc:Agent>
<dc:title>Geert Bergman, geert@www.scrivo.org</dc:title>
</cc:Agent>
</dc:creator>
</cc:Work>
</rdf:RDF>
</metadata>
<g>
<path d="m9.34 10.8 1.5-1.5 1.5 1.5-1.5 1.5z" fill="url(#e)"/>
<path d="m13.5 9.5a4 4 0 1 1 -8 0 4 4 0 1 1 8 0z" fill-rule="evenodd" transform="matrix(1.38 0 0 1.38 -7.06 -7.06)" stroke-width="0" fill="url(#f)"/>
<g>
<path d="m12.4 9.5a2.91 2.9 0 1 1 -5.82 0 2.91 2.9 0 1 1 5.82 0z" transform="matrix(1.37 -.0338 .0338 1.37 -7.38 -6.74)" filter="url(#h)" stroke="url(#g)" stroke-width=".855" fill="none"/>
<path d="m13.5 9.5a4 4 0 1 1 -8 0 4 4 0 1 1 8 0z" transform="matrix(1.37 0 0 1.38 -7.05 -7.08)" stroke="url(#b)" stroke-width=".730" fill="none"/>
<path stroke-linejoin="round" d="m16 14-1 1-1 1-3.97-4.03 2-2z" stroke="url(#c)" stroke-width=".75" fill="url(#d)"/>
</g>
</g>
</svg>
