<?xml version="1.0" encoding="UTF-8" standalone="no"?>
<svg xmlns:rdf="http://www.w3.org/1999/02/22-rdf-syntax-ns#" xmlns="http://www.w3.org/2000/svg" height="16px" width="16px" version="1.1" enable-background="new" xmlns:cc="http://creativecommons.org/ns#" xmlns:dc="http://purl.org/dc/elements/1.1/">
<metadata>
<rdf:RDF>
<cc:Work rdf:about="">
<dc:format>image/svg+xml</dc:format>
<dc:type rdf:resource="http://purl.org/dc/dcmitype/StillImage"/>
<dc:title/>
<cc:license rdf:resource="http://creativecommons.org/publicdomain/zero/1.0/"/>
<dc:creator>
<cc:Agent>
<dc:title>Geert Bergman, geert@www.scrivo.org</dc:title>
</cc:Agent>
</dc:creator>
</cc:Work>
</rdf:RDF>
</metadata>
<g>
<rect rx="0" ry="0" height="7.99" width="8" y="1.5" x="1.5" fill="#e75950"/>
<g fill="#f3d889">
<rect height="4" width="5" y="1.5" x="9.5"/>
<rect height="4.5" width="1.5" y="11.5" x="0"/>
<rect height="1.5" width="5" y="0" x="9.5"/>
</g>
<rect rx="0" ry="0" height="4.49" width="1.51" y="11.5" x="14.5" fill="#e75950"/>
<rect height="4" width="5" y="11.5" x="9.5" fill="#5346aa"/>
<rect height="1.5" width="6" y="0" x="3.5" fill="#f4f0e0"/>
<rect height="1.5" width="3.5" y="0" x="0" fill="#e8efe6"/>
<rect height="6" width="1.5" y="5.5" x="0" fill="#e8efe6"/>
<rect height="5" width="4" y="9.5" x="5.5" fill="#d3cdcc"/>
<rect height="4" width="1.5" y="1.5" x="0" fill="#fcfdf2"/>
<rect height="4" width="3" y="5.5" x="11.5" fill="#f7f5e6"/>
<rect height="4" width="2" y="5.5" x="9.5" fill="#e6e7de"/>
<rect height="2" width="5" y="9.5" x="9.5" fill="#e6e7de"/>
<rect height="2.5" width="4" y="13.5" x="1.5" fill="#e4e5da"/>
<rect height="11.5" width="1.5" y="0" x="14.5" fill="#ebeee8"/>
<path d="m11.5 5.5v3.5m-2-3.5h5m-11-5.5v1m-3.5 4.5h1.5m-1 0h1m0 5h4m-4 2h4m-4 1h4m0 1h4m-4-5v6m-0.5 0h10m-5.5-15.5v16m-8.5-6.5h14m-13.5 6.5v-15m-1.5 10.5h16m-1.5-11.5v16m-14.5-14.5h15m-3.5 4v3.5m-2-3.5h5m-11-5.5v1m-3.5 4.5h1.5m-1 0h1m0 5h4m-4 2h4m-4 1h4m0 1h4m-4-5v6m-0.5 0h10m-5.5-15.5v16m-8.5-6.5h14m-13.5 6.5v-15m-1.5 10.5h16m-1.5-11.5v16m-14.5-14.5h15" stroke="#45393d" stroke-width="1px" fill="#e75950"/>
</g>
</svg>
