<?xml version="1.0" encoding="UTF-8" standalone="no"?>
<svg xmlns:rdf="http://www.w3.org/1999/02/22-rdf-syntax-ns#" xmlns="http://www.w3.org/2000/svg" height="16px" width="16px" version="1.1" enable-background="new" xmlns:cc="http://creativecommons.org/ns#" xmlns:xlink="http://www.w3.org/1999/xlink" xmlns:dc="http://purl.org/dc/elements/1.1/">
<defs>
<linearGradient id="a" y2=".0914" gradientUnits="userSpaceOnUse" x2="7.09" y1="16.1" x1="8.93">
<stop stop-color="#3f4046" stop-opacity=".941" offset="0"/>
<stop stop-color="#7b7d77" offset="1"/>
</linearGradient>
</defs>
<metadata>
<rdf:RDF>
<cc:Work rdf:about="">
<dc:format>image/svg+xml</dc:format>
<dc:type rdf:resource="http://purl.org/dc/dcmitype/StillImage"/>
<dc:title/>
<cc:license rdf:resource="http://creativecommons.org/publicdomain/zero/1.0/"/>
<dc:creator>
<cc:Agent>
<dc:title>Geert Bergman, geert@www.scrivo.org</dc:title>
</cc:Agent>
</dc:creator>
</cc:Work>
</rdf:RDF>
</metadata>
<g>
<path fill="url(#a)" d="m2.74 15.9c-1.19-0.3-2.19-1.3-2.56-2.5-0.213-0.6-0.229-1.7-0.04-2.3 0.25-0.8 0.351-0.9 5.28-5.89 4.56-4.6 4.68-4.73 5.18-4.95 0.436-0.21 0.531-0.232 1.13-0.255 0.594-0.0232 0.695-0.0103 1.05 0.134 0.828 0.336 1.38 0.947 1.64 1.8 0.105 0.345 0.126 0.55 0.106 1.01-0.0471 1.07 0.129 0.853-4.18 5.22-4.24 4.23-4.07 4.03-4.88 4.13-1.02 0-1.78-0.8-1.76-1.9 0-0.56 0.15-0.8 1.11-1.77 2.14-2.16 5.43-5.31 5.53-5.41 0.4-0.18 0.6-0.11 0.8 0.2 0.2 0.34 0.1 0.47-1.48 2.01-5.02 4.97-4.69 4.67-4.74 4.87-0.07 0.5 0.24 0.8 0.69 0.7 0.19 0 0.72-0.5 3.8-3.67 2.33-2.35 3.63-3.76 3.73-3.94 0.2-0.36 0.2-0.95 0-1.27-0.1-0.31-0.4-0.62-0.7-0.77-0.4-0.18-1-0.18-1.4 0-0.3 0.17-8.99 8.95-9.31 9.35-0.445 0.661-0.58 1.2-0.461 1.85 0.247 1.34 1.53 2.31 2.76 2.1 0.863-0.152 0.661 0.023 5.25-4.55 4.08-4.07 4.23-4.21 4.46-4.21 0.269 0 0.57 0.136 0.626 0.284 0.0214 0.0556 0.0388 0.216 0.0388 0.357 0 0.294 0.157 0.127-5.44 5.76-3.29 3.31-3.31 3.33-4.24 3.57-0.465 0.121-1.61 0.122-2.04 0.003z"/>
</g>
</svg>
