<?xml version="1.0" encoding="UTF-8" standalone="no"?>
<svg xmlns:rdf="http://www.w3.org/1999/02/22-rdf-syntax-ns#" style="enable-background:new" xmlns="http://www.w3.org/2000/svg" height="16" width="16" version="1.1" xmlns:cc="http://creativecommons.org/ns#" xmlns:xlink="http://www.w3.org/1999/xlink" xmlns:dc="http://purl.org/dc/elements/1.1/">
<defs>
<linearGradient id="a">
<stop stop-color="#fed293" offset="0"/>
<stop stop-color="#f8941f" offset="1"/>
</linearGradient>
<linearGradient id="f" y2="11.4" spreadMethod="reflect" gradientUnits="userSpaceOnUse" x2="5.42" gradientTransform="translate(-1.06 .0436)" y1="12" x1="6.05">
<stop stop-color="#edd400" offset="0"/>
<stop stop-color="#eee59f" offset="1"/>
</linearGradient>
<radialGradient id="c" xlink:href="#a" gradientUnits="userSpaceOnUse" cy="3.53" cx="14.8" gradientTransform="matrix(-.0221 -.624 .829 .0160 12.2 12.7)" r="1.65"/>
<radialGradient id="b" xlink:href="#a" gradientUnits="userSpaceOnUse" cy="10.2" cx="6.75" gradientTransform="matrix(.918 0 0 .958 .551 .426)" r="1.34"/>
<linearGradient id="e" y2="7.72" gradientUnits="userSpaceOnUse" x2="11.3" gradientTransform="translate(-1.07 .0435)" y1="5.75" x1="9.39">
<stop stop-color="#fcaf3e" offset="0"/>
<stop stop-color="#fdc574" offset=".355"/>
<stop stop-color="#f8941f" offset="1"/>
</linearGradient>
<linearGradient id="d" y2="8.71" gradientUnits="userSpaceOnUse" x2="11.5" gradientTransform="translate(-1.07 .0435)" y1="5.53" x1="8.36">
<stop stop-color="#ce5c00" offset="0"/>
<stop stop-color="#f78c16" offset=".329"/>
<stop stop-color="#8a3d00" offset="1"/>
</linearGradient>
</defs>
<metadata>
<rdf:RDF>
<cc:Work rdf:about="">
<dc:format>image/svg+xml</dc:format>
<dc:type rdf:resource="http://purl.org/dc/dcmitype/StillImage"/>
<dc:title/>
<cc:license rdf:resource="http://creativecommons.org/publicdomain/zero/1.0/"/>
<dc:creator>
<cc:Agent>
<dc:title>Geert Bergman, geert@www.scrivo.org</dc:title>
</cc:Agent>
</dc:creator>
</cc:Work>
</rdf:RDF>
</metadata>
<g>
<g style="enable-background:new">
<g transform="matrix(1.25 0 0 1.25 -2.71 -1.34)">
<path stroke-linejoin="round" d="m4.22 9.25 1.03-1.02 2.52 2.57-1.01 1c-1.7 0.685-2.16 0.912-4.31 1.78 0.915-2.18 1.06-2.53 1.78-4.3z" stroke="#ab9500" stroke-width=".559" fill="url(#f)"/>
<path fill="#2e3436" d="m2.19 13.4 0.67-1.6s-0.11 0.668 0.275 1.03c0.38 0.4 1.02 0.3 1.02 0.3l-1.6 0.7c-0.24 0.1-0.49-0.1-0.37-0.4z"/>
<g transform="translate(6.5 -7.49)" fill="url(#b)">
<path d="m16.2 3.5a1.65 1.09 0 1 1 -0.1 -0.11" transform="matrix(-.687 -.648 .654 -.653 14.4 21.9)" fill="url(#c)"/>
</g>
<path stroke-linejoin="round" d="m11.9 1.56c0.361-0.36 1.43-0.0571 1.99 0.48 0.569 0.537 0.854 1.65 0.492 2.01-0.3 0.35-1.4 0.02-2-0.52-0.5-0.53-0.8-1.61-0.5-1.97zm0.0012-0.00667c-0.348 0.321 0.009 0.0134-0.0099-0.000552l-6.62 6.67c-0.273 0.273-0.323 1.43 0.384 2.15 0.648 0.657 1.83 0.628 2.15 0.334 0.047-0.0432 6.62-6.66 6.62-6.66 0.0113-0.00976-0.0731 0.0887 0.0078 0 0.4-0.36 0.1-1.42-0.5-1.99-0.5-0.56-1.6-0.82-2-0.5z" stroke-opacity=".991" stroke="url(#d)" stroke-linecap="square" stroke-width=".638" fill="url(#e)"/>
</g>
</g>
</g>
</svg>
