<?xml version="1.0" encoding="UTF-8" standalone="no"?>
<svg xmlns:rdf="http://www.w3.org/1999/02/22-rdf-syntax-ns#" style="enable-background:new" xmlns="http://www.w3.org/2000/svg" height="16" width="16" version="1.1" xmlns:cc="http://creativecommons.org/ns#" xmlns:xlink="http://www.w3.org/1999/xlink" xmlns:dc="http://purl.org/dc/elements/1.1/">
<defs>
<linearGradient id="a">
<stop stop-color="#f89999" offset="0"/>
<stop stop-color="#dd1414" offset="1"/>
</linearGradient>
<linearGradient id="g" x1="6.05" spreadMethod="reflect" gradientUnits="userSpaceOnUse" y1="12" gradientTransform="translate(-1.06 .0436)" x2="5.42" y2="11.4">
<stop stop-color="#edd400" offset="0"/>
<stop stop-color="#eee59f" offset="1"/>
</linearGradient>
<radialGradient id="j" xlink:href="#a" gradientUnits="userSpaceOnUse" cy="3.53" cx="14.8" gradientTransform="matrix(-.393 .422 -.559 -.548 14.3 6.18)" r="1.65"/>
<radialGradient id="k" xlink:href="#a" gradientUnits="userSpaceOnUse" cy="10.2" cx="6.75" gradientTransform="matrix(.918 0 0 .958 .551 .426)" r="1.34"/>
<linearGradient id="h" x1="9.39" gradientUnits="userSpaceOnUse" y1="5.75" gradientTransform="translate(-1.07 .0435)" x2="11.3" y2="7.72">
<stop stop-color="#ef2929" offset="0"/>
<stop stop-color="#f47070" offset=".355"/>
<stop stop-color="#dd1414" offset="1"/>
</linearGradient>
<linearGradient id="i" x1="8.36" gradientUnits="userSpaceOnUse" y1="5.53" gradientTransform="translate(-1.07 .0435)" x2="11.5" y2="8.71">
<stop stop-color="#a40000" offset="0"/>
<stop stop-color="#d80e0e" offset=".329"/>
<stop stop-color="#5f0000" offset="1"/>
</linearGradient>
</defs>
<metadata>
<rdf:RDF>
<cc:Work rdf:about="">
<dc:format>image/svg+xml</dc:format>
<dc:type rdf:resource="http://purl.org/dc/dcmitype/StillImage"/>
<dc:title/>
<cc:license rdf:resource="http://creativecommons.org/publicdomain/zero/1.0/"/>
<dc:creator>
<cc:Agent>
<dc:title>Geert Bergman, geert@www.scrivo.org</dc:title>
</cc:Agent>
</dc:creator>
</cc:Work>
</rdf:RDF>
</metadata>
<g style="enable-background:new" transform="matrix(.609 0 0 .609 4.12 2.15)">
<g transform="matrix(1.25 0 0 1.25 -2.71 -1.34)">
<path stroke-linejoin="round" d="m4.22 9.25 1.03-1.02 2.52 2.57-1.01 1c-1.7 0.6-2.14 0.9-4.29 1.7 0.91-2.2 1.03-2.5 1.75-4.25z" stroke="#ab9500" stroke-width=".918" fill="url(#g)"/>
<path fill="#2e3436" d="m2.06 13.3 0.95-2.3s-0.232 0.876 0.422 1.55c0.617 0.637 1.55 0.424 1.55 0.424l-2.27 0.9c-0.48 0.2-0.85-0.2-0.65-0.6z"/>
<g transform="translate(6.5 -7.49)" fill="url(#k)">
<path fill="url(#j)" d="m5.56 9.6a1.56 1.01 42.1 1 1 -0.00324 0.137"/>
</g>
<path stroke-linejoin="round" d="m11.9 1.56c0.361-0.36 1.43-0.0571 1.99 0.48 0.569 0.537 0.854 1.65 0.492 2.01-0.3 0.35-1.4 0.02-2-0.52-0.5-0.53-0.8-1.61-0.5-1.97zm0.0012-0.00667c-0.348 0.321 0.009 0.0134-0.0099-0.000552l-6.62 6.67c-0.273 0.273-0.323 1.43 0.384 2.15 0.648 0.657 1.83 0.628 2.15 0.334 0.047-0.0432 6.62-6.66 6.62-6.66 0.0113-0.00976-0.0731 0.0887 0.0078 0 0.4-0.36 0.1-1.42-0.5-1.99-0.5-0.56-1.6-0.82-2-0.5z" stroke-opacity=".991" stroke="url(#i)" stroke-linecap="square" stroke-width="1.05" fill="url(#h)"/>
</g>
</g>
</svg>
