<?xml version="1.0" encoding="UTF-8" standalone="no"?>
<svg xmlns:rdf="http://www.w3.org/1999/02/22-rdf-syntax-ns#" xmlns="http://www.w3.org/2000/svg" height="16px" width="16px" version="1.1" enable-background="new" xmlns:cc="http://creativecommons.org/ns#" xmlns:xlink="http://www.w3.org/1999/xlink" xmlns:dc="http://purl.org/dc/elements/1.1/">
<defs>
<linearGradient id="d" y2="9" gradientUnits="userSpaceOnUse" x2="5.5" y1=".531" x1="4.41">
<stop stop-color="#647175" offset="0"/>
<stop stop-color="#2e3436" offset="1"/>
</linearGradient>
<linearGradient id="c" y2="9" gradientUnits="userSpaceOnUse" x2="5.5" y1=".531" x1="4.41">
<stop stop-color="#d8dad5" offset="0"/>
<stop stop-color="#b2b5ad" offset="1"/>
</linearGradient>
<linearGradient id="b" y2="14.8" gradientUnits="userSpaceOnUse" x2="11.1" y1="7.12" x1="10.6">
<stop stop-color="#a40000" offset="0"/>
<stop stop-color="#6d0000" offset="1"/>
</linearGradient>
<linearGradient id="a" y2="11.5" spreadMethod="reflect" gradientUnits="userSpaceOnUse" x2="9" y1="10.5" x1="10">
<stop stop-color="#f8a0a0" offset="0"/>
<stop stop-color="#ef2929" offset="1"/>
</linearGradient>
</defs>
<metadata>
<rdf:RDF>
<cc:Work rdf:about="">
<dc:format>image/svg+xml</dc:format>
<dc:type rdf:resource="http://purl.org/dc/dcmitype/StillImage"/>
<dc:title/>
<cc:license rdf:resource="http://creativecommons.org/publicdomain/zero/1.0/"/>
<dc:creator>
<cc:Agent>
<dc:title>Geert Bergman, geert@www.scrivo.org</dc:title>
</cc:Agent>
</dc:creator>
</cc:Work>
</rdf:RDF>
</metadata>
<g stroke-width="1px">
<path stroke-linejoin="round" d="m8.5 7.5-4.5-4.5v-0.5l-1.5-1.5-1.5 1.5 1.5 1.5h0.5l4.5 4.5z" stroke="url(#d)" fill="url(#c)"/>
<path d="m8 8c0.61-0.56 1.47-0.494 2 0 0.0087 0.00947 4 4 4 4 0.551 0.547 0.545 1.38 0 2-0.545 0.624-1.46 0.551-2 0l-4-4c-0.59-0.61-0.61-1.44 0-2z" stroke="url(#b)" fill="url(#a)"/>
</g>
</svg>
