<?xml version="1.0" encoding="UTF-8" standalone="no"?>
<svg xmlns:rdf="http://www.w3.org/1999/02/22-rdf-syntax-ns#" xmlns="http://www.w3.org/2000/svg" height="16px" width="16px" version="1.1" enable-background="new" xmlns:cc="http://creativecommons.org/ns#" xmlns:xlink="http://www.w3.org/1999/xlink" xmlns:dc="http://purl.org/dc/elements/1.1/">
<defs>
<linearGradient id="b">
<stop stop-color="#f5ecaa" offset="0"/>
<stop stop-color="#fefce4" offset=".595"/>
<stop stop-color="#f8f2c5" offset="1"/>
</linearGradient>
<linearGradient id="a">
<stop stop-color="#635412" offset="0"/>
<stop stop-color="#bca026" offset=".598"/>
<stop stop-color="#645510" offset="1"/>
</linearGradient>
<linearGradient id="i" y2="15" gradientUnits="userSpaceOnUse" x2="8.99" y1="1.08" x1="7.36">
<stop stop-color="#f5f2d8" offset="0"/>
<stop stop-color="#fffef4" offset=".595"/>
<stop stop-color="#f7f5dd" offset="1"/>
</linearGradient>
<linearGradient id="h" y2="12.5" gradientUnits="userSpaceOnUse" x2="8" y1="3.56" x1="7.21">
<stop stop-color="#d1be31" offset="0"/>
<stop stop-color="#f9f6de" offset=".591"/>
<stop stop-color="#e3ce6e" offset="1"/>
</linearGradient>
<linearGradient id="g" y2="5.12" xlink:href="#b" gradientUnits="userSpaceOnUse" x2="10" y1="1.75" x1="9.12"/>
<linearGradient id="f" y2="13.8" xlink:href="#b" gradientUnits="userSpaceOnUse" x2="7.86" y1="10.1" x1="4.28"/>
<linearGradient id="e" y2="15" xlink:href="#a" gradientUnits="userSpaceOnUse" x2="8.99" y1="1.08" x1="7.36"/>
<linearGradient id="d" y2="3.53" xlink:href="#a" gradientUnits="userSpaceOnUse" x2="14.9" y1="3.47" x1="3"/>
<linearGradient id="c" y2="12.1" xlink:href="#a" gradientUnits="userSpaceOnUse" x2="10.2" y1="12.9" x1="2.28"/>
</defs>
<metadata>
<rdf:RDF>
<cc:Work rdf:about="">
<dc:format>image/svg+xml</dc:format>
<dc:type rdf:resource="http://purl.org/dc/dcmitype/StillImage"/>
<dc:title/>
<cc:license rdf:resource="http://creativecommons.org/publicdomain/zero/1.0/"/>
<dc:creator>
<cc:Agent>
<dc:title>Geert Bergman, geert@www.scrivo.org</dc:title>
</cc:Agent>
</dc:creator>
</cc:Work>
</rdf:RDF>
</metadata>
<g>
<path stroke-linejoin="round" d="m3.5 14.5c-0.5 0-1.09-0.4-1.5-1s-0.5-1.5-0.5-2l9-0.5c0 0.5 0.234 1.53 0.5 2 0.266 0.469 0.688 1.12 1.5 1-1.59 0.141-8.5 0.5-9 0.5z" stroke="url(#c)" stroke-width="1px" fill="url(#f)"/>
<path stroke-linejoin="round" d="m3.5 2c-1 0-1.98 1.28-2 2.5-0.00905 0.5 0 2 2 3.5s1.97 3.5 1.94 4.03c0.0312 0.969-0.781 2.5-1.97 2.5l9.03-0.5c1 0 2-1 2-2.5 0-0.5 0-2-2-3.5s-2-4-2-4.5c0-1.03 0.638-1.71 1.94-1.91-2.2 0.28-8.9 0.4-8.9 0.4z" stroke="url(#e)" stroke-width="1px" fill="url(#i)"/>
<path d="m4.26 3.17c-1.13 0.1-1.56 0.83-1.45 1.76 0.149 1.2 1.56 1.86 2.51 2.8 0.96 0.942 1.85 3.06 1.38 5.33 3.05-0.214 4.72-0.294 4.72-0.294 1.29-0.0722 1.64-0.608 1.54-1.76-0.1-0.7-0.5-1.45-2-2.79-1.25-1.13-2.02-2.82-1.98-5.18-1.92 0.03-4.76 0.14-4.76 0.14z" stroke-width="0" fill="url(#h)"/>
<path stroke-linejoin="round" d="m12.5 1.56c0.5 0 1.09 0.391 1.5 1 0.406 0.609 0.5 1.5 0.5 1.97l-9 0.47c0-0.5-0.23-1.53-0.5-2s-0.69-1.12-1.5-1c1.59-0.14 8.5-0.44 9-0.44z" stroke="url(#d)" stroke-width="1px" fill="url(#g)"/>
</g>
</svg>
