<?xml version="1.0" encoding="UTF-8" standalone="no"?>
<svg xmlns:rdf="http://www.w3.org/1999/02/22-rdf-syntax-ns#" xmlns="http://www.w3.org/2000/svg" height="16px" width="16px" version="1.1" enable-background="new" xmlns:cc="http://creativecommons.org/ns#" xmlns:xlink="http://www.w3.org/1999/xlink" xmlns:dc="http://purl.org/dc/elements/1.1/">
<defs>
<linearGradient id="b" y2="16" gradientUnits="userSpaceOnUse" x2="9" gradientTransform="matrix(.733 0 0 .733 2.13 2.13)" x1="7">
<stop stop-color="#fff" offset="0"/>
<stop stop-color="#fce94f" offset="1"/>
</linearGradient>
<linearGradient id="a" y2="16" gradientUnits="userSpaceOnUse" x2="9" gradientTransform="matrix(.733 0 0 .733 2.13 2.13)" x1="7">
<stop stop-color="#cba500" offset="0"/>
<stop stop-color="#a18300" offset="1"/>
</linearGradient>
</defs>
<metadata>
<rdf:RDF>
<cc:Work rdf:about="">
<dc:format>image/svg+xml</dc:format>
<dc:type rdf:resource="http://purl.org/dc/dcmitype/StillImage"/>
<dc:title/>
<cc:license rdf:resource="http://creativecommons.org/publicdomain/zero/1.0/"/>
<dc:creator>
<cc:Agent>
<dc:title>Geert Bergman, geert@www.scrivo.org</dc:title>
</cc:Agent>
</dc:creator>
</cc:Work>
</rdf:RDF>
</metadata>
<g>
<path stroke-linejoin="round" d="m3.7 6.51 2.81 0.01 1.11-2.88c0.18-0.34 0.58-0.34 0.78 0.02l1.06 2.87 2.83-0.0124c0.399 0 0.494 0.553 0.251 0.719l-2.4 1.86 1.01 3c0.122 0.398-0.359 0.69-0.657 0.458l-2.5-2-2.58 2c-0.27 0.2-0.74-0.1-0.59-0.5l0.97-3-2.33-1.88c-0.32-0.23-0.16-0.7 0.23-0.71z" stroke="url(#a)" fill="url(#b)"/>
</g>
</svg>
