<?xml version="1.0" encoding="UTF-8" standalone="no"?>
<svg xmlns:rdf="http://www.w3.org/1999/02/22-rdf-syntax-ns#" xmlns="http://www.w3.org/2000/svg" height="16px" width="16px" version="1.1" enable-background="new" xmlns:cc="http://creativecommons.org/ns#" xmlns:xlink="http://www.w3.org/1999/xlink" xmlns:dc="http://purl.org/dc/elements/1.1/">
<defs>
<linearGradient id="a">
<stop stop-color="#d8dad5" offset="0"/>
<stop stop-color="#b2b5ad" offset="1"/>
</linearGradient>
<linearGradient id="b">
<stop stop-color="#647175" offset="0"/>
<stop stop-color="#2e3436" offset="1"/>
</linearGradient>
<linearGradient id="h" y2="15.5" xlink:href="#b" gradientUnits="userSpaceOnUse" x2="8.97" y1=".406" x1="6.94"/>
<linearGradient id="g" y2="15.5" xlink:href="#a" gradientUnits="userSpaceOnUse" x2="8.97" y1=".406" x1="6.94"/>
<linearGradient id="f" y2="9" xlink:href="#b" gradientUnits="userSpaceOnUse" x2="5.5" y1=".531" x1="4.41"/>
<linearGradient id="e" y2="9" xlink:href="#a" gradientUnits="userSpaceOnUse" x2="5.5" y1=".531" x1="4.41"/>
<linearGradient id="d" y2="14.8" gradientUnits="userSpaceOnUse" x2="11.1" y1="7.12" x1="10.6">
<stop stop-color="#a40000" offset="0"/>
<stop stop-color="#6d0000" offset="1"/>
</linearGradient>
<linearGradient id="c" y2="11.5" spreadMethod="reflect" gradientUnits="userSpaceOnUse" x2="9" y1="10.5" x1="10">
<stop stop-color="#f8a0a0" offset="0"/>
<stop stop-color="#ef2929" offset="1"/>
</linearGradient>
</defs>
<metadata>
<rdf:RDF>
<cc:Work rdf:about="">
<dc:format>image/svg+xml</dc:format>
<dc:type rdf:resource="http://purl.org/dc/dcmitype/StillImage"/>
<dc:title/>
<cc:license rdf:resource="http://creativecommons.org/publicdomain/zero/1.0/"/>
<dc:creator>
<cc:Agent>
<dc:title>Geert Bergman, geert@www.scrivo.org</dc:title>
</cc:Agent>
</dc:creator>
</cc:Work>
</rdf:RDF>
</metadata>
<g stroke-width="1px">
<path stroke-linejoin="round" d="m11.5 0.5c-2.21 0-4 1.79-4 4 0 0.448 0.0831 0.879 0.219 1.28l-6.72 6.72c-0.5 0.5-0.5 1 0 1.5l1 1c0.5 0.5 1 0.5 1.5 0l6.7-6.72c0.4 0.14 0.9 0.22 1.3 0.22 2.21 0 4-1.79 4-4 0-0.587-0.117-1.15-0.344-1.66l-2.7 2.69c-0.5 0.6-1.4 0.63-2 0.09-0.62-0.53-0.65-1.46-0.2-1.96 0.1-0.03 2.3-2.27 2.9-2.82-0.5-0.223-1.1-0.34-1.7-0.34z" fill-rule="evenodd" stroke="url(#h)" fill="url(#g)"/>
<path stroke-linejoin="round" d="m8.5 7.5-4.5-4.5v-0.5l-1.5-1.5-1.5 1.5 1.5 1.5h0.5l4.5 4.5z" stroke="url(#f)" fill="url(#e)"/>
<path d="m8 8c0.61-0.56 1.47-0.494 2 0 0.0087 0.00947 4 4 4 4 0.551 0.547 0.545 1.38 0 2-0.545 0.624-1.46 0.551-2 0l-4-4c-0.59-0.61-0.61-1.44 0-2z" stroke="url(#d)" fill="url(#c)"/>
</g>
</svg>
