<?xml version="1.0" encoding="UTF-8" standalone="no"?>
<svg xmlns:rdf="http://www.w3.org/1999/02/22-rdf-syntax-ns#" xmlns="http://www.w3.org/2000/svg" height="16px" width="16px" version="1.1" enable-background="new" xmlns:cc="http://creativecommons.org/ns#" xmlns:xlink="http://www.w3.org/1999/xlink" xmlns:dc="http://purl.org/dc/elements/1.1/">
<defs>
<linearGradient id="a">
<stop stop-color="#fff" offset="0"/>
<stop stop-color="#ecb26d" offset="1"/>
</linearGradient>
<radialGradient id="e" xlink:href="#a" gradientUnits="userSpaceOnUse" cy="4" cx="7" gradientTransform="matrix(0 .875 -1 0 11 -2.12)" r="4"/>
<radialGradient id="d" gradientUnits="userSpaceOnUse" cy="9.5" cx="6.5" gradientTransform="matrix(-2.16e-8 .861 -1 -2.78e-8 15.8 4.73)" r="6">
<stop stop-color="#cdf4a6" offset="0"/>
<stop stop-color="#82dc2a" offset="1"/>
</radialGradient>
<linearGradient id="f" y2="15" gradientUnits="userSpaceOnUse" x2="9" gradientTransform="matrix(1.09 0 0 1.15 -.797 -1.16)" y1="7" x1="7">
<stop stop-color="#52a108" offset="0"/>
<stop stop-color="#386f04" offset="1"/>
</linearGradient>
<radialGradient id="c" xlink:href="#a" gradientUnits="userSpaceOnUse" cy="12.5" cx="2.5" gradientTransform="matrix(0,1,-1,0,15,9)" r="2"/>
<radialGradient id="b" xlink:href="#a" gradientUnits="userSpaceOnUse" cy="11.5" cx="12.5" gradientTransform="matrix(0 .75 -1 0 24 2.12)" r="2"/>
</defs>
<metadata>
<rdf:RDF>
<cc:Work rdf:about="">
<dc:format>image/svg+xml</dc:format>
<dc:type rdf:resource="http://purl.org/dc/dcmitype/StillImage"/>
<dc:title/>
<cc:license rdf:resource="http://creativecommons.org/publicdomain/zero/1.0/"/>
<dc:creator>
<cc:Agent>
<dc:title>Geert Bergman, geert@www.scrivo.org</dc:title>
</cc:Agent>
</dc:creator>
</cc:Work>
</rdf:RDF>
</metadata>
<g>
<g>
<path d="m14.5 12a1.5 1.5 0 1 1 -3 0 1.5 1.5 0 1 1 3 0z" fill-rule="evenodd" transform="matrix(1.15 0 0 1.15 -1.19 -1.16)" stroke="#8e520b" stroke-width=".870px" fill="url(#b)"/>
<path d="m4.5 12a1.5 1.5 0 1 1 -3 0 1.5 1.5 0 1 1 3 0z" fill-rule="evenodd" transform="matrix(1.15 0 0 1.15 -1.19 -1.16)" stroke="#8e520b" stroke-width=".870px" fill="url(#c)"/>
<path stroke-linejoin="round" d="m3.57 15.5h8.74s-0.0222-1.84 0.353-2.72c0.375-0.883 0.603-1.43 1.35-2.15-1.11-2.31-3.37-3.24-6.07-3.18-2.69 0.0198-4.95 0.89-5.95 3.18 0.652 0.812 0.85 1.2 1.23 1.99 0.378 0.789 0.353 2.87 0.353 2.87z" stroke="url(#f)" stroke-width="1px" fill="url(#d)"/>
<path d="m11.5 5c0 1.93-1.57 3.5-3.5 3.5s-3.5-1.57-3.5-3.5 1.57-3.12 3.5-3.12 3.5 1.19 3.5 3.12z" fill-rule="evenodd" transform="matrix(1.01 0 0 1.15 -.0495 -1.16)" stroke="#8e520b" stroke-width=".930px" fill="url(#e)"/>
</g>
<path stroke-linejoin="round" d="m4.52 4c0.28-2.2 2.04-3.2 3.98-3 1.49 0.151 2.62 0.868 2.97 2.7 0 0-1.17 0.265-2.27-0.86-0.95-0.97-1.82-1.11-2.56-0.91-2.02 0.55-2.12 2.07-2.12 2.07z" fill-rule="evenodd" stroke="#341e04" stroke-linecap="round" stroke-width="1.4" fill="#392103"/>
</g>
</svg>
