<?xml version="1.0" encoding="UTF-8" standalone="no"?>
<svg xmlns:rdf="http://www.w3.org/1999/02/22-rdf-syntax-ns#" xmlns="http://www.w3.org/2000/svg" height="16px" width="16px" version="1.1" enable-background="new" xmlns:cc="http://creativecommons.org/ns#" xmlns:xlink="http://www.w3.org/1999/xlink" xmlns:dc="http://purl.org/dc/elements/1.1/">
<defs>
<linearGradient id="b" y2="15.5" gradientUnits="userSpaceOnUse" x2="8.97" y1=".406" x1="6.94">
<stop stop-color="#647175" offset="0"/>
<stop stop-color="#2e3436" offset="1"/>
</linearGradient>
<linearGradient id="a" y2="15.5" gradientUnits="userSpaceOnUse" x2="8.97" y1=".406" x1="6.94">
<stop stop-color="#d8dad5" offset="0"/>
<stop stop-color="#b2b5ad" offset="1"/>
</linearGradient>
</defs>
<metadata>
<rdf:RDF>
<cc:Work rdf:about="">
<dc:format>image/svg+xml</dc:format>
<dc:type rdf:resource="http://purl.org/dc/dcmitype/StillImage"/>
<dc:title/>
<cc:license rdf:resource="http://creativecommons.org/publicdomain/zero/1.0/"/>
<dc:creator>
<cc:Agent>
<dc:title>Geert Bergman, geert@www.scrivo.org</dc:title>
</cc:Agent>
</dc:creator>
</cc:Work>
</rdf:RDF>
</metadata>
<g>
<path stroke-linejoin="round" d="m11.5 0.5c-2.21 0-4 1.79-4 4 0 0.448 0.0831 0.879 0.219 1.28l-6.72 6.72c-0.5 0.5-0.5 1 0 1.5l1 1c0.5 0.5 1 0.5 1.5 0l6.7-6.72c0.4 0.14 0.9 0.22 1.3 0.22 2.21 0 4-1.79 4-4 0-0.587-0.117-1.15-0.344-1.66l-2.7 2.69c-0.5 0.6-1.4 0.63-2 0.09-0.62-0.53-0.65-1.46-0.2-1.96 0.1-0.03 2.3-2.27 2.9-2.82-0.5-0.223-1.1-0.34-1.7-0.34z" fill-rule="evenodd" stroke="url(#b)" stroke-width="1px" fill="url(#a)"/>
</g>
</svg>
